<?xml version="1.0" encoding="iso-8859-1"?>
<!-- Uploaded to: SVG Repo, www.svgrepo.com, Generator: SVG Repo Mixer Tools -->
<svg height="800px" width="800px" version="1.1" id="Layer_1" xmlns="http://www.w3.org/2000/svg" xmlns:xlink="http://www.w3.org/1999/xlink" 
	 viewBox="0 0 503.467 503.467" xml:space="preserve">
<g transform="translate(1 1)">
	<path style="fill:#80D6FA;" d="M122.733,122.733h-51.2h-51.2c-9.387,0-17.067-7.68-17.067-17.067V20.333
		c0-9.387,7.68-17.067,17.067-17.067h460.8c9.387,0,17.067,7.68,17.067,17.067v460.8c0,9.387-7.68,17.067-17.067,17.067H395.8
		c-9.387,0-17.067-7.68-17.067-17.067v-51.2v-51.2v-51.2v-51.2v-51.2v-51.2v-51.2h-51.2h-51.2h-51.2h-51.2H122.733z"/>
	<path style="fill:#E4F2DE;" d="M173.933,498.2H3.267V327.533C97.133,327.533,173.933,404.333,173.933,498.2"/>
</g>
<path style="fill:#51565F;" d="M482.133,503.467H396.8c-11.947,0-21.333-9.387-21.333-21.333V89.6c0-2.56,1.707-4.267,4.267-4.267
	c2.56,0,4.267,1.707,4.267,4.267v29.867h29.867c2.56,0,4.267,1.707,4.267,4.267c0,2.56-1.707,4.267-4.267,4.267H384v42.667h12.8
	c2.56,0,4.267,1.707,4.267,4.267c0,2.56-1.707,4.267-4.267,4.267H384v42.667h12.8c2.56,0,4.267,1.707,4.267,4.267
	s-1.707,4.267-4.267,4.267H384v42.667h29.867c2.56,0,4.267,1.707,4.267,4.267s-1.707,4.267-4.267,4.267H384v42.667h12.8
	c2.56,0,4.267,1.707,4.267,4.267c0,2.56-1.707,4.267-4.267,4.267H384v42.667h12.8c2.56,0,4.267,1.707,4.267,4.267
	c0,2.56-1.707,4.267-4.267,4.267H384v42.667h29.867c2.56,0,4.267,1.707,4.267,4.267c0,2.56-1.707,4.267-4.267,4.267H384v46.933
	c0,6.827,5.973,12.8,12.8,12.8h85.333c6.827,0,12.8-5.973,12.8-12.8v-460.8c0-6.827-5.973-12.8-12.8-12.8h-460.8
	c-6.827,0-12.8,5.973-12.8,12.8v85.333c0,6.827,5.973,12.8,12.8,12.8h46.933V89.6c0-2.56,1.707-4.267,4.267-4.267
	c2.56,0,4.267,1.707,4.267,4.267v29.867h42.667v-12.8c0-2.56,1.707-4.267,4.267-4.267c2.56,0,4.267,1.707,4.267,4.267v12.8h42.667
	v-12.8c0-2.56,1.707-4.267,4.267-4.267c2.56,0,4.267,1.707,4.267,4.267v12.8h42.667V89.6c0-2.56,1.707-4.267,4.267-4.267
	S230.4,87.04,230.4,89.6v29.867h42.667v-12.8c0-2.56,1.707-4.267,4.267-4.267s4.267,1.707,4.267,4.267v12.8h42.667v-12.8
	c0-2.56,1.707-4.267,4.267-4.267s4.267,1.707,4.267,4.267v12.8h12.8c2.56,0,4.267,1.707,4.267,4.267c0,2.56-1.707,4.267-4.267,4.267
	H21.333C9.387,128,0,118.613,0,106.667V21.333C0,9.387,9.387,0,21.333,0h460.8c11.947,0,21.333,9.387,21.333,21.333v460.8
	C503.467,494.08,494.08,503.467,482.133,503.467z M311.467,503.467H4.267C1.707,503.467,0,501.76,0,499.2V192
	c0-2.56,1.707-4.267,4.267-4.267S8.533,189.44,8.533,192v132.267c93.013,2.56,168.107,77.653,170.667,170.667h132.267
	c2.56,0,4.267,1.707,4.267,4.267C315.733,501.76,314.027,503.467,311.467,503.467z M8.533,494.933h162.133
	C168.107,406.187,97.28,335.36,8.533,332.8V494.933z M217.6,298.667c-16.213,0-29.867-13.653-29.867-29.867v-34.133
	c0-16.213,13.653-29.867,29.867-29.867s29.867,13.653,29.867,29.867V268.8C247.467,285.013,233.813,298.667,217.6,298.667z
	 M217.6,213.333c-11.947,0-21.333,9.387-21.333,21.333V268.8c0,11.947,9.387,21.333,21.333,21.333
	c11.947,0,21.333-9.387,21.333-21.333v-34.133C238.933,222.72,229.547,213.333,217.6,213.333z M132.267,298.667
	c-13.653,0-25.6-8.533-29.867-19.627c-0.853-2.56,0.853-4.267,2.56-5.12c2.56-0.853,4.267,0.853,5.12,2.56
	c2.56,8.533,11.947,14.507,21.333,14.507c11.947,0,21.333-9.387,21.333-21.333V256c-5.12,5.12-12.8,9.387-21.333,9.387
	c-16.213,0-29.867-13.653-29.867-29.867s13.653-29.867,29.867-29.867s29.867,13.653,29.867,29.867v34.133
	C162.133,285.013,148.48,298.667,132.267,298.667z M132.267,213.333c-11.947,0-21.333,9.387-21.333,21.333
	c0,11.947,9.387,21.333,21.333,21.333s21.333-9.387,21.333-21.333C153.6,222.72,144.213,213.333,132.267,213.333z M294.4,230.4
	c-11.947,0-21.333-9.387-21.333-21.333c0-11.947,9.387-21.333,21.333-21.333c11.947,0,21.333,9.387,21.333,21.333
	C315.733,221.013,306.347,230.4,294.4,230.4z M294.4,196.267c-6.827,0-12.8,5.973-12.8,12.8c0,6.827,5.973,12.8,12.8,12.8
	s12.8-5.973,12.8-12.8C307.2,202.24,301.227,196.267,294.4,196.267z"/>
</svg>