<?xml version="1.0" encoding="iso-8859-1"?>
<!-- Uploaded to: SVG Repo, www.svgrepo.com, Generator: SVG Repo Mixer Tools -->
<svg version="1.1" id="Layer_1" xmlns="http://www.w3.org/2000/svg" xmlns:xlink="http://www.w3.org/1999/xlink" 
	 viewBox="0 0 512 512" xml:space="preserve">
<path style="fill:#EFEFEF;" d="M483.295,130.254c-21.938,0.568-22.239,22.25-44.767,22.25c-22.817,0-22.817-22.261-45.635-22.261
	s-22.817,22.261-45.635,22.261c-22.817,0-22.817-22.261-45.635-22.261s-22.817,22.261-45.635,22.261s-22.817-22.261-45.635-22.261
	s-22.817,22.261-45.624,22.261c-22.817,0-22.817-22.261-45.635-22.261s-22.817,22.261-45.635,22.261
	c-22.517,0-22.817-21.682-44.755-22.25c15.883-39.558,41.817-74.006,74.63-100.207h305.33
	C441.478,56.248,467.411,90.696,483.295,130.254z"/>
<path style="fill:#27AAE1;" d="M500.87,221.49c0,135.235-109.635,244.87-244.87,244.87S11.13,356.725,11.13,221.49
	c0-32.256,6.233-63.043,17.575-91.236c21.938,0.568,22.239,22.25,44.755,22.25c22.817,0,22.817-22.261,45.635-22.261
	s22.817,22.261,45.635,22.261c22.806,0,22.806-22.261,45.624-22.261s22.817,22.261,45.635,22.261s22.817-22.261,45.635-22.261
	s22.817,22.261,45.635,22.261c22.817,0,22.817-22.261,45.635-22.261s22.817,22.261,45.635,22.261
	c22.528,0,22.829-21.682,44.767-22.25C494.637,158.446,500.87,189.234,500.87,221.49z"/>
<rect x="139.13" y="437.437" style="fill:#EFEFEF;" width="233.739" height="44.522"/>
<g>
	<path style="fill:#FBA026;" d="M256,234.871c0,0-26.411,29.496-58.991,29.496s-58.991-29.496-58.991-29.496
		s26.411-29.496,58.991-29.496S256,234.871,256,234.871z"/>
	<path style="fill:#FBA026;" d="M378.908,336.698c0,0-26.411,29.496-58.991,29.496s-58.991-29.496-58.991-29.496
		s26.411-29.496,58.991-29.496S378.908,336.698,378.908,336.698z"/>
</g>
<g>
	<path style="fill:#231F20;" d="M512,221.49c0-29.91-5.097-59.086-15.141-86.87c-0.509-1.407-5.926-14.882-6.507-16.2
		c-16.619-37.738-42.313-71.177-74.742-97.072c-1.972-1.575-4.422-2.433-6.945-2.433h-305.33c-2.524,0-4.973,0.858-6.945,2.433
		C61.776,48.987,34.802,85.207,18.383,126.09c-0.001,0.003-0.003,0.006-0.004,0.009C6.184,156.415,0,188.508,0,221.49
		c0,68.379,26.628,132.666,74.981,181.019c16.057,16.056,33.88,29.695,53.019,40.777v38.668c0,6.147,4.983,11.13,11.13,11.13H372.87
		c6.146,0,11.13-4.983,11.13-11.13v-38.668c19.139-11.083,36.962-24.722,53.019-40.777C485.37,354.156,512,289.869,512,221.49z
		 M107.285,41.177h297.431c26.862,22.183,48.474,50.093,63.135,81.445l0.028,0.003c-6.247,2.958-10.677,7.255-14.289,10.778
		c-5.521,5.383-8.466,7.971-15.059,7.971c-6.586,0-9.53-2.587-15.045-7.967c-6.184-6.033-14.651-14.294-30.59-14.294
		c-15.939,0-24.407,8.261-30.59,14.294c-5.515,5.38-8.459,7.967-15.045,7.967s-9.53-2.587-15.045-7.967
		c-6.184-6.033-14.651-14.294-30.59-14.294c-15.939,0-24.407,8.261-30.59,14.294c-5.515,5.38-8.459,7.967-15.045,7.967
		s-9.53-2.587-15.045-7.967c-6.183-6.033-14.652-14.294-30.59-14.294c-15.941,0-24.409,8.263-30.592,14.297
		c-5.512,5.379-8.452,7.964-15.032,7.964c-6.586,0-9.53-2.587-15.045-7.967c-6.183-6.033-14.652-14.294-30.59-14.294
		s-24.407,8.261-30.59,14.294c-5.515,5.38-8.458,7.967-15.045,7.967c-6.586,0-9.53-2.587-15.047-7.967
		c-3.613-3.524-8.043-7.821-14.291-10.781l0.027-0.003C58.81,91.27,80.422,63.359,107.285,41.177z M361.739,470.823H150.261v-22.261
		h211.478V470.823z M368.525,426.301H143.475C71.279,386.481,22.261,309.606,22.261,221.49c0-26.919,4.507-53.18,13.408-78.205
		c2.266,1.312,4.391,3.315,7.203,6.056c6.184,6.032,14.654,14.293,30.59,14.293c15.939,0,24.407-8.261,30.59-14.294
		c5.515-5.38,8.458-7.967,15.045-7.967s9.53,2.587,15.045,7.967c6.183,6.033,14.652,14.294,30.59,14.294
		c15.932,0,24.398-8.261,30.58-14.293c5.515-5.38,8.458-7.968,15.045-7.968c6.586,0,9.53,2.587,15.045,7.967
		c6.183,6.033,14.652,14.294,30.59,14.294c15.939,0,24.407-8.261,30.59-14.294c5.515-5.38,8.459-7.967,15.045-7.967
		s9.53,2.587,15.045,7.967c6.184,6.033,14.651,14.294,30.59,14.294c15.939,0,24.407-8.261,30.59-14.294
		c5.515-5.38,8.459-7.967,15.045-7.967c6.586,0,9.53,2.587,15.045,7.967c6.184,6.033,14.651,14.294,30.59,14.294
		c15.943,0,24.416-8.261,30.601-14.294c2.81-2.741,4.937-4.744,7.203-6.055c8.9,25.022,13.407,51.285,13.407,78.205
		C489.739,309.606,440.721,386.481,368.525,426.301z"/>
	<path style="fill:#231F20;" d="M264.292,242.296c3.783-4.226,3.783-10.623,0-14.85c-1.214-1.356-30.157-33.201-67.283-33.201
		c-26.437,0-48.713,16.141-59.794,25.929L113.5,201.818c-4.861-3.762-11.851-2.873-15.615,1.989
		c-3.762,4.861-2.873,11.852,1.989,15.615l19.96,15.45L99.873,250.32c-4.861,3.762-5.751,10.753-1.989,15.615
		c2.194,2.834,5.484,4.317,8.81,4.317c2.38,0,4.777-0.76,6.805-2.33l23.714-18.356c11.08,9.788,33.357,25.929,59.794,25.929
		C234.135,275.497,263.078,243.651,264.292,242.296z M197.009,253.236c-17.545,0-33.547-10.726-42.7-18.344
		c9.19-7.621,25.262-18.386,42.7-18.386c17.54,0,33.54,10.722,42.699,18.345C230.517,242.471,214.446,253.236,197.009,253.236z"/>
	<path style="fill:#231F20;" d="M319.917,296.071c-26.437,0-48.713,16.141-59.794,25.929l-23.716-18.357
		c-4.862-3.763-11.852-2.872-15.615,1.989c-3.762,4.861-2.873,11.852,1.989,15.615l19.96,15.45l-19.96,15.45
		c-4.861,3.762-5.751,10.754-1.989,15.615c2.194,2.834,5.484,4.318,8.81,4.318c2.38,0,4.777-0.76,6.805-2.33l23.716-18.357
		c11.08,9.788,33.357,25.929,59.794,25.929c37.127,0,66.069-31.845,67.283-33.201c3.783-4.226,3.783-10.623,0-14.85
		C385.986,327.917,357.043,296.071,319.917,296.071z M319.917,355.062c-17.545,0-33.547-10.726-42.699-18.344
		c9.19-7.621,25.261-18.386,42.699-18.386c17.557,0,33.569,10.741,42.723,18.365C353.486,344.321,337.474,355.062,319.917,355.062z"
		/>
	<path style="fill:#231F20;" d="M324.874,243.488h2.226c6.146,0,11.13-4.983,11.13-11.13c0-6.147-4.984-11.13-11.13-11.13h-2.226
		c-6.146,0-11.13,4.983-11.13,11.13C313.744,238.505,318.727,243.488,324.874,243.488z"/>
	<path style="fill:#231F20;" d="M149.518,325.566h-2.226c-6.147,0-11.13,4.983-11.13,11.13c0,6.147,4.983,11.13,11.13,11.13h2.226
		c6.147,0,11.13-4.983,11.13-11.13C160.649,330.549,155.666,325.566,149.518,325.566z"/>
	<path style="fill:#231F20;" d="M430.005,220.402h-33.391c-6.146,0-11.13,4.983-11.13,11.13c0,6.147,4.984,11.13,11.13,11.13h33.391
		c6.146,0,11.13-4.983,11.13-11.13C441.136,225.385,436.152,220.402,430.005,220.402z"/>
</g>
</svg>