<?xml version="1.0" encoding="iso-8859-1"?>
<!-- Uploaded to: SVG Repo, www.svgrepo.com, Generator: SVG Repo Mixer Tools -->
<svg height="800px" width="800px" version="1.1" id="Layer_1" xmlns="http://www.w3.org/2000/svg" xmlns:xlink="http://www.w3.org/1999/xlink" 
	 viewBox="0 0 511.999 511.999" xml:space="preserve">
<path style="fill:#97BAA8;" d="M449.043,175.235v333.732H62.949V175.235H449.043z"/>
<path style="fill:#B1D7C5;" d="M449.048,175.235v333.732h-133.12V175.235H449.048z"/>
<path style="fill:#FF4328;" d="M503.201,188.909v13.554c0,14.267-11.374,26.144-25.64,26.285c-0.107,0.001-0.215,0.001-0.322,0.001
	c-15.954,0-29.154-11.651-31.394-26.827h-0.503c-2.246,15.176-15.44,26.827-31.4,26.827c-15.948,0-29.152-11.651-31.389-26.827
	h-0.284c-2.24,15.176-15.442,26.827-31.394,26.827c-15.954,0-29.154-11.651-31.396-26.827h-0.497
	c-2.243,15.176-15.444,26.827-31.396,26.827c-15.951,0-29.154-11.651-31.394-26.827h-0.385
	c-2.246,15.176-15.446,26.827-31.396,26.827c-15.952,0-29.157-11.651-31.402-26.827h-0.492c-2.243,15.176-15.448,26.827-31.4,26.827
	c-15.948,0-29.154-11.651-31.396-26.827h-0.273c-2.243,15.176-15.449,26.827-31.402,26.827c-15.951,0-29.152-11.651-31.394-26.827
	h-0.497c-2.246,15.176-15.446,26.827-31.396,26.827c-0.041,0-0.081,0-0.123,0c-14.209-0.054-25.835-11.936-25.835-26.148v-13.756
	c0-3.522,0.698-7.009,2.057-10.258L53.832,75.713h142.145h121.298h140.543l43.326,103.005
	C502.501,181.944,503.201,185.409,503.201,188.909z"/>
<path style="fill:#981700;" d="M256,75.713v126.21h-0.192c-2.246,15.176-15.446,26.827-31.396,26.827
	c-15.952,0-29.157-11.651-31.402-26.827h-0.492c-2.243,15.176-15.448,26.827-31.4,26.827c-15.948,0-29.154-11.651-31.396-26.827
	h-0.273c-2.243,15.176-15.449,26.827-31.402,26.827c-15.951,0-29.152-11.651-31.394-26.827h-0.497
	c-2.246,15.176-15.446,26.827-31.396,26.827c-0.108,0-0.214-0.001-0.321-0.001c-14.266-0.142-25.638-12.019-25.638-26.284V188.78
	c0-3.478,0.691-6.922,2.032-10.131L53.832,75.712h142.145H256V75.713z"/>
<path style="fill:#CF8F3D;" d="M251.377,385.569c-1.208,16.042-10.116,29.064-24.287,29.064h-46.373h-46.373
	c-14.17,0-23.079-13.022-24.287-29.064c-2.133-28.322,21.012-52.226,49.473-52.226h21.186h21.186
	C230.364,333.343,253.509,357.248,251.377,385.569z"/>
<path style="fill:#B76700;" d="M248.521,365.391c2.333,6.243,3.392,13.071,2.856,20.179c-1.208,16.042-10.116,29.064-24.287,29.064
	h-46.373h-46.373c-14.17,0-23.079-13.022-24.287-29.064c-0.536-7.108,0.524-13.936,2.856-20.179
	c3.861,9.656,11.299,16.313,21.43,16.313h46.373h46.373C237.22,381.703,244.66,375.047,248.521,365.391z"/>
<path style="fill:#CF8F3D;" d="M310.995,80.885c0,30.311-24.622,54.882-54.995,54.882c-30.372,0-54.995-24.572-54.995-54.882
	S225.628,26.002,256,26.002C286.372,26.002,310.995,50.574,310.995,80.885z"/>
<path style="fill:#B76700;" d="M288.997,80.885c0,18.187-14.774,32.93-32.997,32.93c-18.224,0-32.997-14.743-32.997-32.93
	s14.773-32.93,32.997-32.93C274.223,47.955,288.997,62.698,288.997,80.885z"/>
<path d="M370.228,379.691v16.411c0,4.849-3.94,8.782-8.799,8.782c-4.86,0-8.799-3.931-8.799-8.782v-16.411
	c0-4.849,3.939-8.782,8.799-8.782C366.288,370.911,370.228,374.842,370.228,379.691z M245.04,343.358
	c10.938,11.793,16.305,27.019,15.111,42.873c-1.649,21.903-15.243,37.202-33.062,37.202h-92.744
	c-17.816,0-31.412-15.298-33.061-37.202c-1.193-15.854,4.173-31.08,15.111-42.873c8.967-9.667,20.963-15.997,33.856-18.068
	c0.172-0.54,0.343-1.079,0.514-1.612c3.506-10.971,6.534-20.447,0.238-32.029c-2.317-4.263-0.734-9.593,3.537-11.906
	c4.273-2.312,9.613-0.733,11.931,3.531c8.711,16.021,5.934,29.808,2.463,41.271h24.304c0.115-0.363,0.231-0.724,0.345-1.083
	c3.506-10.973,6.534-20.448,0.239-32.03c-2.317-4.263-0.733-9.593,3.538-11.905c4.273-2.312,9.613-0.731,11.931,3.531
	c8.967,16.495,5.758,30.622,2.152,42.282C224.237,327.452,236.134,333.755,245.04,343.358z M232.138,355.325
	c-6.629-7.146-15.623-11.681-25.225-12.863c-0.434,4.166,0.143,7.854,2.338,11.801c2.359,4.24,0.826,9.586-3.423,11.939
	c-1.353,0.749-2.818,1.105-4.262,1.105c-3.094,0-6.093-1.63-7.701-4.521c-4.041-7.265-5.051-14.145-4.595-20.644h-25.112
	c-0.542,4.388-0.014,8.223,2.275,12.338c2.359,4.24,0.826,9.586-3.423,11.939c-1.352,0.749-2.818,1.105-4.262,1.105
	c-3.094,0-6.093-1.631-7.701-4.522c-3.636-6.538-4.816-12.763-4.684-18.68c-6.457,2.18-12.356,5.931-17.06,11.002
	c-7.571,8.162-11.287,18.668-10.465,29.584c0.784,10.415,5.884,20.924,15.512,20.924h92.744c9.628,0,14.729-10.509,15.513-20.924
	C243.424,373.994,239.708,363.487,232.138,355.325z M457.844,232.579v258.826h36.833c4.859,0,8.799,3.931,8.799,8.782
	s-3.94,8.782-8.799,8.782h-45.28c-0.118,0.004-0.233,0.018-0.352,0.018H62.948c-0.119,0-0.234-0.013-0.352-0.018H17.323
	c-4.859,0-8.799-3.931-8.799-8.782s3.94-8.782,8.799-8.782h36.826V232.581c-5.805,3.167-12.431,4.969-19.391,4.969l-0.241-0.001
	C15.523,237.475,0,221.798,0,202.602v-13.756c0-4.709,0.921-9.301,2.734-13.647L45.712,72.321c1.368-3.275,4.57-5.408,8.119-5.408
	h139.94c5.866-26.043,27.749-46.093,54.746-49.258c-0.263-0.553-0.528-1.106-0.835-1.67c-2.317-4.263-0.734-9.593,3.537-11.906
	c4.273-2.314,9.613-0.731,11.931,3.53c1.993,3.665,3.376,7.21,4.295,10.639c25.158,4.571,45.206,23.907,50.781,48.664h139.591
	c3.542,0,6.738,2.123,8.111,5.387l43.327,103.005c1.821,4.33,2.744,8.907,2.744,13.603v13.554c0,19.158-15.411,34.897-34.352,35.083
	l-0.408,0.002C470.277,237.549,463.65,235.747,457.844,232.579z M71.747,491.385h368.497V227.83
	c-7.148,6.065-16.385,9.719-26.302,9.719c-12.552,0-24.025-5.832-31.532-15.027c-7.509,9.194-18.982,15.027-31.535,15.027
	c-12.614,0-24.137-5.89-31.645-15.163c-7.509,9.273-19.034,15.163-31.645,15.163c-12.582,0-24.081-5.861-31.589-15.094
	c-7.51,9.234-19.007,15.094-31.588,15.094c-12.612,0-24.137-5.89-31.646-15.162c-7.508,9.273-19.033,15.162-31.646,15.162
	c-12.551,0-24.024-5.832-31.533-15.026c-7.511,9.194-18.985,15.026-31.538,15.026c-9.917,0-19.151-3.654-26.298-9.718V491.385z
	 M209.805,80.885c0,25.411,20.723,46.082,46.195,46.082s46.195-20.672,46.195-46.082c0-21.1-14.294-38.921-33.727-44.364
	c-0.837,6.12-2.628,11.735-4.257,16.831c-3.557,11.132-5.363,17.804-1.101,25.466c2.358,4.24,0.825,9.586-3.424,11.939
	c-1.352,0.749-2.818,1.104-4.262,1.104c-3.094,0-6.095-1.631-7.701-4.522c-8.156-14.667-3.971-27.766-0.277-39.323
	c1.43-4.475,2.77-8.702,3.439-12.925C227.812,37.638,209.805,57.2,209.805,80.885z M57.45,200.635
	c0.639-4.316,4.342-7.512,8.705-7.512h0.497c4.363,0,8.067,3.196,8.705,7.513c1.627,11.011,11.382,19.314,22.69,19.314
	c11.312,0,21.07-8.303,22.697-19.314c0.638-4.316,4.341-7.513,8.705-7.513h0.273c4.363,0,8.067,3.196,8.705,7.513
	c1.627,11.011,11.383,19.314,22.692,19.314c11.311,0,21.067-8.303,22.695-19.314c0.638-4.316,4.341-7.513,8.705-7.513h0.492
	c4.362,0,8.066,3.196,8.705,7.511c1.629,11.012,11.386,19.316,22.697,19.316c11.307,0,21.063-8.304,22.693-19.316
	c0.639-4.315,4.342-7.511,8.705-7.511h0.385c4.363,0,8.068,3.197,8.705,7.514c1.627,11.01,11.381,19.313,22.69,19.313
	c11.309,0,21.064-8.303,22.693-19.315c0.638-4.316,4.342-7.512,8.705-7.512h0.496c4.363,0,8.067,3.196,8.705,7.513
	c1.627,11.011,11.383,19.314,22.692,19.314c11.31,0,21.064-8.302,22.69-19.313c0.637-4.317,4.341-7.514,8.705-7.514h0.284
	c4.364,0,8.069,3.199,8.705,7.516c1.623,11.01,11.376,19.312,22.684,19.312c11.309,0,21.066-8.304,22.695-19.315
	c0.639-4.316,4.342-7.512,8.705-7.512h0.503c4.363,0,8.068,3.197,8.705,7.514c1.625,11.01,11.381,19.313,22.69,19.313l0.241-0.001
	c9.327-0.092,16.922-7.937,16.922-17.486v-13.554c0-2.341-0.46-4.623-1.367-6.781l-41.06-97.617H319.684
	c-1.891,33.432-29.727,60.054-63.684,60.054s-61.793-26.622-63.684-60.054H59.692L18.974,181.98
	c-0.913,2.187-1.376,4.496-1.376,6.866v13.756c0,9.369,7.817,17.313,17.071,17.349C46.066,219.951,55.822,211.646,57.45,200.635z"/>
</svg>