<?xml version="1.0" encoding="utf-8"?>
<!-- Uploaded to: SVG Repo, www.svgrepo.com, Generator: SVG Repo Mixer Tools -->
<svg fill="#000000" height="800px" width="800px" version="1.2" baseProfile="tiny" id="Layer_1" xmlns="http://www.w3.org/2000/svg" xmlns:xlink="http://www.w3.org/1999/xlink"
	  viewBox="0 0 256 256" xml:space="preserve">
<path id="XMLID_3_" d="M198.5,127h56.8c-3.1,51.4-36.3,94.5-82.3,111.7V256H83v-17.3C37,221.5,3.8,178.4,0.7,127h155.1l87.5-68.1
	c3.5-2.7,8.5-2.1,11.2,1.4s2.1,8.5-1.4,11.2c-0.1,0.1-0.3,0.2-0.4,0.3l-81,55.1l73-36.2c4-2,8.8-0.3,10.7,3.6c2,4,0.3,8.8-3.6,10.7
	c-0.2,0.1-0.3,0.2-0.5,0.2L198.5,127z M163.6,79.4c0,7.8,3.2,12,5.7,15.3c0.7,1,1.4,1.9,2,2.8c0.9,1.4,2.3,2.1,3.8,2.1
	c0.8,0,1.6-0.2,2.4-0.7c2.1-1.3,2.8-4.1,1.5-6.2c-0.8-1.3-1.7-2.4-2.5-3.5c-2.2-3-3.9-5.1-3.9-9.9c0-4.8,1.6-6.9,3.9-9.9
	c2.5-3.3,5.7-7.5,5.7-15.3s-3.2-12-5.7-15.3l-0.5-0.6c-1.5-2-4.3-2.4-6.3-0.9c-2,1.5-2.4,4.3-0.9,6.3l0.5,0.6c2.2,3,3.9,5.1,3.9,9.9
	c0,4.8-1.6,6.9-3.9,9.9C166.7,67.4,163.6,71.6,163.6,79.4z M115.7,71c0,11.2,4.4,16.9,8.3,22c1.2,1.5,2.2,2.9,3.2,4.5
	c0.9,1.4,2.3,2.1,3.8,2.1c0.8,0,1.6-0.2,2.4-0.7c2.1-1.3,2.8-4.1,1.5-6.2c-1.2-1.9-2.5-3.6-3.7-5.2c-3.4-4.5-6.4-8.4-6.4-16.5
	s3-12,6.4-16.5c3.9-5.1,8.3-10.8,8.3-22c0-11.1-4.4-16.9-8.3-22l-0.7-0.9c-1.5-2-4.3-2.4-6.3-0.9c-2,1.5-2.4,4.3-0.9,6.3l0.7,1
	c3.4,4.5,6.4,8.4,6.4,16.5c0,8.1-3,12-6.4,16.5C120.1,54.1,115.7,59.9,115.7,71z M72.9,79.4c0,7.8,3.2,12,5.7,15.3
	c0.7,1,1.4,1.9,2,2.8c0.9,1.4,2.3,2.1,3.8,2.1c0.8,0,1.6-0.2,2.4-0.7c2.1-1.3,2.8-4.1,1.5-6.2c-0.8-1.3-1.7-2.4-2.5-3.5
	c-2.2-3-3.9-5.1-3.9-9.9c0-4.8,1.6-6.9,3.9-9.9c2.5-3.3,5.7-7.5,5.7-15.3c0-7.8-3.2-12-5.7-15.3l-0.5-0.6c-1.5-2-4.3-2.4-6.3-0.9
	c-2,1.5-2.4,4.3-0.9,6.3l0.5,0.6c2.2,3,3.9,5.1,3.9,9.9c0,4.8-1.6,6.9-3.9,9.9C76.1,67.4,72.9,71.6,72.9,79.4z"/>
</svg>