<?xml version="1.0" encoding="iso-8859-1"?>
<!-- Uploaded to: SVG Repo, www.svgrepo.com, Generator: SVG Repo Mixer Tools -->
<svg height="800px" width="800px" version="1.1" id="Layer_1" xmlns="http://www.w3.org/2000/svg" xmlns:xlink="http://www.w3.org/1999/xlink" 
	 viewBox="0 0 501.551 501.551" xml:space="preserve">
<path style="fill:#F2F2F2;" d="M454.531,145.241v335.412c0,11.494-9.404,20.898-20.898,20.898H67.918
	c-11.494,0-20.898-9.404-20.898-20.898V145.241H454.531z"/>
<polygon style="fill:#54C0EB;" points="454.531,145.241 47.02,145.241 100.31,76.278 100.31,74.188 100.31,74.188 108.669,60.604 
	392.882,60.604 401.241,74.188 401.241,76.278 "/>
<polygon style="fill:#84DBFF;" points="96.131,0 108.669,60.604 392.882,60.604 405.42,0 "/>
<path style="fill:#FF7058;" d="M454.531,238.237v179.722c-33.437,19.853-101.355,47.02-197.486,7.314
	c-98.22-40.751-173.453-27.167-208.98-16.718V228.833c35.527-11.494,110.759-24.033,208.98,16.718
	C352.131,285.257,421.094,258.09,454.531,238.237z"/>
<g>
	<path style="fill:#FFFFFF;" d="M138.971,365.714v-67.918h20.898l12.539,45.976l12.539-45.975h20.898v67.918h-12.539v-53.29
		l-13.584,53.29h-13.584l-14.629-53.29v53.29H138.971z"/>
	<path style="fill:#FFFFFF;" d="M217.339,365.714v-67.918h13.584v67.918H217.339z"/>
	<path style="fill:#FFFFFF;" d="M244.506,365.714v-67.918h13.584v55.38h34.482v11.494h-48.065V365.714z"/>
	<path style="fill:#FFFFFF;" d="M301.975,365.714v-67.918h13.584v30.302l27.167-30.302h18.808l-25.078,26.122l27.167,41.796h-17.763
		l-18.808-31.347l-11.494,11.494v20.898h-13.584V365.714z"/>
</g>
</svg>