<?xml version="1.0" encoding="iso-8859-1"?>
<!-- Uploaded to: SVG Repo, www.svgrepo.com, Generator: SVG Repo Mixer Tools -->
<svg version="1.1" id="Layer_1" xmlns="http://www.w3.org/2000/svg" xmlns:xlink="http://www.w3.org/1999/xlink" 
	 viewBox="0 0 512 512" xml:space="preserve">
<rect x="99.238" y="11.253" style="fill:#A8A8A8;" width="118.154" height="56.264"/>
<path style="fill:#2969B0;" d="M406.713,95.241l-16.717-16.717c-16.979-16.98-40.009-26.519-64.022-26.519l0,0
	c-24.013,0-47.042,9.539-64.023,26.519l-58.627,58.627V67.516h-90.022v9.61c0,27.942-5.883,55.572-17.266,81.091l0,0
	c-11.383,25.518-17.266,53.147-17.266,81.09v228.801c0,18.026,14.614,32.64,32.64,32.64H400.59c18.027,0,32.64-14.614,32.64-32.64
	V208.031v-11.108v-37.661C433.231,135.25,423.692,112.221,406.713,95.241z M382.593,165.796c0,15.73-17.85,24.813-30.566,15.554
	l-51.993-37.862c-9.554-6.956-10.635-20.802-2.279-29.158c7.694-7.695,17.976-11.859,28.885-11.683
	c10.576,0.172,20.608,4.742,28.087,12.22l16.179,16.179c7.483,7.483,11.687,17.632,11.687,28.215V165.796z"/>
<rect x="182.857" y="232.032" style="fill:#EBEBEB;" width="146.286" height="146.286"/>
<path style="fill:#FFAC3D;" d="M286.945,347.377c0,17.091-13.854,30.945-30.945,30.945c-17.091,0-30.945-13.854-30.945-30.945
	S256,277.047,256,277.047S286.945,330.287,286.945,347.377z"/>
<g>
	<path style="fill:#231F20;" d="M377.182,192.972c10.278-5.23,16.664-15.644,16.664-27.177v-6.533
		c0-13.664-5.321-26.51-14.983-36.173l-16.179-16.178c-9.789-9.79-22.526-15.299-35.863-15.515
		c-14.004-0.262-27.14,5.092-37.024,14.976c-6.313,6.313-9.534,15.038-8.838,23.938c0.697,8.9,5.234,17.019,12.45,22.274
		l51.994,37.862c5.338,3.887,11.611,5.865,17.928,5.865C368.047,196.312,372.789,195.208,377.182,192.972z M358.652,172.254
		l-51.993-37.862c-2.588-1.884-3.154-4.464-3.261-5.833c-0.107-1.371,0.051-4.007,2.316-6.271
		c5.422-5.423,12.601-8.392,20.263-8.392c0.161,0,0.321,0.001,0.482,0.003c7.356,0.119,14.759,3.374,20.312,8.927l16.179,16.179
		c5.411,5.411,8.392,12.606,8.392,20.258v6.533c0,4.42-3.052,6.45-4.365,7.118C365.665,173.583,362.226,174.856,358.652,172.254z"/>
	<path style="fill:#231F20;" d="M414.669,87.284l-16.718-16.718c-19.226-19.226-44.789-29.815-71.979-29.815
		c-27.191,0-52.753,10.589-71.979,29.814l-39.416,39.417V78.769h2.813c6.215,0,11.253-5.038,11.253-11.253V11.253
		C228.642,5.038,223.604,0,217.39,0H99.236c-6.215,0-11.253,5.038-11.253,11.253v56.264c0,6.215,5.038,11.253,11.253,11.253h2.792
		c-0.222,25.952-5.683,51.132-16.269,74.863c-12.105,27.136-18.242,55.96-18.242,85.674v228.801
		c0,24.202,19.69,43.892,43.892,43.892H400.59c24.204,0,43.894-19.69,43.894-43.892V159.262
		C444.484,132.074,433.895,106.511,414.669,87.284z M110.488,22.505h95.648v33.758h-95.648V22.505z M400.591,489.495H111.409
		c-11.793,0-21.387-9.594-21.387-21.387v-13.266h54.037c6.215,0,11.253-5.038,11.253-11.253s-5.038-11.253-11.253-11.253H90.022
		v-193.03c0-26.534,5.481-52.275,16.289-76.506c11.882-26.635,18.015-54.898,18.236-84.031h67.522v58.38
		c0,4.551,2.742,8.654,6.946,10.396s9.045,0.779,12.263-2.44l58.626-58.627c14.976-14.976,34.887-23.223,56.066-23.223
		c21.179,0,41.089,8.248,56.066,23.223l16.717,16.717c14.977,14.977,23.225,34.887,23.225,56.066v273.073h-54.037
		c-6.215,0-11.253,5.038-11.253,11.253s5.038,11.253,11.253,11.253h54.037v13.266C421.978,479.9,412.384,489.495,400.591,489.495z"
		/>
	<path style="fill:#231F20;" d="M329.143,220.785H182.857c-6.215,0-11.253,5.038-11.253,11.253v146.286
		c0,6.215,5.038,11.253,11.253,11.253h146.286c6.215,0,11.253-5.038,11.253-11.253V232.037
		C340.396,225.822,335.358,220.785,329.143,220.785z M236.308,347.378c0-6.681,9.062-26.995,19.692-47.107
		c10.63,20.112,19.692,40.427,19.692,47.107c0,10.858-8.835,19.692-19.692,19.692C245.142,367.07,236.308,358.236,236.308,347.378z
		 M317.89,367.07h-24.585c3.118-5.883,4.893-12.583,4.893-19.692c0-18.673-24.852-62.88-32.469-75.984
		c-2.014-3.466-5.72-5.598-9.729-5.598c-4.009,0-7.714,2.132-9.729,5.598c-7.617,13.104-32.469,57.311-32.469,75.984
		c0,7.109,1.775,13.809,4.893,19.692H194.11V243.29h123.78V367.07z"/>
	<path style="fill:#231F20;" d="M190.195,432.336h-1.125c-6.215,0-11.253,5.038-11.253,11.253s5.038,11.253,11.253,11.253h1.125
		c6.215,0,11.253-5.038,11.253-11.253S196.409,432.336,190.195,432.336z"/>
	<path style="fill:#231F20;" d="M322.93,432.336h-1.125c-6.215,0-11.253,5.038-11.253,11.253s5.038,11.253,11.253,11.253h1.125
		c6.215,0,11.253-5.038,11.253-11.253S329.145,432.336,322.93,432.336z"/>
</g>
</svg>