<?xml version="1.0" encoding="iso-8859-1"?>
<!-- Uploaded to: SVG Repo, www.svgrepo.com, Generator: SVG Repo Mixer Tools -->
<!DOCTYPE svg PUBLIC "-//W3C//DTD SVG 1.1//EN" "http://www.w3.org/Graphics/SVG/1.1/DTD/svg11.dtd">
<svg height="800px" width="800px" version="1.1" id="Capa_1" xmlns="http://www.w3.org/2000/svg" xmlns:xlink="http://www.w3.org/1999/xlink" 
	 viewBox="0 0 291.93 291.93" xml:space="preserve">
<g id="XMLID_39_">
	<g>
		<path style="fill:#F5B543;" d="M40.438,93.18l30.17,30.33l-2.17,6.51c-0.34,1.021-0.51,2.09-0.51,3.16v51.95L26.989,93.18H40.438z
			"/>
		<polygon style="fill:#734502;" points="232.928,134.8 232.928,271.68 87.928,271.68 87.928,134.8 101.628,93.68 219.218,93.68 		
			"/>
		<path style="fill:#F5B543;" d="M215.548,56.199V73.68h-110.25V56.199c0-3.25,2.75-6,6-6h98.25
			C212.798,50.199,215.548,52.949,215.548,56.199z"/>
		<path d="M290.338,102.68v94c0,15.99-11.88,29-26.5,29h-10.91v56c0,5.52-4.479,10-10,10h-165c-5.53,0-10-4.48-10-10V234.3
			L2.458,87.25c-1.38-3.101-1.101-6.681,0.75-9.521c1.84-2.84,5-4.55,8.38-4.55h33c2.66,0,5.21,1.06,7.09,2.95l26.01,26.13
			l7.61-22.67V56.199c0-14.329,11.67-26,26-26h18.3c0.48-16.59,14.12-29.949,30.83-29.949c16.7,0,30.34,13.359,30.82,29.949h18.3
			c14.33,0,26,11.671,26,26V73.68h25.79C277.329,73.68,290.338,86.689,290.338,102.68z M270.338,196.68v-94c0-4.96-4.03-9-9-9
			h-21.04l12.11,36.34c0.34,1.021,0.52,2.09,0.52,3.16v72.5h10.91C267.308,205.68,270.338,201.47,270.338,196.68z M232.928,271.68
			V134.8l-13.71-41.12h-117.59l-13.7,41.12v136.88H232.928z M215.548,73.68V56.199c0-3.25-2.75-6-6-6h-98.25c-3.25,0-6,2.75-6,6
			V73.68H215.548z M149.619,30.199h21.609c-0.46-5.559-5.13-9.949-10.8-9.949C154.748,20.25,150.079,24.64,149.619,30.199z
			 M70.608,123.51l-30.17-30.33H26.989l40.939,91.95v-51.95c0-1.07,0.17-2.14,0.51-3.16L70.608,123.51z"/>
	</g>
	<g>
	</g>
</g>
</svg>