<?xml version="1.0" encoding="utf-8"?>
<!-- Uploaded to: SVG Repo, www.svgrepo.com, Generator: SVG Repo Mixer Tools -->
<svg width="800px" height="800px" viewBox="0 -32.95 411.685 411.685" xmlns="http://www.w3.org/2000/svg"><defs><style>.a{fill:#ffffff;}.b{fill:#fcc56b;}.c{fill:#211715;}.d{fill:#7a7473;}.e{fill:#8ac46e;}</style></defs><path class="a" d="M299.976,279.182c-24.354-4.1-59.542-9.9-101.735-16.8l-92.205-15.028c-27.6-4.489-56.7-9.21-86.595-14.044.006-.866.062-9.325.089-14.133a4.81,4.81,0,0,1,2.918-4.4c11.725-5.029,53.888-22.872,76.708-32.6,4.045-27.461,11.243-71.622,13.653-86.317a4.989,4.989,0,0,1,5.742-4.119c11.472,1.895,39.582,6.541,47.8,7.862l121.6,19.7c46.9,7.6,91.6,14.859,116.727,19.034a5.988,5.988,0,0,1,4.94,6.833c-3.243,20.827-9.767,60.82-14.9,93.636-17.2,7.44-90.212,38.286-94.68,40.3"/><path class="a" d="M294.385,340.516a4.444,4.444,0,0,0,1.2,2.066c.71.687,2.233,1.106,4.2,1.106,2.27,0,3.627-.41,4.447-1.106,1.1-.939,1.34-3.069,1.34-4.324.007-12.922.225-48.717.225-60.32v-1.321c-4.248,1.813-6.524,2.8-5.875,2.556l-5.578-.936v.812c0,9.9-.185,48.326-.185,59.209A7.643,7.643,0,0,0,294.385,340.516Z"/><path class="a" d="M377.5,306.189a7.952,7.952,0,0,1-.167-2.042c0-10.883.185-47.753.185-57.653v-.34c4.345-1.85,8.24-3.511,11.453-4.886v1.337c0,11.6-.219,48.62-.226,61.542,0,1.255-.235,3.385-1.34,4.324-.819.7-2.177,1.106-4.446,1.106-1.967,0-3.49-.419-4.2-1.106A4.5,4.5,0,0,1,377.5,306.189Z"/><path class="a" d="M34.736,298.953a10.051,10.051,0,0,0,.23-2.161c.01-12.14.19-45.816.22-60.937q-5.7-.925-11.45-1.858c-.02,14.863-.18,52.676-.18,62.795a5.426,5.426,0,0,0,1.42,4.32c.71.69,2.24,1.11,4.2,1.11,2.27,0,3.63-.41,4.45-1.11A3.987,3.987,0,0,0,34.736,298.953Z"/><path class="b" d="M57.174,73.087a27.982,27.982,0,0,1-3.965,10.2c-1.039,1.809-4.282,7.244-4.786,8.2a5.315,5.315,0,0,0-.706,1.39c-.053.421.221.608.535.871a15.078,15.078,0,0,0,4.642,2.439,21.676,21.676,0,0,0,6.587,1.471,17.326,17.326,0,0,0,9.907-2.993,1.032,1.032,0,0,0,.465-1.177,30.843,30.843,0,0,0-.569-3.166L68.929,88.5a12.012,12.012,0,0,1-.346-1.834c.22.153.475.235.709.366l.779.439,1.611.906,1.558.877c.26.146.521.29.78.438a2.276,2.276,0,0,0,.754.342c.569.06,1.364-.737,1.794-1.079a12.606,12.606,0,0,0,3-3.634A18.785,18.785,0,0,0,81.889,78.6a19.14,19.14,0,0,0-.02-5.695,12.216,12.216,0,0,0-.747-2.722c-.359-.867-.531-1.6-1.629-1.272-6.6,1.942-13.98,4.028-20.9,3.263,0,0-1.04-.149-1.259-.209C57.307,72.186,57.174,73.087,57.174,73.087Z"/><path class="c" d="M394.342,145.295c-3.424,20.527-6.621,41.094-9.837,61.654q-1.651,10.558-3.28,21.119a2.063,2.063,0,0,0,1.4,2.46,2.015,2.015,0,0,0,2.46-1.4q5.466-35.481,11.182-70.925.957-5.925,1.936-11.847a2.061,2.061,0,0,0-1.4-2.46,2.016,2.016,0,0,0-2.461,1.4Z"/><path class="c" d="M396.673,239.12q3.636-23.231,7.38-46.442,3.252-20.3,6.485-40.592.306-1.934.608-3.868a24.338,24.338,0,0,0,.538-4.09,8.1,8.1,0,0,0-5.638-7.522,57.027,57.027,0,0,0-7.869-1.369q-4.341-.717-8.682-1.43-21.442-3.525-42.891-7.007-25.749-4.189-51.5-8.359l-6.625-1.073a2.061,2.061,0,0,0-2.46,1.4,2.016,2.016,0,0,0,1.4,2.46q25.517,4.133,51.03,8.278,21.816,3.548,43.629,7.118,8.692,1.425,17.383,2.861l3.619.6a5.636,5.636,0,0,1,3.536,1.437c1.788,1.935.821,4.729.459,7.032q-3.026,19.258-6.143,38.5-3.645,22.737-7.245,45.48l-.867,5.524a2.064,2.064,0,0,0,1.4,2.46,2.016,2.016,0,0,0,2.461-1.4Z"/><path class="c" d="M206.538,251.2q38.148,6.243,76.284,12.561,7.914,1.318,15.826,2.648a2.059,2.059,0,0,0,2.46-1.4,2.015,2.015,0,0,0-1.4-2.46q-33.961-5.717-67.955-11.251-12.078-1.981-24.155-3.958a2.06,2.06,0,0,0-2.46,1.4,2.015,2.015,0,0,0,1.4,2.46Z"/><path class="c" d="M105.64,233.093q-28.565-4.643-57.13-9.277l-16.582-2.69a2.062,2.062,0,0,0-2.46,1.4,2.015,2.015,0,0,0,1.4,2.46q29,4.7,58,9.414l15.708,2.553a2.06,2.06,0,0,0,2.46-1.4,2.015,2.015,0,0,0-1.4-2.46Z"/><path class="c" d="M197.71,264.311q22.923,3.752,45.845,7.522,19.151,3.153,38.3,6.335,8.8,1.464,17.593,2.942a2.059,2.059,0,0,0,2.46-1.4,2.016,2.016,0,0,0-1.4-2.46q-16.557-2.784-33.124-5.52-20.918-3.462-41.84-6.893-13.385-2.2-26.771-4.386a2.06,2.06,0,0,0-2.46,1.4,2.015,2.015,0,0,0,1.4,2.46Z"/><path class="c" d="M106.568,245.426q-33.5-5.448-67-10.878l-19.586-3.175a2.061,2.061,0,0,0-2.46,1.4,2.015,2.015,0,0,0,1.4,2.46q34.092,5.526,68.183,11.061l18.407,2.992a2.06,2.06,0,0,0,2.46-1.4,2.017,2.017,0,0,0-1.4-2.461Z"/><path class="c" d="M98.2,180.425q-21.093,9-42.209,17.936c-11.431,4.851-22.922,9.585-34.291,14.578a6.832,6.832,0,0,0-4.041,5,39.169,39.169,0,0,0-.158,6.374q-.028,4.536-.059,9.072c-.017,2.574,3.983,2.577,4,0q.024-3.593.047-7.184.018-2.774.034-5.547c.011-1.84.08-3.283,1.936-4.147,4.335-2.018,8.82-3.764,13.221-5.634q20.739-8.814,41.485-17.611,11.029-4.684,22.054-9.381a2.011,2.011,0,0,0,.717-2.736,2.053,2.053,0,0,0-2.736-.718Z"/><path class="c" d="M301.039,280.831c9.445-4.259,19.071-8.149,28.607-12.2q23.376-9.919,46.748-19.846,9.3-3.957,18.585-7.941a2.013,2.013,0,0,0,.718-2.736,2.054,2.054,0,0,0-2.737-.718c-12.856,5.547-25.756,10.993-38.645,16.463q-21.977,9.328-43.951,18.658c-3.783,1.611-7.594,3.172-11.343,4.863a2.015,2.015,0,0,0-.718,2.736,2.049,2.049,0,0,0,2.736.718Z"/><path class="c" d="M300.5,266.292c8.374-3.775,16.908-7.225,25.364-10.814q20.871-8.858,41.74-17.721,8.283-3.524,16.555-7.073a2.011,2.011,0,0,0,.717-2.736,2.052,2.052,0,0,0-2.736-.718c-11.409,4.922-22.857,9.756-34.3,14.61q-19.629,8.333-39.259,16.667c-3.371,1.434-6.766,2.826-10.1,4.331a2.016,2.016,0,0,0-.718,2.737,2.049,2.049,0,0,0,2.737.717Z"/><path class="c" d="M166.879,97.672c-8.286-1.334-16.565-2.709-24.845-4.074q-7.21-1.188-14.422-2.38l-6.118-1.011c-2.357-.389-4.582-.882-6.849.19-3.979,1.881-4.033,6.562-4.648,10.33q-1,6.109-1.989,12.221-2.58,15.92-5.106,31.848c-1.924,12.158-3.825,24.321-5.622,36.5a2.066,2.066,0,0,0,1.4,2.461,2.015,2.015,0,0,0,2.46-1.4c3.117-21.124,6.5-42.208,9.909-63.287,1.22-7.55,2.237-15.174,3.692-22.683.416-2.15,2.076-2.922,4.113-2.585l5.565.919L138.3,97.015c9.171,1.512,18.34,3.037,27.517,4.514a2.062,2.062,0,0,0,2.46-1.4,2.016,2.016,0,0,0-1.4-2.46Z"/><path class="c" d="M267.462,206.867q40.446,6.578,80.889,13.174l21.3,3.478a2.06,2.06,0,0,0,2.46-1.4,2.015,2.015,0,0,0-1.4-2.46q-39.377-6.434-78.759-12.841l-23.427-3.811a2.061,2.061,0,0,0-2.46,1.4,2.017,2.017,0,0,0,1.4,2.46Z"/><path class="c" d="M106.523,185.311l31.182,5.056a2.061,2.061,0,0,0,2.46-1.4,2.016,2.016,0,0,0-1.4-2.46l-31.182-5.056a2.062,2.062,0,0,0-2.46,1.4,2.016,2.016,0,0,0,1.4,2.46Z"/><path class="c" d="M21.736,233.992c-.026,18.928-.126,37.857-.17,56.785q-.006,2.342-.009,4.683c0,2.605.028,5.368,2.183,7.22,2.219,1.906,6.219,1.915,8.88,1.138,2.94-.857,4.082-3.3,4.313-6.187.315-3.935.049-8,.063-11.944q.027-7.817.062-15.634.072-17.1.128-34.2c.006-2.574-3.994-2.578-4,0-.038,19.077-.167,38.153-.213,57.23a32.285,32.285,0,0,1-.09,4.968c-.14.869-.347,1.569-1.055,1.826a8.548,8.548,0,0,1-4.168.239c-2.317-.41-2.105-2.525-2.1-4.494q0-2.2.008-4.4.03-13.613.085-27.223.05-15,.086-30.01c0-2.574-4-2.578-4,0Z"/><path class="c" d="M303.8,277.938c0,18.442-.165,36.883-.216,55.324,0,1.665.013,3.332-.009,5-.012.9-.008,2.271-.755,2.91-.543.465-2.174.524-3.032.52-1.105,0-2.564-.016-3.176-1a5.527,5.527,0,0,1-.45-3.023q0-2.241.007-4.482.033-13.718.1-27.434c.034-8.9.083-17.8.083-26.7,0-2.573-4-2.578-4,0,0,8.168-.043,16.336-.074,24.5q-.055,14.543-.1,29.084c-.01,3.863-1.006,9.753,2.908,12.037a11.059,11.059,0,0,0,9.388.13c2.585-1.279,3.1-4.3,3.108-6.911q.045-14.221.106-28.444c.045-9.75.1-19.5.117-29.25q0-1.13,0-2.26c0-2.574-4-2.578-4,0Z"/><path class="c" d="M386.969,242.605c0,18.212-.154,36.425-.211,54.637q-.007,2.712-.013,5.424c0,1.419.283,4.055-1.139,4.567a8.637,8.637,0,0,1-3.935.279c-1.347-.192-2.084-.695-2.3-2.114a31.281,31.281,0,0,1-.038-4.583q.027-13.571.094-27.14c.036-9.06.087-18.121.088-27.181,0-2.574-4-2.578-4,0,0,8.318-.046,16.637-.079,24.955q-.056,14.374-.1,28.749c0,1.66-.114,3.37.016,5.026a7.14,7.14,0,0,0,1.857,4.52,6.611,6.611,0,0,0,4.069,1.718c2.813.35,6.647.128,8.333-2.544,1.261-2,1.131-4.482,1.135-6.751q.024-14.478.111-28.954.064-14.213.11-28.426,0-1.09,0-2.182c0-2.574-4-2.578-4,0Z"/><path class="c" d="M.085,21.47C2.093,28.6,4.226,35.839,8.363,42.064c3.886,5.848,11.127,12.3,18.669,8.776a5.46,5.46,0,0,0,3.058-4.154c.33-2.044-.575-4.011-1.563-5.756a15.4,15.4,0,0,0-8.248-7.176c-4.107-1.308-8.056,1.018-8.566,5.353-.48,4.088,1.618,8.469,3.613,11.912A55.318,55.318,0,0,0,31.785,68.354C33.9,69.83,35.9,66.364,33.8,64.9A52.578,52.578,0,0,1,22.239,54.131a39.639,39.639,0,0,1-5.23-8.614c-.774-1.837-2.782-6.766-.109-8.011,2.453-1.142,5.779,2.081,7.1,3.788,1.206,1.564,3.7,5.244.686,6.181-5.739,1.784-10.673-3.945-13.363-8.2-3.646-5.767-5.54-12.354-7.376-18.87-.7-2.474-4.558-1.423-3.857,1.063Z"/><path class="c" d="M57.274,71.766a60.92,60.92,0,0,0-5.224-7.593,48.094,48.094,0,0,0-3.54-3.5.019.019,0,0,0-.024,0,1.646,1.646,0,0,0-.563.752.021.021,0,0,0,.008.024,21.81,21.81,0,0,1,3.1,2.684c1.1,1.129,5.278,5.846,6.242,7.634"/><path class="c" d="M59,70.757a51.326,51.326,0,0,0-3.773-5.725,35.559,35.559,0,0,0-3.953-4.524,6.446,6.446,0,0,0-2.233-1.763,2.575,2.575,0,0,0-2.846,1.67,2.13,2.13,0,0,0,.008,2.042,3.238,3.238,0,0,0,1.083.965c.095.066.348.281,0,0,.123.1.248.2.37.3q.386.324.757.664a43.989,43.989,0,0,1,3.561,3.777c.756.874,1.5,1.76,2.219,2.667.048.06.234.234.243.309-.183-.237-.209-.272-.081-.1q.074.1.147.195c.138.183.274.367.406.554a10.278,10.278,0,0,1,.636.99,2.019,2.019,0,0,0,2.737.717A2.041,2.041,0,0,0,59,70.757,21,21,0,0,0,56.942,67.9c-.817-1.027-1.667-2.028-2.532-3.016a26.771,26.771,0,0,0-5.47-5.162l.919,1.2-.007-.024-.2,1.542a3.009,3.009,0,0,1,.148-.295.687.687,0,0,1-.3.26l-1.01.273.024,0L47.1,62.088c1.137,1.005,2.218,2.075,3.251,3.186.215.231.423.464.62.711l.156.2c.221.276-.287-.377-.073-.1.151.2.3.4.453.6a52.325,52.325,0,0,1,4.044,6.09,2.02,2.02,0,0,0,2.737.717A2.041,2.041,0,0,0,59,70.757Z"/><path class="c" d="M55.245,72.555c-.6,4.095-2.533,7.631-4.6,11.152-1.37,2.335-2.726,4.68-4.1,7.015a4.293,4.293,0,0,0-.816,2.426c.065,1.266,1.047,2.013,1.988,2.7a20.905,20.905,0,0,0,5.924,2.708,19.012,19.012,0,0,0,13.464-.414c1.906-.8,4.745-1.925,4.762-4.36.016-2.412-1.082-4.736-1.289-7.113l-3.01,1.727c1.82.994,3.62,2.025,5.437,3.026,1.878,1.034,3.223.4,4.767-.879a18.174,18.174,0,0,0,5.849-10.306,21.186,21.186,0,0,0,.34-6.621c-.209-1.834-.569-4.131-1.739-5.633-1.435-1.843-3.593-.892-5.445-.361-2.09.6-4.19,1.168-6.313,1.635-4,.88-8.611,1.66-12.607.784a2.04,2.04,0,0,0-2.531,1.929c.043-.351-.065.451-.086.59a2.067,2.067,0,0,0,1.4,2.46,2.013,2.013,0,0,0,2.46-1.4c.081-.551.16-1.1.229-1.654L56.8,73.893c3.9.855,8.077.426,11.97-.24,2.31-.4,4.591-.946,6.852-1.557,1.037-.281,2.07-.576,3.1-.875l.87-.255q1.146-.183-.536-.561c-.057.1.329.816.382.973a16.328,16.328,0,0,1-1.6,12.932,11.978,11.978,0,0,1-1.531,2.153,13.037,13.037,0,0,1-1.153,1.076c-.149.123-.3.248-.444.374q-.5.3.552.185c.06-.149-5.2-2.906-5.67-3.161-1.229-.672-3.147.145-3.009,1.727a33.661,33.661,0,0,0,.639,3.5,20.1,20.1,0,0,0,.631,3.316l.019.3q.516-.91.049-.541a2.863,2.863,0,0,0-.643.39c-.453.259-.918.5-1.394.714a16.565,16.565,0,0,1-3.439,1.072,14.529,14.529,0,0,1-7.087-.517,26.6,26.6,0,0,1-3.336-1.2c-.708-.32-2.212-.888-2.561-1.56l.273,1.009c.015.244-.063.12.095-.126.112-.174.218-.352.321-.532s.19-.344.287-.515c.325-.575.661-1.143.994-1.712q1.3-2.214,2.6-4.422c2.246-3.826,4.415-7.773,5.069-12.222a2.066,2.066,0,0,0-1.4-2.461A2.017,2.017,0,0,0,55.245,72.555Z"/><path class="a" d="M163.435,306.265a13.687,13.687,0,0,0,3.308,2.258,6.461,6.461,0,0,0,6.063.144c2.118-1.032,3.168-1.633,4.922-2.678,1.161-.692,2.677-1.56,3.687-.661v-2.81a80.623,80.623,0,0,1-17.461-.356c-.755-.08-1.463-.161-2.131-.255v3.157c.32,0,.979.592,1.207.816Q163.236,306.083,163.435,306.265Z"/><path class="a" d="M128.357,297.492V294.61a26.827,26.827,0,0,0,5.828,1.078,96.706,96.706,0,0,0,13.259.65V297.9c-.984-.877-2.461-.031-3.593.643-1.707,1.018-2.731,1.6-4.794,2.609a6.293,6.293,0,0,1-5.907-.14,13.417,13.417,0,0,1-3.617-2.574c-.223-.219-.864-.8-1.176-.8Z"/><path class="a" d="M162.515,338.613q.507-.33,1-.7c3.629-2.712,7.193-6.234,11.463-8.67,1.858-1.06,4.66-1.893,6.51-2.966,3.262-1.891,3.335-5.037,3.317-8.806s-1.351-7.394-2.683-10.921a2.974,2.974,0,0,0-.7-1.226c-1.01-.9-2.526-.031-3.687.661-1.754,1.045-2.8,1.646-4.922,2.678a6.461,6.461,0,0,1-6.063-.144,13.772,13.772,0,0,1-3.713-2.643c-.228-.224-.887-.815-1.207-.816a4.107,4.107,0,0,0-3.1,1.549A110.487,110.487,0,0,1,146,319.641c-4.137,3.351-9.16,7.308-11.149,12.009-.883,2.084-.23,4.528.977,6.442,1.233,1.956,4.371,3.686,6.638,4.136C149.881,343.7,156.238,342.71,162.515,338.613Z"/><path class="a" d="M129.031,330.326q.495-.323.971-.678c3.536-2.643,7.008-6.074,11.168-8.447,1.81-1.033,4.54-1.845,6.342-2.89,3.178-1.842,3.249-4.906,3.231-8.579s-1.315-7.2-2.613-10.639a2.907,2.907,0,0,0-.686-1.194c-.984-.877-2.461-.031-3.593.643-1.707,1.018-2.731,1.6-4.794,2.609a6.293,6.293,0,0,1-5.907-.14,13.417,13.417,0,0,1-3.617-2.574c-.223-.219-.864-.8-1.176-.8a4,4,0,0,0-3.022,1.509,107.684,107.684,0,0,1-12.4,12.692c-4.03,3.265-8.924,7.119-10.862,11.7-.86,2.031-.224,4.411.952,6.276,1.2,1.905,4.258,3.591,6.467,4.03C116.723,335.282,122.915,334.317,129.031,330.326Z"/><path class="a" d="M255.482,187.275c.169,1.814.254,3.506.244,5.179-.009,3.449-1.269,11.279-6.861,15.969a115.065,115.065,0,0,1-18.621,12.8c-9.77,5.332-30.359,16.112-39.695,20.73-.208,5.141-.413,10.245-.6,15.339-.611,15.932-1.137,20.416-1.485,36.517-.02.547-.169,2.755-.4,4.205a5.467,5.467,0,0,1-4.726,4.256c-5.655.842-11.53.72-19.383-.11-3.907-.413-6.551-.873-9.39-2.919a5.13,5.13,0,0,1-1.782-3.334c-5.419.719-11.106.568-18.6-.221-3.9-.414-6.551-.874-9.39-2.924-2.237-1.616-2.256-5.9-2.218-13.055.084-15.35.056-20.726.489-35.258.018-.658.037-1.3.056-1.936.141-4.483.329-9.258.714-13.46.207-2.267.461-4.364.8-6.15,1.47-9.616,5.815-14.9,11.1-19.432s20.235-13.264,27.128-17.023l19.257-9.117Z"/><path class="d" d="M205.052,89.314l-6.376-.674c-3.085-1.318-3.225-3.807-3.085-5.933.108-1.645,1.627-6.281,1.714-9.625l-5.245-25.5a54.97,54.97,0,0,1,.067-18.871,34.549,34.549,0,0,1,7.337-15.261c6.223-6.984,15.358-11.107,26.6-11.4A38.843,38.843,0,0,1,247.276,7.4c11.384,8.912,14.27,15.664,15.373,25.235.955,8.642-.195,16.467,1.045,27.177.492,4.253,3.671,11.014,4.566,18,.607,4.731.359,8.059-3.671,11.82L256.9,96.277S219.625,90.854,205.052,89.314Z"/><path class="b" d="M275,143.491c-.03,8.1-1.041,18.381-1.73,26.454a21.8,21.8,0,0,1-2.162,7.832,10.539,10.539,0,0,1-5.554,5c-4.635,2.116-10.545,3.565-18.123,4.1-2.743.193-8.776.347-12.86-2.1l-64.223-42.444L175.9,129.9c3.556-8.334,5-16.872,8.917-26.181A35.74,35.74,0,0,1,188.86,96.8a16.587,16.587,0,0,1,5.486-4.458c5.237-2.571,9.411-4.356,14.727-6.651.571,4.484,4.416,8.051,8.733,9.3,4.27,1.23,8.89.51,13.07-.99,6.331-2.28,11.351-4.95,15.442-10.141,5.534,3.847,12.664,8.777,17.6,12.777a31.711,31.711,0,0,1,5.263,4.957c2.991,3.752,4.274,8.766,4.788,13.536A217.04,217.04,0,0,1,275,143.491"/><path class="e" d="M155.532,170.712c-3.909-12.153-9.492-29.157-13.376-41.8,10.572-.08,22.816,6.649,26.449,11.789,10.205-5.251,14.012-6.966,24.647-8.662a62.95,62.95,0,0,1,18.641.154c.335,6.668,1.4,20.355,2.13,30.218l1.3,17.975a80.576,80.576,0,0,0-8.4.486c-12.127,1.565-20.292,4.185-26.685,9.43-1.132-3.332-5.547-7.042-8.585-9.4-4.673-3.621-7.67-4.585-14.758-5.957C156.466,173.623,156.011,172.2,155.532,170.712Z"/><path class="a" d="M205.055,34.308c-.5,2.676-.859,5.264.451,4.874A39.024,39.024,0,0,0,226.048,24.9c1.047,4.024,2.525,9.034,3.824,11.47,1.861,3.489,7.68,11.2,12.5,12.676l7.668-.631a4.545,4.545,0,0,1,3.176-1.1,4.106,4.106,0,0,1,3.662,1.934c1.241,2.056,1.189,5.839.352,8.183a11.9,11.9,0,0,1-3.846,5.787,8.778,8.778,0,0,1-3.917,1.469l-.252.59c-.619,1.18-2.058,3.234-2.058,3.234a45.182,45.182,0,0,1-3.6,4.39,20.452,20.452,0,0,0-.078,4.678c.255,2.127,1.178,5.155,2.925,6.173-4.1,5.26-9.15,7.952-15.527,10.249-4.18,1.5-8.8,2.22-13.07.99s-8.06-4.72-8.71-9.12V82.7a26.069,26.069,0,0,1-7.693-4.487c-5.222-4.288-7.42-11-8.136-18.4-.493-5.094-.888-10.715-1.658-16.232,4.694-4.018,9.6-8.69,14.137-13.151C205.624,31.464,205.319,32.9,205.055,34.308Z"/><path class="c" d="M273,143.491c-.03,5.235-.389,10.463-.807,15.679-.213,2.655-.447,5.309-.679,7.963a36.009,36.009,0,0,1-.993,6.695,11.6,11.6,0,0,1-2.818,5.236,13.9,13.9,0,0,1-4.949,2.727,52.459,52.459,0,0,1-13.922,2.974c-4.376.384-9.321.55-13.252-1.715-2.234-1.287-4.251,2.168-2.019,3.454,4,2.307,8.908,2.666,13.434,2.4a59.877,59.877,0,0,0,15.369-2.74c4.49-1.5,8.624-3.518,10.781-7.972,2.287-4.722,2.3-10.171,2.737-15.3.553-6.453,1.081-12.925,1.118-19.406.015-2.574-3.985-2.577-4,0Z"/><path class="c" d="M251.68,125.166c-1.07,9.725-1.121,19.515-2,29.25a2.014,2.014,0,0,0,2,2,2.042,2.042,0,0,0,2-2c.879-9.735.93-19.525,2-29.25a2.013,2.013,0,0,0-2-2,2.046,2.046,0,0,0-2,2Z"/><path class="c" d="M241.518,73.24a19.7,19.7,0,0,0,.284,6.312,10.626,10.626,0,0,0,2.519,5.1,2,2,0,0,0,2.829-2.828c-.1-.1-.308-.261-.353-.394q.26.339.069.073c-.053-.077-.1-.156-.154-.235a4.659,4.659,0,0,1-.538-1.036c.154.516-.04-.123-.076-.224-.068-.19-.132-.382-.19-.576q-.163-.535-.281-1.082a6.266,6.266,0,0,0-.186-1.036c.044.334.049.361.015.083-.013-.125-.025-.25-.035-.376-.021-.251-.033-.5-.04-.754a24.62,24.62,0,0,1,.137-3.023,2.007,2.007,0,0,0-2-2,2.054,2.054,0,0,0-2,2Z"/><path class="c" d="M243.611,163.266c1.27.023,2.539-.028,3.809-.032a5.377,5.377,0,0,1,2.846.448c.112.075.115.077.01.005.107.093.21.189.31.288.213.208.414.429.618.646q.708.756,1.417,1.513l2.836,3.025a2,2,0,0,0,2.828-2.828l-3.012-3.215a15.109,15.109,0,0,0-3.164-3c-2.475-1.42-5.775-.8-8.5-.852a2,2,0,0,0,0,4Z"/><path class="c" d="M207.407,51.737c.541,1.49.481,5-2.22,5.463-3.6.2-4.066-4.008-2.985-6.066C203.087,49.448,205.958,48.592,207.407,51.737Z"/><path class="c" d="M251.458,49.833a2.785,2.785,0,0,1,2.537-.4,4.483,4.483,0,0,1,.429.141c-.156-.059-.131-.04.076.06.112.066.449.331.18.1.155.135.285.289.43.434-.345-.345-.082-.13-.013,0a8.888,8.888,0,0,1,.491,5.765,10.125,10.125,0,0,1-2.831,5.2,5.358,5.358,0,0,1-2.034,1.227,4.448,4.448,0,0,1-2.954.2,2,2,0,1,0-1.064,3.857,9.223,9.223,0,0,0,7.19-1.129,12.043,12.043,0,0,0,4.666-5.777,14.757,14.757,0,0,0,1.253-6.779c-.143-2.146-.706-4.495-2.437-5.928A6.888,6.888,0,0,0,248.63,47a2.016,2.016,0,0,0,0,2.829,2.043,2.043,0,0,0,2.828,0Z"/><path class="c" d="M210.327,73.693a8.532,8.532,0,0,0,4.89,1.21,10.2,10.2,0,0,0,6.488-2.092,2,2,0,0,0,.586-1.414,2.036,2.036,0,0,0-.586-1.414,2.06,2.06,0,0,0-2.828,0c.648-.506.246-.189.08-.079-.128.085-.26.165-.394.241s-.3.161-.453.234c-.068.033-.427.193-.1.048s0-.005-.071.022a9.322,9.322,0,0,1-1.487.4c-.409.079.419-.026-.046.008-.127.01-.254.024-.381.032-.325.019-.65.019-.976.012-.271-.006-.542-.017-.813-.038-.129-.01-.258-.024-.387-.036-.441-.041.478.085.073.011a7.018,7.018,0,0,1-1-.238c-.055-.019-.109-.042-.164-.06-.29-.094.49.24.248.105-.092-.051-.188-.093-.278-.147-.134-.078-.259-.169-.385-.258a2.009,2.009,0,0,0-2.737.717,2.055,2.055,0,0,0,.718,2.737Z"/><path class="c" d="M228.38,52.588c.554,1.483.456,4.974-2.387,5.439-3.783.2-4.232-3.988-3.076-6.038C223.864,50.311,226.889,49.458,228.38,52.588Z"/><path class="c" d="M211.381,59.286a32.508,32.508,0,0,0-1.408,2.979l.2-.478a3.969,3.969,0,0,0-.458,1.666,2.472,2.472,0,0,0,.9,1.93,3.393,3.393,0,0,0,1.479.778c.353.066.7.076,1.051.11a2.006,2.006,0,0,0,1.414-.586,2,2,0,0,0,0-2.828l-.405-.313a1.987,1.987,0,0,0-1.009-.273c-.158-.015-.317-.012-.475-.032l.532.072a1.545,1.545,0,0,1-.328-.089l.478.2a1.82,1.82,0,0,1-.314-.182l.405.313a1.866,1.866,0,0,1-.206-.181l.313.405a.624.624,0,0,1-.077-.132l.2.477a.47.47,0,0,1-.025-.1l.071.531a.957.957,0,0,1,0-.214l-.072.532a2.016,2.016,0,0,1,.132-.443l-.2.477q.15-.348.295-.7l-.2.478c.344-.812.745-1.6,1.158-2.384a2.105,2.105,0,0,0,.2-1.541,2,2,0,0,0-3.655-.478Z"/><path class="c" d="M240.706,78.207a39.653,39.653,0,0,0,6.463-6.434,36.559,36.559,0,0,0,3.777-5.485,2,2,0,0,0-3.454-2.019,29.877,29.877,0,0,1-1.725,2.75c-.145.214-.291.426-.443.635-.219.3-.442.6-.667.891.17-.224-.007.008-.086.109q-.171.219-.347.436a39.576,39.576,0,0,1-6.347,6.289,2,2,0,0,0,0,2.828,2.062,2.062,0,0,0,2.829,0Z"/><path class="c" d="M231.247,78.927c-7.3,3.19-15.926,4.723-23.373,1.109a20.907,20.907,0,0,1-8.668-7.3,27.625,27.625,0,0,1-3.662-10.669c-.813-5.222-.97-10.56-1.588-15.81a2.062,2.062,0,0,0-2-2,2.012,2.012,0,0,0-2,2c.609,5.173.86,10.39,1.544,15.552A32.409,32.409,0,0,0,195.467,74.3c4.514,7.545,13.466,11.863,22.109,11.828a39.508,39.508,0,0,0,15.69-3.746,2.012,2.012,0,0,0,.717-2.736,2.05,2.05,0,0,0-2.736-.717Z"/><path class="c" d="M199.685,86.913a7.576,7.576,0,0,1-1.047-.561,4.324,4.324,0,0,1-.476-.43c.141.167-.138-.2-.163-.245-.077-.126-.144-.258-.21-.39-.1-.2.06.267-.022-.087-.039-.168-.1-.329-.133-.5-.024-.112-.044-.224-.062-.337.078.475,0-.077,0-.147-.017-.282-.019-.565-.012-.847.006-.257.036-.514.039-.771.006-.4-.1.485,0,.032.026-.121.043-.246.067-.368.587-3.058,1.533-6.046,1.642-9.182a2,2,0,0,0-4,0c-.105,3.021-1.348,6.151-1.686,9.343-.353,3.333.841,6.506,4.047,7.942a2.063,2.063,0,0,0,2.737-.717,2.016,2.016,0,0,0-.718-2.737Z"/><path class="c" d="M250.656,7.276C240.607-.109,226.746-1.679,214.9,1.691A36.119,36.119,0,0,0,200,10.029a34.5,34.5,0,0,0-9.35,16.235,51.528,51.528,0,0,0-.522,21.852,2.016,2.016,0,0,0,2.46,1.4,2.045,2.045,0,0,0,1.4-2.46c-1.964-11.188-.55-24.393,7.6-32.96,7.434-7.813,18.465-10.753,29-9.922a35.015,35.015,0,0,1,18.045,6.559,2.015,2.015,0,0,0,2.737-.718,2.047,2.047,0,0,0-.718-2.736Z"/><path class="c" d="M266,91.039a13.866,13.866,0,0,0,4.089-6.429,17.967,17.967,0,0,0,.168-6.8c-.729-5.7-2.936-10.925-4.255-16.47a43.872,43.872,0,0,1-.834-8.306c-.119-2.862-.113-5.727-.1-8.592a83.1,83.1,0,0,0-1.061-16.124,32.385,32.385,0,0,0-8.03-15.716c-1.728-1.916-4.549.92-2.828,2.828a28.118,28.118,0,0,1,6.775,12.866,66.145,66.145,0,0,1,1.148,14.554,138.578,138.578,0,0,0,.622,16.962c.59,4.84,2.663,9.4,3.8,14.124a25.93,25.93,0,0,1,.968,8.31,9.441,9.441,0,0,1-3.291,5.969c-1.866,1.781.965,4.606,2.828,2.829Z"/><path class="c" d="M181.9,191.5c5.6-4.441,12.615-6.5,19.54-7.767a74.115,74.115,0,0,1,22.712-.9,2.01,2.01,0,0,0,2-2,2.051,2.051,0,0,0-2-2,69.695,69.695,0,0,0-17.912.131c-6.531.868-13.038,2.129-19.1,4.794a36.8,36.8,0,0,0-8.071,4.91,2.011,2.011,0,0,0,0,2.828,2.05,2.05,0,0,0,2.829,0Z"/><path class="c" d="M156.62,176.928c4.233.832,8.316,1.778,11.945,4.205a45.846,45.846,0,0,1,5.233,4.149c1.641,1.485,3.573,3.227,4.425,5.332a2.065,2.065,0,0,0,2.461,1.4,2.014,2.014,0,0,0,1.4-2.46c-1.979-4.885-6.787-8.589-10.994-11.527-4.039-2.82-8.632-4.014-13.4-4.952-2.515-.494-3.591,3.36-1.064,3.857Z"/><path class="c" d="M140.317,129.736c4.713,15.306,9.786,30.5,14.647,45.757.778,2.444,4.641,1.4,3.857-1.063-4.861-15.259-9.934-30.451-14.647-45.757-.756-2.453-4.618-1.407-3.857,1.063Z"/><path class="c" d="M167.033,141.825c3.6,15.605,7.572,31.122,11.326,46.69.6,2.5,4.461,1.443,3.857-1.063-3.753-15.569-7.723-31.086-11.326-46.69-.579-2.508-4.437-1.446-3.857,1.063Z"/><path class="c" d="M170.712,140.284c-2.462-4.048-7.054-6.853-11.193-8.9a39.522,39.522,0,0,0-17.423-4.467c-2.573.007-2.578,4.007,0,4a35,35,0,0,1,15.4,3.92c3.5,1.735,7.751,4.166,9.758,7.467,1.336,2.2,4.8.188,3.454-2.019Z"/><path class="c" d="M212.186,130.228a67.635,67.635,0,0,0-24.306.758c-6.854,1.418-13.04,4.281-19.237,7.453-2.293,1.174-.271,4.626,2.018,3.454,5.792-2.964,11.523-5.618,17.919-6.974a62.27,62.27,0,0,1,22.543-.834,2.062,2.062,0,0,0,2.46-1.4,2.015,2.015,0,0,0-1.4-2.46Z"/><path class="a" d="M141.033,151c-3.767,6.142-2.436,15.708,3.409,20.026,1.383.963,3.759,1.552,7.025,1.265a10.511,10.511,0,0,0,3.111-.915c2.61-1.1,4.824-3.533,3.057-6.132a1.308,1.308,0,0,0-.214-.241l.87-1.588c1.528-2.395.8-3.783-.86-4.528,3.026-1.06,2.442-3.914,1.1-5.325a4.582,4.582,0,0,0-2.114-1.29c1.162-1.4,1.342-2.658.839-3.464-1.452-3.864-7.607-3.976-11.088-2.34A11.336,11.336,0,0,0,141.033,151Z"/><path class="c" d="M158.316,153.066a4.97,4.97,0,0,0,.778-5.038,6.978,6.978,0,0,0-2.683-3.174c-2.391-1.517-5.515-1.608-8.219-1.11-5.328.983-9.288,5.31-10.657,10.423a18.476,18.476,0,0,0,2.443,15.043,11.079,11.079,0,0,0,6.25,4.736,14.164,14.164,0,0,0,9.529-.919c3.306-1.588,6.391-5.9,3.238-9.267a6.161,6.161,0,0,0-4.133-1.516,47.267,47.267,0,0,0-6.463.089c-2.562.127-2.577,4.127,0,4,1.482-.073,2.965-.155,4.448-.159.915,0,2.466-.183,3.291.339-.168-.106.1.082.1.081-.267-.351-.014.282-.034.186a1.157,1.157,0,0,1-.067.888,4.8,4.8,0,0,1-2.566,1.98,9.8,9.8,0,0,1-6.588.358,6.963,6.963,0,0,1-3.628-2.927c-3.892-5.644-3.383-15.288,3.3-18.64a9.4,9.4,0,0,1,5.865-.835,4.417,4.417,0,0,1,2.3,1.05c.9.888.735,1.412.039,2.393a2.017,2.017,0,0,0,.717,2.736,2.044,2.044,0,0,0,2.737-.717Z"/><path class="c" d="M148.05,154.754c.662-.141,1.323-.285,1.988-.414.372-.072.745-.14,1.119-.2a4.918,4.918,0,0,1,.578-.088c-.533.022-.074.01.055,0a16.258,16.258,0,0,1,2.355-.12q.287.009.573.031.141.012.282.027.337.04-.116-.016c.139-.093.832.177.992.226a2.587,2.587,0,0,1,.436.152q-.416-.18-.121-.045c.077.037.153.076.228.118.035.019.438.265.433.272q-.35-.281-.1-.077c.065.056.128.114.19.174.113.111.212.237.324.348.232.23-.268-.405.018.046.082.13.149.265.223.4.183.328-.13-.459,0,0,.036.13.081.256.111.388.122.54.015-.311.008.034a2.767,2.767,0,0,0-.01.454q.078-.514.017-.2c-.017.075-.038.148-.061.22-.081.332.2-.447-.042.051-.116.174-.083.138.1-.106a2.9,2.9,0,0,1-.368.367c.225-.168.245-.189.062-.063-.186.095-.36.2-.551.292a2.008,2.008,0,0,0-.718,2.736,2.058,2.058,0,0,0,2.737.717,4.8,4.8,0,0,0,2.829-4.074,5.874,5.874,0,0,0-1.523-4.094c-2.015-2.385-5.5-2.6-8.376-2.253-1.595.191-3.16.508-4.73.841a2.015,2.015,0,0,0-1.4,2.46,2.048,2.048,0,0,0,2.461,1.4Z"/><path class="a" d="M211.392,186.492c.355.128.641.228.834.3,2.12.765,7.579.7,11.93.065,4.609-1.1,6.3-1.168,10.274-3.744,3.041-2.535,3.085-3.613,4.038-6.883A14.917,14.917,0,0,0,239,171.2c-.075-1.33.04-2.856-.634-4.078a8.093,8.093,0,0,0-3.22-2.7,6.563,6.563,0,0,1-2.181-1.957c-2.015-2.91-6.254-6.139-14.717-6.139l-4.7-.246c.142,1.9.281,3.748.412,5.491l-.277-.044c-1.751-.27-4.606-.933-6.591-1.347a4.522,4.522,0,0,0-3.277.287c-1.323.879-1.35,3.082-.342,4.439a3.443,3.443,0,0,0-2.006,3.57c.116,1.577,1.164,2.551,2.069,3.636a2.088,2.088,0,0,0-1.947.643,2.139,2.139,0,0,0-.551,1.689,6.189,6.189,0,0,0,1.932,3.679c-.7-.207-1.292-.052-1.452.628a2.688,2.688,0,0,0,.387,1.931C203.4,183.476,208.986,185.626,211.392,186.492Z"/><path class="c" d="M148.323,160.61c.384-.1.774-.18,1.166-.246.2-.035,1-.122.209-.039.253-.027.5-.061.758-.086a22.731,22.731,0,0,1,3.269-.088c.262.013.523.031.784.056.128.012.255.028.383.041.3.028-.565-.088-.016,0a9.275,9.275,0,0,1,1.425.335c.1.034.206.075.31.11.291.095-.507-.246-.114-.048.189.1.369.2.55.309.347.213-.142-.12-.127-.1.056.063.134.126.2.183.032.03.056.07.089.1.161.134-.291-.438-.192-.253.043.081.1.168.153.245.219.327-.124-.511-.055-.121.018.1.092.492.033.059s-.014-.025-.016.084c0,.048-.009.1-.007.147.009.3.12-.52.03-.223-.075.245-.171.51-.231.758.144-.6.049-.128-.063.079-.091.17-.19.335-.293.5a2.019,2.019,0,0,0,.718,2.736,2.042,2.042,0,0,0,2.736-.717,5.719,5.719,0,0,0,.984-4.358,4.5,4.5,0,0,0-2.417-2.841,14.841,14.841,0,0,0-7.519-1.037,20.79,20.79,0,0,0-3.806.565,2,2,0,1,0,1.063,3.857Z"/><path class="c" d="M209.916,132.643c.517,9.653,1.324,19.292,2.05,28.93.193,2.551,4.194,2.572,4,0-.726-9.638-1.533-19.277-2.05-28.93-.136-2.561-4.137-2.577-4,0Z"/><path class="c" d="M203.787,167.705a17.333,17.333,0,0,0,3.745,1.447,26.636,26.636,0,0,0,3.546.748,2.2,2.2,0,0,0,1.541-.2,2,2,0,0,0,.717-2.737,1.916,1.916,0,0,0-1.2-.919,26.58,26.58,0,0,1-3.443-.72c-.587-.162-1.169-.342-1.741-.55-.139-.051-.277-.1-.415-.158-.079-.031-.364-.15-.026-.008.319.135.095.04.025.009-.251-.112-.5-.232-.735-.365a2,2,0,1,0-2.019,3.454Z"/><path class="c" d="M202.855,173.828a13.055,13.055,0,0,0,4.131,1.582,26.105,26.105,0,0,0,4.143.714,2.008,2.008,0,0,0,2-2,2.052,2.052,0,0,0-2-2c-.228-.018-1.073-.14-.233-.015-.281-.042-.562-.084-.842-.133q-1.01-.177-2-.423a20.439,20.439,0,0,1-1.971-.584c-.156-.056-.31-.118-.466-.177-.223-.084.48.212.2.085-.076-.035-.152-.068-.227-.1a5.493,5.493,0,0,1-.71-.4,2.012,2.012,0,0,0-2.736.717,2.049,2.049,0,0,0,.717,2.737Z"/><path class="c" d="M202.1,179.58a13.76,13.76,0,0,0,4.5,2.008,12.159,12.159,0,0,0,4.982.464,2,2,0,0,0,1.195-.919,2,2,0,0,0-.717-2.737,2.348,2.348,0,0,0-1.542-.2c.777-.111.267-.037.076-.029q-.213.009-.426,0a5.22,5.22,0,0,1-.952-.077c.041.009.5.076.225.027l-.261-.043c-.178-.031-.356-.066-.533-.1q-.55-.119-1.094-.273-.523-.15-1.037-.331-.269-.1-.532-.2c-.073-.029-.392-.163-.072-.026s-.016-.009-.064-.031a9.21,9.21,0,0,1-1.732-.987,2.014,2.014,0,0,0-1.541-.2,2,2,0,0,0-1.4,2.46,2.317,2.317,0,0,0,.919,1.2Z"/><path class="c" d="M216.458,158.222c4.726.034,10.379,1,13.966,4.379.741.7.848,1.048,1.587,1.865a21.548,21.548,0,0,0,3.6,2.6,3.323,3.323,0,0,1,1.35,3.015,18.46,18.46,0,0,1-.2,4.72c-.438,1.992-.906,4.127-2.346,5.614a13.635,13.635,0,0,1-6.134,3.4,38.158,38.158,0,0,1-7.738,1.416,22.8,22.8,0,0,1-7.384-.245,29.754,29.754,0,0,1-4.872-1.913c-1.07-.513-5.364-2.443-4.732-4.082l-.514.882-.608.184a2.018,2.018,0,0,0,1.946-3.343,5.486,5.486,0,0,1-1.243-1.9c-.2-.648-.277-.719.394-.695,1.86.068,2.468-2.173,1.414-3.414-1.019-1.2-2.481-3.022-.468-4.066a2.014,2.014,0,0,0,.718-2.736,2.155,2.155,0,0,1-.412-1.464.383.383,0,0,1,.145-.336c-.152.126-.145.131.023.014a2.114,2.114,0,0,1,.943-.087,41.3,41.3,0,0,1,5.394,1.093,82.742,82.742,0,0,0,11.261,1.363c2.571.155,2.562-3.845,0-4a93.317,93.317,0,0,1-14.056-2.042c-2.3-.494-5.02-.842-6.689,1.206a5.4,5.4,0,0,0-.063,6.272l.717-2.736a5.519,5.519,0,0,0-3.008,4.938c-.014,2.236,1.3,3.8,2.667,5.409l1.414-3.414a4.129,4.129,0,0,0-4.472,3.7c-.206,2.252,1.088,4.112,2.492,5.726L203.5,176.2c-2.024-.434-3.876.545-4.011,2.76a5.842,5.842,0,0,0,1.807,4.228c1.89,2.012,4.583,3.227,7.087,4.273a21.059,21.059,0,0,0,5.988,1.748,36.772,36.772,0,0,0,10.314-.428c5.71-1.067,12.554-3.145,14.825-9.107a23.858,23.858,0,0,0,1.425-10.169,6.93,6.93,0,0,0-2.088-4.938c-1.224-1.128-2.917-1.682-4.011-2.931a15.232,15.232,0,0,0-6.546-5.043,29.887,29.887,0,0,0-11.835-2.373c-2.575-.019-2.578,3.981,0,4Z"/><path class="c" d="M243.254,84.156c7.124,4.976,14.453,9.777,21.087,15.408a20.187,20.187,0,0,1,6.8,10.907c1.21,4.828,1.384,9.959,1.643,14.909.315,6.032.355,12.074.218,18.111-.058,2.575,3.942,2.575,4,0,.127-5.63.1-11.263-.158-16.889a99.86,99.86,0,0,0-1.57-16,23.948,23.948,0,0,0-6.406-12.332,92.849,92.849,0,0,0-10.8-8.569c-4.219-3.063-8.517-6.013-12.79-9-2.116-1.477-4.117,1.989-2.019,3.454Z"/><path class="c" d="M211.2,82.608c-3.862,1.679-7.742,3.318-11.58,5.052-3.674,1.659-7.587,3.173-10.556,5.984-5.741,5.436-8.057,13.978-10.259,21.288a137.4,137.4,0,0,1-4.634,13.96,2.069,2.069,0,0,0,.718,2.737,2.014,2.014,0,0,0,2.736-.718c3.346-7.921,5.111-16.372,8.2-24.384a29.069,29.069,0,0,1,4.963-8.916c2.631-2.949,6.223-4.383,9.746-6,4.2-1.921,8.45-3.713,12.683-5.553a2.013,2.013,0,0,0,.717-2.736,2.051,2.051,0,0,0-2.736-.718Z"/><path class="c" d="M224.208,25.783c1.388,5.245,2.851,10.451,6.042,14.907,2.9,4.058,6.675,8.69,11.594,10.289,2.454.8,3.5-3.063,1.064-3.857a13.515,13.515,0,0,1-4.972-3.485,38.4,38.4,0,0,1-4.573-5.448c-2.81-4.044-4.05-8.755-5.3-13.469-.658-2.486-4.518-1.432-3.857,1.063Z"/><path class="c" d="M224.607,23.524A39.464,39.464,0,0,1,210.5,35.191a34.167,34.167,0,0,1-4.2,1.659,6.473,6.473,0,0,0-1.133.348q-.615.147.486.077a1.279,1.279,0,0,1,.911.734c.064.047.037.071.043.01.019-.222,0-.452.012-.675.129-2.323.836-4.607,1.129-6.915.23-1.806-2.288-2.518-3.414-1.414C199,34.251,193.581,39.426,187.8,44.172c-1.991,1.634.853,4.45,2.829,2.828,5.78-4.746,11.2-9.92,16.532-15.156l-3.415-1.415c-.3,2.356-1.354,5.289-1.121,7.883A2.9,2.9,0,0,0,204.7,41.15c1.6.367,3.789-.8,5.224-1.374a42.181,42.181,0,0,0,17.508-13.423,2.067,2.067,0,0,0,0-2.829,2.013,2.013,0,0,0-2.828,0Z"/><path class="c" d="M161.858,184.723a242.992,242.992,0,0,0-23.606,14.341,43.364,43.364,0,0,0-9.03,8.156,31.346,31.346,0,0,0-6.373,14.291,140.14,140.14,0,0,0-1.682,19.6q-.285,8.517-.427,17.039c-.079,4.942-.1,9.884-.129,14.826-.016,3.216-.053,6.432-.04,9.648a36.064,36.064,0,0,0,.537,7.434c1.206,5.6,7.292,6.959,12.23,7.532a79.87,79.87,0,0,0,19.449.31,2.066,2.066,0,0,0,2-2,2.012,2.012,0,0,0-2-2,73.988,73.988,0,0,1-16.221.018,31.727,31.727,0,0,1-7.928-1.327,9.466,9.466,0,0,1-2.833-1.557c.15.127-.154-.2-.174-.232a2.3,2.3,0,0,1-.416-.863,20.7,20.7,0,0,1-.631-5.888c-.051-3.063,0-6.128.018-9.191.024-4.855.043-9.71.107-14.565.067-5.128.193-10.255.343-15.382a187.758,187.758,0,0,1,1.135-19.117c.665-5.039,1.891-9.931,4.743-14.2a34.1,34.1,0,0,1,8.008-8.121c7.814-5.772,16.422-10.65,24.938-15.3,2.26-1.234.244-4.689-2.018-3.453Z"/><path class="c" d="M163.525,340.34c4.6-3.072,8.356-7.443,13.4-9.853,2.221-1.061,4.7-1.692,6.655-3.24a8.6,8.6,0,0,0,3.049-5.908,25.179,25.179,0,0,0-.309-8.119,34.106,34.106,0,0,0-1.219-4.31,19.146,19.146,0,0,0-1.726-4.329c-3.446-5.168-9.725,3.216-13.863,2.757-2.552-.283-4.089-2.32-6.044-3.676-1.932-1.34-4.679-.164-6.092,1.446-.134.152-.277.357-.385.5-.256.328.218-.271.02-.027-.17.209-.34.417-.513.624-.558.664-1.134,1.313-1.714,1.958q-2.154,2.394-4.418,4.684c-3.37,3.414-7.135,6.278-10.683,9.485-3.668,3.316-8.149,7.953-7.023,13.334a10.427,10.427,0,0,0,4.925,6.693,18.623,18.623,0,0,0,8.291,2.382,27.527,27.527,0,0,0,17.646-4.4c2.158-1.387.155-4.851-2.019-3.454a23.607,23.607,0,0,1-13.154,3.984c-3.859-.039-9.193-.618-11.2-4.483-1.077-2.073-.73-3.79.45-5.7a25.315,25.315,0,0,1,4.461-5.12c3.091-2.859,6.489-5.337,9.508-8.281,2.6-2.535,5.124-5.175,7.485-7.937q.555-.649,1.082-1.324c.452-.58-.221.057.306-.346.243-.186.492-.324.748-.5.451-.307.574.151.027-.232.106.074.118.017.251.2a6.6,6.6,0,0,0,1.124,1.023,16.037,16.037,0,0,0,2.839,1.917,8.915,8.915,0,0,0,7.276.768,38.224,38.224,0,0,0,6.029-3.148c.4-.237.854-.422,1.245-.669.025-.015.464-.072.305-.117-.284-.082-.152.013-.1.156.517,1.32,1,2.659,1.429,4.011a23.773,23.773,0,0,1,1.179,7.67c-.025,1.834-.077,3.987-1.586,5.278-1.771,1.515-4.4,2.06-6.468,3.068-4.976,2.43-8.684,6.732-13.239,9.773C159.375,338.309,161.376,341.775,163.525,340.34Z"/><path class="c" d="M130.041,332.053c4.5-3,8.169-7.282,13.111-9.625,2.232-1.058,4.7-1.694,6.638-3.291a8.441,8.441,0,0,0,2.788-5.64,24.586,24.586,0,0,0-.26-7.7,31.712,31.712,0,0,0-1.156-4.2,24.43,24.43,0,0,0-1.58-4.154c-3.166-5.6-9.551,2.646-13.535,2.377-2.435-.163-4.055-2.062-5.857-3.429-1.913-1.452-4.581-.467-6.1,1.146a7.517,7.517,0,0,0-.487.615c.166-.207-.3.358-.373.45-.518.621-1.053,1.227-1.592,1.829q-2.086,2.331-4.284,4.56c-3.284,3.34-6.934,6.153-10.413,9.268-3.576,3.2-8.1,7.769-7.081,13.019a10.267,10.267,0,0,0,5.014,6.836,18.435,18.435,0,0,0,8.014,2.239,26.861,26.861,0,0,0,17.152-4.3c2.159-1.387.155-4.851-2.019-3.454a22.942,22.942,0,0,1-12.678,3.875c-3.781-.023-9.061-.571-11-4.387-1.1-2.157-.561-3.895.694-5.819a25.717,25.717,0,0,1,4.281-4.774c3.016-2.763,6.3-5.18,9.23-8.045,2.517-2.463,4.964-5.022,7.246-7.706.4-.468.763-.959,1.154-1.432-.191.231-.122.048.181-.157.208-.14.472-.274.693-.421.488-.324.281.027-.079-.207a.975.975,0,0,1,.234.19,6.872,6.872,0,0,0,1.095,1,15.764,15.764,0,0,0,2.776,1.875,8.729,8.729,0,0,0,7.3.689,46.311,46.311,0,0,0,6.028-3.194c.31-.177.844-.586,1.23-.561-.435-.028-.194.141-.043.533.5,1.29.964,2.595,1.367,3.917a22.725,22.725,0,0,1,1.008,7.195c-.031,1.723-.113,3.724-1.528,4.93-1.714,1.459-4.25,1.99-6.247,2.959-4.869,2.362-8.491,6.571-12.942,9.543C125.891,330.021,127.892,333.488,130.041,332.053Z"/><path class="c" d="M194.025,194.435c-5.676,2.668-11.224,5.529-16.641,8.689-3.382,1.973-6.817,3.9-10.107,6.024a43.314,43.314,0,0,0-9.258,8.024,22.038,22.038,0,0,0-4.546,7.525,50.6,50.6,0,0,0-1.949,11.711c-.7,8.354-.8,16.775-.965,25.154-.137,6.883-.163,13.768-.195,20.653-.018,3.925-.22,7.913.152,11.827.249,2.621.79,5.291,3.039,6.928,3.063,2.228,6.725,2.8,10.4,3.192a100.523,100.523,0,0,0,12.264.676c1.785-.03,3.568-.135,5.343-.334a11.444,11.444,0,0,0,5.268-1.457c3.158-2.1,3.457-5.508,3.624-9,.333-6.976.422-13.965.774-20.944.4-7.983.718-15.968,1.034-23.955q.143-3.6.288-7.192l-.99,1.727c10.069-4.985,20.014-10.231,29.939-15.5,5.143-2.728,10.354-5.384,15.288-8.481,3.269-2.052,6.422-4.279,9.476-6.639,2.764-2.136,5.515-4.235,7.472-7.176,3.695-5.551,4.327-12.148,3.748-18.615a2.054,2.054,0,0,0-2-2,2.014,2.014,0,0,0-2,2c.482,5.382.254,10.573-2.466,15.395-1.628,2.886-4.1,4.845-6.674,6.861a111.89,111.89,0,0,1-9.189,6.477c-4.72,2.989-9.7,5.552-14.635,8.173q-7.872,4.183-15.786,8.291c-5.046,2.62-10.1,5.233-15.192,7.756a2,2,0,0,0-.991,1.727c-.587,14.519-1.377,29.036-1.861,43.558-.118,3.525-.056,7.078-.393,10.59-.125,1.3-.233,2.53-1.342,3.395-1.189.927-2.852.962-4.29,1.1a68.624,68.624,0,0,1-10.729.079c-3.633-.224-7.546-.322-11.041-1.437a10.634,10.634,0,0,1-2.066-.912,4.858,4.858,0,0,1-1.4-.992,5.175,5.175,0,0,0-.338-.594,8.131,8.131,0,0,1-.438-1.652c-.606-3.361-.32-6.959-.3-10.355.033-6.645.045-13.291.149-19.936.121-7.625.278-15.261.663-22.877a93.534,93.534,0,0,1,1.165-12,19.466,19.466,0,0,1,2.917-7.908c4.29-6.172,10.689-9.839,17.01-13.579,4.993-2.954,10.024-5.814,15.237-8.364q2.265-1.108,4.55-2.176c2.328-1.094.3-4.543-2.018-3.454Z"/><path class="c" d="M207.168,86.405a13.334,13.334,0,0,0,6.641,9.036c3.961,2.3,8.664,2.542,13.082,1.728a41.145,41.145,0,0,0,11.825-4.411,29.474,29.474,0,0,0,9.015-7.481,2.061,2.061,0,0,0,0-2.828,2.014,2.014,0,0,0-2.829,0c-4.318,5.4-10.687,8.782-17.328,10.478-3.534.9-7.584,1.147-10.946-.512a9.74,9.74,0,0,1-5.6-7.074,2.016,2.016,0,0,0-2.46-1.4,2.047,2.047,0,0,0-1.4,2.461Z"/></svg>