<?xml version="1.0" encoding="iso-8859-1"?>
<!-- Uploaded to: SVG Repo, www.svgrepo.com, Generator: SVG Repo Mixer Tools -->
<svg height="800px" width="800px" version="1.1" id="Layer_1" xmlns="http://www.w3.org/2000/svg" xmlns:xlink="http://www.w3.org/1999/xlink" 
	 viewBox="0 0 512 512" xml:space="preserve">
<path d="M378.486,512H158.699c-8.606,0-15.582-6.978-15.582-15.582c0-8.604,6.976-15.582,15.582-15.582h219.787
	c8.606,0,15.582,6.978,15.582,15.582C394.068,505.022,387.092,512,378.486,512z"/>
<path d="M111.959,511.998c-1.028,0-2.041-0.109-3.054-0.312c-0.997-0.187-1.963-0.499-2.914-0.888
	c-0.935-0.39-1.839-0.857-2.68-1.434c-0.857-0.559-1.652-1.215-2.384-1.932c-0.717-0.717-1.356-1.511-1.932-2.368
	c-0.561-0.841-1.044-1.745-1.434-2.696c-0.39-0.935-0.686-1.915-0.888-2.912c-0.203-0.999-0.296-2.027-0.296-3.039
	c0-1.013,0.093-2.043,0.296-3.039c0.203-0.997,0.499-1.98,0.888-2.914c0.39-0.95,0.873-1.853,1.434-2.694
	c0.577-0.859,1.215-1.653,1.932-2.37c0.732-0.717,1.527-1.371,2.384-1.932c0.841-0.559,1.745-1.044,2.68-1.434
	c0.935-0.39,1.917-0.684,2.914-0.887c2.01-0.407,4.083-0.407,6.093,0c0.997,0.203,1.979,0.497,2.914,0.887s1.854,0.874,2.696,1.434
	c0.857,0.561,1.652,1.215,2.368,1.932s1.371,1.511,1.932,2.37c0.561,0.841,1.044,1.744,1.434,2.694
	c0.39,0.935,0.686,1.917,0.888,2.914c0.203,0.997,0.312,2.026,0.312,3.039c0,1.011-0.109,2.041-0.312,3.039
	c-0.203,0.997-0.499,1.979-0.888,2.912c-0.39,0.95-0.873,1.854-1.434,2.696c-0.561,0.857-1.215,1.652-1.932,2.368
	s-1.511,1.373-2.368,1.932c-0.841,0.577-1.761,1.044-2.696,1.434s-1.917,0.701-2.914,0.888
	C114,511.889,112.972,511.998,111.959,511.998z"/>
<path style="fill:#FFAB64;" d="M147.86,440.322h194.72C386.02,409.7,414.4,359.146,414.4,301.958
	c0-19.844-3.425-38.887-9.703-56.577c-16.321,8.883-29.341,19.68-60.987,19.68c-53.758,0-53.758-31.164-107.517-31.164
	c-53.757,0-53.757,31.164-107.513,31.164c-21.6,0-34.516-5.035-45.732-11.054c-4.486,15.203-6.904,31.294-6.904,47.951
	C76.041,359.146,104.42,409.7,147.86,440.322z"/>
<path style="fill:#AFE1ED;" d="M82.945,254.007c11.216,6.019,24.132,11.054,45.732,11.054c53.757,0,53.757-31.164,107.513-31.164
	c53.758,0,53.758,31.164,107.517,31.164c31.646,0,44.668-10.795,60.987-19.68c-10.669-30.063-29.592-56.219-54.051-75.734v-49.654
	V15.582H98.135l74.97,104.413v28.892C129.868,169.293,96.676,207.477,82.945,254.007z"/>
<path d="M437.533,0h-86.889H98.135H74.467c-8.606,0-15.582,6.978-15.582,15.582s6.976,15.582,15.582,15.582h15.674l67.382,93.845
	v14.301c-43.215,23.334-75.579,63.034-89.524,110.287c-5.003,16.96-7.542,34.577-7.542,52.362
	c0,59.999,29.316,116.486,78.423,151.101c2.629,1.851,5.764,2.845,8.978,2.845h194.72c3.215,0,6.35-0.994,8.978-2.845
	c49.105-34.617,78.423-91.102,78.423-151.101c0-21.171-3.564-41.95-10.591-61.76c-0.003-0.009-0.005-0.019-0.009-0.03
	c-10.686-30.111-28.989-56.873-53.154-77.825V31.164h55.725v121.048c0,8.604,6.976,15.582,15.582,15.582s15.582-6.978,15.582-15.582
	V15.582C453.115,6.978,446.139,0,437.533,0z M337.508,424.74H152.932c-38.482-28.977-61.309-74.514-61.309-122.782
	c0-8.854,0.754-17.651,2.252-26.312c0.111,0.034,0.229,0.065,0.34,0.101c0.975,0.309,1.971,0.608,2.995,0.894
	c0.39,0.109,0.798,0.21,1.195,0.316c0.774,0.206,1.55,0.411,2.353,0.603c0.472,0.114,0.961,0.22,1.444,0.327
	c0.757,0.17,1.519,0.338,2.301,0.494c0.525,0.106,1.063,0.204,1.6,0.304c0.778,0.143,1.566,0.28,2.37,0.411
	c0.563,0.09,1.131,0.178,1.705,0.262c0.82,0.12,1.656,0.229,2.504,0.333c0.587,0.072,1.175,0.145,1.775,0.209
	c0.893,0.097,1.809,0.178,2.732,0.256c0.587,0.05,1.167,0.104,1.765,0.146c1.032,0.073,2.094,0.125,3.163,0.174
	c0.528,0.025,1.039,0.059,1.577,0.078c1.621,0.056,3.277,0.089,4.985,0.089c31.069,0,47.275-9.394,61.573-17.684
	c12.477-7.235,23.253-13.48,45.941-13.48c22.689,0,33.466,6.247,45.944,13.48c14.298,8.288,30.504,17.684,61.573,17.684
	c1.765,0,3.469-0.039,5.139-0.098c0.511-0.017,1.008-0.045,1.51-0.069c1.175-0.055,2.329-0.122,3.459-0.203
	c0.516-0.037,1.032-0.075,1.538-0.118c1.22-0.103,2.411-0.224,3.579-0.358c0.323-0.037,0.656-0.067,0.975-0.106
	c1.463-0.181,2.886-0.385,4.273-0.611c0.349-0.058,0.683-0.122,1.027-0.182c1.044-0.181,2.069-0.371,3.071-0.577
	c0.433-0.089,0.862-0.179,1.287-0.273c0.941-0.204,1.862-0.421,2.767-0.645c0.358-0.089,0.725-0.174,1.077-0.266
	c1.223-0.318,2.423-0.65,3.585-1c0.108-0.033,0.207-0.067,0.315-0.1c1.06-0.324,2.093-0.662,3.106-1.01
	c0.346-0.118,0.686-0.242,1.027-0.363c0.785-0.28,1.558-0.566,2.317-0.859c0.332-0.128,0.665-0.256,0.993-0.386
	c0.868-0.346,1.72-0.698,2.555-1.058c0.165-0.072,0.337-0.14,0.5-0.21c1-0.436,1.976-0.882,2.934-1.335
	c0.249-0.117,0.491-0.238,0.739-0.357c0.717-0.344,1.424-0.692,2.119-1.044c0.29-0.146,0.578-0.293,0.866-0.441
	c0.238-0.123,0.483-0.243,0.718-0.366c2.414,10.89,3.632,22.049,3.632,33.346C398.816,350.227,375.988,395.764,337.508,424.74z
	 M340.926,181.826c19.121,15.258,34.243,34.7,44.239,56.753c-0.009,0.006-0.02,0.011-0.03,0.017
	c-0.221,0.125-0.444,0.246-0.665,0.371c-0.505,0.282-1.01,0.563-1.515,0.838c-0.273,0.148-0.547,0.293-0.821,0.439
	c-0.46,0.246-0.921,0.491-1.385,0.731c-0.291,0.151-0.586,0.299-0.879,0.447c-0.452,0.229-0.907,0.455-1.365,0.678
	c-0.305,0.148-0.612,0.294-0.921,0.439c-0.458,0.217-0.922,0.428-1.388,0.637c-0.31,0.139-0.62,0.277-0.933,0.413
	c-0.489,0.212-0.986,0.416-1.485,0.619c-0.301,0.122-0.597,0.246-0.901,0.365c-0.572,0.223-1.158,0.436-1.745,0.648
	c-0.243,0.087-0.478,0.179-0.725,0.263c-0.841,0.291-1.7,0.57-2.58,0.835c-0.122,0.036-0.249,0.069-0.371,0.104
	c-0.759,0.223-1.532,0.438-2.323,0.64c-0.313,0.079-0.637,0.151-0.957,0.227c-0.62,0.148-1.245,0.294-1.887,0.43
	c-0.377,0.079-0.767,0.151-1.152,0.226c-0.612,0.118-1.231,0.232-1.864,0.338c-0.414,0.069-0.837,0.134-1.261,0.198
	c-0.637,0.095-1.286,0.184-1.946,0.266c-0.441,0.055-0.883,0.109-1.335,0.159c-0.687,0.075-1.396,0.139-2.11,0.199
	c-0.45,0.039-0.896,0.079-1.356,0.112c-0.795,0.056-1.616,0.097-2.443,0.132c-0.41,0.019-0.806,0.045-1.223,0.059
	c-1.259,0.042-2.551,0.067-3.891,0.067c-22.689,0-33.466-6.247-45.944-13.48c-14.298-8.288-30.504-17.684-61.573-17.684
	c-31.068,0-47.273,9.394-61.571,17.684c-12.478,7.235-23.255,13.48-45.942,13.48c-1.259,0-2.473-0.023-3.662-0.061
	c-0.377-0.012-0.74-0.031-1.109-0.045c-0.813-0.034-1.614-0.075-2.397-0.126c-0.396-0.025-0.788-0.053-1.176-0.083
	c-0.765-0.059-1.511-0.128-2.249-0.204c-0.338-0.034-0.681-0.065-1.013-0.104c-1.032-0.118-2.044-0.249-3.023-0.399
	c-0.064-0.009-0.123-0.022-0.185-0.031c-0.924-0.145-1.822-0.304-2.703-0.475c-0.312-0.061-0.615-0.128-0.922-0.192
	c-0.631-0.131-1.254-0.268-1.865-0.413c-0.323-0.076-0.645-0.154-0.963-0.235c-0.612-0.154-1.214-0.318-1.808-0.486
	c-0.27-0.076-0.542-0.15-0.807-0.229c-0.841-0.249-1.669-0.51-2.479-0.787c-0.006-0.002-0.011-0.005-0.017-0.006
	c13.589-34.454,39.345-62.994,72.469-80.123h74.26c8.606,0,15.582-6.978,15.582-15.582s-6.976-15.582-15.582-15.582h-60.34v-14.322
	c0-3.261-1.024-6.44-2.925-9.087l-57.256-79.743h206.555v138.483C335.062,174.387,337.22,178.87,340.926,181.826z"/>
<path d="M295.781,165.484c-1.028,0-2.041-0.109-3.054-0.312c-0.997-0.203-1.979-0.499-2.914-0.888
	c-0.935-0.39-1.839-0.873-2.68-1.434c-0.857-0.561-1.652-1.215-2.384-1.932c-0.717-0.717-1.356-1.511-1.932-2.368
	c-0.561-0.841-1.044-1.761-1.434-2.696c-0.39-0.935-0.686-1.915-0.888-2.914c-0.203-0.997-0.312-2.026-0.312-3.037
	c0-1.013,0.109-2.043,0.312-3.054c0.203-0.999,0.499-1.965,0.888-2.914c0.39-0.936,0.873-1.84,1.434-2.696
	c0.577-0.841,1.215-1.636,1.932-2.353c0.732-0.732,1.527-1.371,2.384-1.948c0.841-0.561,1.745-1.044,2.68-1.434
	c0.935-0.39,1.917-0.686,2.914-0.888c2.01-0.405,4.082-0.405,6.093,0c0.997,0.203,1.979,0.499,2.914,0.888
	c0.935,0.39,1.854,0.873,2.696,1.434c0.841,0.577,1.652,1.215,2.368,1.948c0.717,0.717,1.371,1.511,1.932,2.353
	c0.561,0.857,1.044,1.761,1.434,2.696c0.39,0.949,0.686,1.915,0.888,2.914c0.203,1.011,0.312,2.026,0.312,3.054
	c0,1.011-0.109,2.041-0.312,3.037c-0.203,0.999-0.499,1.98-0.888,2.914c-0.39,0.936-0.873,1.854-1.434,2.696
	c-0.561,0.857-1.215,1.652-1.932,2.368C303.899,163.816,299.879,165.484,295.781,165.484z"/>
</svg>