<?xml version="1.0" encoding="iso-8859-1"?>
<!-- Uploaded to: SVG Repo, www.svgrepo.com, Generator: SVG Repo Mixer Tools -->
<svg height="800px" width="800px" version="1.1" id="Layer_1" xmlns="http://www.w3.org/2000/svg" xmlns:xlink="http://www.w3.org/1999/xlink" 
	 viewBox="0 0 512 512" xml:space="preserve">
<path style="fill:#E0DDDF;" d="M313.242,270.841H16.431c29.681,0,59.362-186.567,152.646-186.567S292.041,270.841,313.242,270.841z"
	/>
<g>
	<path style="fill:#C1BCBF;" d="M183.916,85.91c-4.76-1.07-9.704-1.637-14.84-1.637c-93.284,0-122.965,186.567-152.646,186.567
		h29.681C74.158,270.841,102.206,104.255,183.916,85.91z"/>
	<circle style="fill:#C1BCBF;" cx="230.559" cy="230.559" r="14.841"/>
	<circle style="fill:#C1BCBF;" cx="200.878" cy="175.437" r="14.841"/>
	<circle style="fill:#C1BCBF;" cx="166.957" cy="128.795" r="14.841"/>
	<circle style="fill:#C1BCBF;" cx="166.957" cy="230.559" r="14.841"/>
	<circle style="fill:#C1BCBF;" cx="133.035" cy="175.437" r="14.841"/>
	<circle style="fill:#C1BCBF;" cx="103.354" cy="230.559" r="14.841"/>
</g>
<path style="fill:#FF675C;" d="M504.05,268.72v29.681c0,5.851-4.749,10.6-10.6,10.6h-86.923V258.12h86.923
	C499.301,258.12,504.05,262.869,504.05,268.72z"/>
<path style="fill:#DB3D5A;" d="M497.689,283.561h-86.923V258.12h-4.24v50.882h86.923c5.851,0,10.6-4.749,10.6-10.6v-16.977
	C502.276,282.76,500.079,283.561,497.689,283.561z"/>
<path style="fill:#9FD25A;" d="M313.242,270.841h8.48c0,86.648-70.238,156.886-156.886,156.886S7.95,357.488,7.95,270.841h8.48
	H313.242z"/>
<path style="fill:#6EAD32;" d="M54.592,270.841H16.431H7.95c0,86.648,70.238,156.886,156.886,156.886
	c7.925,0,15.712-0.594,23.321-1.728C112.571,414.735,54.592,349.564,54.592,270.841z"/>
<path d="M493.449,250.17h-86.923c-4.392,0-7.95,3.559-7.95,7.95v13.251h-68.909c0-0.177,0.006-0.353,0.006-0.53
	c0-4.392-3.559-7.95-7.95-7.95h-7.225c-4.329-4.094-12.383-24.353-18.905-40.763c-11.266-28.344-25.286-63.62-44.912-92.629
	c-23.872-35.285-51.327-53.176-81.604-53.176c-31.497,0-61.258,20.438-86.065,59.106c-2.37,3.695-1.297,8.614,2.399,10.984
	c1.329,0.853,2.815,1.259,4.286,1.259c2.617,0,5.18-1.292,6.698-3.658c22.047-34.365,46.502-51.79,72.682-51.79
	c57.773,0,90.25,81.708,111.739,135.776c5.926,14.909,10.55,26.54,14.918,34.89H38.54c6.058-8.645,28.818-62.838,34.265-74.236
	c1.893-3.961,0.217-8.708-3.744-10.601c-3.961-1.894-8.708-0.217-10.601,3.744c-5.602,11.722-28.278,65.78-33.814,73.231
	c-2.8,3.766-6.05,6.398-9.665,7.862H7.95c-4.392,0-7.95,3.559-7.95,7.95c0,90.891,73.945,164.836,164.836,164.836
	c85.346,0,155.747-65.2,164.019-148.406h69.72v21.731c0,4.392,3.559,7.95,7.95,7.95h86.923c10.228,0,18.551-8.322,18.551-18.551
	V268.72C512,258.492,503.678,250.17,493.449,250.17z M164.836,419.776c-79.456,0-144.581-62.544-148.727-140.986h0.294
	c0.008,0,0.018,0.002,0.027,0.002c0.008,0,0.017-0.002,0.025-0.002h297.107C309.418,357.233,244.293,419.776,164.836,419.776z
	 M496.099,298.402c0,1.462-1.188,2.65-2.65,2.65h-78.973V266.07h78.973c1.462,0,2.65,1.188,2.65,2.65V298.402z"/>
<path d="M275.15,328.527c-3.665-2.413-8.596-1.399-11.013,2.267c-22.994,34.918-60.983,56.033-99.102,55.063
	c-0.068-0.001-0.135-0.002-0.202-0.002c-4.298,0-7.836,3.429-7.944,7.752c-0.11,4.39,3.36,8.037,7.75,8.147
	c0.957,0.023,1.911,0.035,2.867,0.035c42.596,0,84.495-23.653,109.913-62.25C279.832,335.872,278.816,330.942,275.15,328.527z"/>
<path d="M287.852,292.833c-4.247-1.123-8.594,1.419-9.711,5.666c-0.99,3.76-2.188,7.528-3.563,11.2
	c-1.539,4.112,0.547,8.693,4.66,10.233c0.918,0.343,1.859,0.507,2.786,0.507c3.22,0,6.251-1.971,7.447-5.166
	c1.561-4.171,2.924-8.454,4.047-12.729C294.634,298.298,292.099,293.951,287.852,292.833z"/>
</svg>