<?xml version="1.0" encoding="iso-8859-1"?>
<!-- Uploaded to: SVG Repo, www.svgrepo.com, Generator: SVG Repo Mixer Tools -->
<svg height="800px" width="800px" version="1.1" id="Layer_1" xmlns="http://www.w3.org/2000/svg" xmlns:xlink="http://www.w3.org/1999/xlink" 
	 viewBox="0 0 512 512" xml:space="preserve">
<path style="fill:#E03E34;" d="M459.27,321.981h-37.706c-9.425,0-17.067-7.641-17.067-17.067s7.641-17.067,17.067-17.067h37.706
	c10.255,0,18.597-8.342,18.597-18.597v-97.219c0-10.255-8.342-18.597-18.597-18.597h-37.706c-9.425,0-17.067-7.641-17.067-17.067
	c0-9.425,7.641-17.067,17.067-17.067h37.706c29.076,0,52.73,23.654,52.73,52.73v97.219C512,298.326,488.346,321.981,459.27,321.981z
	"/>
<path style="fill:#FF7058;" d="M421.569,417.269H90.431c-9.425,0-17.067-7.641-17.067-17.067V37.148
	c0-9.425,7.641-17.067,17.067-17.067h331.139c9.425,0,17.067,7.641,17.067,17.067v363.053
	C438.636,409.627,430.995,417.269,421.569,417.269z"/>
<path style="fill:#F1543F;" d="M421.569,20.082H256v397.187h165.569c9.425,0,17.067-7.641,17.067-17.067V37.148
	C438.636,27.723,430.995,20.082,421.569,20.082z"/>
<path style="fill:#FFD15C;" d="M350.243,491.918H161.758c-48.819,0-88.394-39.575-88.394-88.394v-20.389h365.272v20.389
	C438.636,452.343,399.061,491.918,350.243,491.918z"/>
<path style="fill:#F8B64C;" d="M256,383.135v108.782h94.243c48.819,0,88.393-39.575,88.393-88.393v-20.389H256z"/>
<path style="fill:#F1543F;" d="M494.933,491.914H17.067C7.641,491.914,0,484.272,0,474.847s7.641-17.067,17.067-17.067h477.867
	c9.425,0,17.067,7.641,17.067,17.067S504.359,491.914,494.933,491.914z"/>
<path style="fill:#E03E34;" d="M494.933,457.78H256v34.133h238.933c9.425,0,17.067-7.641,17.067-17.067
	S504.359,457.78,494.933,457.78z"/>
</svg>