<?xml version="1.0" encoding="iso-8859-1"?>
<!-- Uploaded to: SVG Repo, www.svgrepo.com, Generator: SVG Repo Mixer Tools -->
<svg version="1.1" id="Layer_1" xmlns="http://www.w3.org/2000/svg" xmlns:xlink="http://www.w3.org/1999/xlink" 
	 viewBox="0 0 512 512" xml:space="preserve">
<rect x="377.6" y="396.8" style="fill:#BCB0AD;" width="51.2" height="102.4"/>
<rect x="371.2" y="12.8" style="fill:#79615B;" width="64" height="128"/>
<path style="fill:#FF877F;" d="M115.2,499.2c-21.171,0-38.4-17.229-38.4-38.4V307.2c0-21.171,17.229-38.4,38.4-38.4h153.6
	c21.171,0,38.4,17.229,38.4,38.4v153.6c0,21.171-17.229,38.4-38.4,38.4H115.2z M140.8,345.6c-7.057,0-12.8,5.743-12.8,12.8v76.8
	c0,7.057,5.743,12.8,12.8,12.8h102.4c7.057,0,12.8-5.743,12.8-12.8v-76.8c0-7.057-5.743-12.8-12.8-12.8H140.8z"/>
<rect x="153.6" y="192" style="fill:#C5DFE2;" width="76.8" height="76.8"/>
<rect x="128" y="345.6" style="fill:#FEDEA1;" width="128" height="102.4"/>
<rect x="153.6" y="12.8" style="fill:#FF877F;" width="76.8" height="179.2"/>
<g>
	<path style="fill:#573A32;" d="M268.8,256h-25.6V25.6c0-14.14-11.46-25.6-25.6-25.6h-51.2c-14.14,0-25.6,11.46-25.6,25.6V256h-25.6
		C86.972,256,64,278.972,64,307.2v153.6c0,28.228,22.972,51.2,51.2,51.2h153.6c28.228,0,51.2-22.972,51.2-51.2V307.2
		C320,278.972,297.028,256,268.8,256z M166.4,25.6h51.2v153.6h-51.2V25.6z M166.4,204.8h51.2V256h-51.2V204.8z M294.4,460.8
		c0,14.14-11.46,25.6-25.6,25.6H115.2c-14.14,0-25.6-11.46-25.6-25.6V307.2c0-14.14,11.46-25.6,25.6-25.6h153.6
		c14.14,0,25.6,11.46,25.6,25.6V460.8z"/>
	<path style="fill:#573A32;" d="M243.2,332.8H140.8c-14.14,0-25.6,11.46-25.6,25.6v76.8c0,14.14,11.46,25.6,25.6,25.6h102.4
		c14.14,0,25.6-11.46,25.6-25.6v-76.8C268.8,344.26,257.34,332.8,243.2,332.8z M243.2,435.2H140.8v-76.8h102.4V435.2z"/>
	<path style="fill:#573A32;" d="M422.4,153.6c14.14,0,25.6-11.46,25.6-25.6V25.6C448,11.46,436.54,0,422.4,0H384
		c-14.14,0-25.6,11.46-25.6,25.6V128c0,14.14,11.46,25.6,25.6,25.6h6.4V384c-14.14,0-25.6,11.46-25.6,25.6v76.8
		c0,14.14,11.46,25.6,25.6,25.6H416c14.14,0,25.6-11.46,25.6-25.6v-76.8c0-14.14-11.46-25.6-25.6-25.6V153.6H422.4z M416,486.4
		h-25.6v-76.8H416V486.4z M384,128V25.6h38.4V128H384z"/>
</g>
</svg>