<?xml version="1.0" encoding="iso-8859-1"?>
<!-- Uploaded to: SVG Repo, www.svgrepo.com, Generator: SVG Repo Mixer Tools -->
<svg height="800px" width="800px" version="1.1" id="Layer_1" xmlns="http://www.w3.org/2000/svg" xmlns:xlink="http://www.w3.org/1999/xlink" 
	 viewBox="0 0 511.998 511.998" xml:space="preserve">
<path style="fill:#F7B239;" d="M346.341,418.284c-4.95,44.73-40.587,80.19-85.383,84.886c-3.337,0.365-6.729,0.541-10.155,0.541
	c-49.471,0-90.223-37.371-95.538-85.427c14.31,12.807,31.194,22.774,49.791,29.028c14.376,4.84,29.747,7.459,45.747,7.459
	C287.499,454.771,320.982,440.981,346.341,418.284z"/>
<path style="fill:#F95428;" d="M341.622,375.996c-24.719,20.277-56.355,32.443-90.82,32.443c-18.807,0-36.774-3.624-53.228-10.221
	c-13.702-5.481-26.365-13.017-37.592-22.221c4.497-12.962,11.702-24.664,20.918-34.421c0.818,1.006,1.658,2.011,2.497,3.017
	l44.034-10.166l13.426-3.094l-4.122-5.16l-9.138-11.415c0,0-0.066-0.144-0.21-0.431c7.492-1.89,15.337-2.884,23.415-2.884
	c3.437,0,6.829,0.177,10.166,0.53c7.16,0.751,14.078,2.298,20.686,4.542c-2.851,4.144-6.144,8.011-9.857,11.503l44.2,12.155
	c0.298-0.807,0.597-1.624,0.884-2.431C327.942,348.216,336.517,361.3,341.622,375.996z"/>
<path style="fill:#E54728;" d="M197.576,398.218c-13.702-5.481-26.365-13.017-37.592-22.221
	c4.497-12.962,11.702-24.664,20.918-34.421c0.818,1.006,1.658,2.011,2.497,3.017l44.034-10.166
	C210.78,351.078,199.786,373.388,197.576,398.218z"/>
<path style="fill:#F7B239;" d="M227.598,314.757c0,0-0.066-0.144-0.21-0.431c7.492-1.89,15.337-2.884,23.415-2.884
	c3.437,0,6.829,0.177,10.166,0.53c-8.752,3.635-16.895,8.431-24.233,14.199L227.598,314.757z"/>
<path style="fill:#E09B2D;" d="M260.957,503.17c-3.337,0.365-6.729,0.541-10.155,0.541c-49.471,0-90.223-37.371-95.538-85.427
	c14.31,12.807,31.194,22.774,49.791,29.028C215.543,472.529,235.72,492.695,260.957,503.17z"/>
<path style="fill:#2BA5F7;" d="M346.938,407.577c0,3.624-0.199,7.194-0.597,10.707c-25.36,22.697-58.841,36.487-95.538,36.487
	c-16,0-31.371-2.619-45.747-7.459c-18.597-6.254-35.482-16.221-49.791-29.028c-0.398-3.514-0.597-7.083-0.597-10.707
	c0-11.061,1.867-21.691,5.315-31.581c11.227,9.205,23.89,16.741,37.592,22.222c16.453,6.597,34.421,10.221,53.228,10.221
	c34.465,0,66.101-12.166,90.82-32.443C345.07,385.886,346.938,396.505,346.938,407.577z"/>
<path style="fill:#2197D8;" d="M205.057,447.313c-18.597-6.254-35.482-16.221-49.791-29.028c-0.398-3.514-0.597-7.083-0.597-10.707
	c0-11.061,1.867-21.691,5.315-31.581c11.227,9.205,23.89,16.741,37.592,22.221c-0.287,3.083-0.431,6.21-0.431,9.359
	C197.144,421.655,199.962,435.08,205.057,447.313z"/>
<path style="fill:#B3B3B3;" d="M281.655,316.514c2.088-3.017,3.934-6.177,5.525-9.47c3.79-7.801,6.166-16.277,6.95-25.061
	l2.763-30.774c0.906-10.111-2.895-20.056-10.31-26.984l-8.31-7.779c-8.906-8.332-13.194-20.476-11.492-32.553l-59.847,23.735
	c0.298,3.868-0.099,7.79-1.204,11.569c-8.475,28.951,19.028,89.439,21.658,95.129c0.144,0.287,0.21,0.431,0.21,0.431l13.26,16.575
	l-57.46,13.26c-0.84-1.006-1.68-2.011-2.497-3.017c-44.078-53.261-76.543-105.119-98.522-145.009
	C53.473,144.112,62.445,78.84,104.524,36.22c0.232-0.232,0.453-0.464,0.685-0.696c6.906-6.95,15.514-11.989,24.995-14.509
	c89.074-23.713,212.314-6.818,212.314-6.818s41.04,4.829,73.173,18.498c16.962,7.227,29.459,22.133,33.658,40.089l22.42,96.113
	c2.21,9.459,2.287,19.293,0.221,28.785l-16.984,78.101c-4.387,20.166-22.233,34.553-42.874,34.553l-11.05-28.73h7.492
	c13.923,0,24.973-11.713,24.155-25.614l-5.127-87.096l-53.04-27.625l-28.73,16.575c0,0,1.083,96.455-28.951,179.894
	c-0.287,0.807-0.586,1.624-0.884,2.431l-44.2-12.155C275.511,324.525,278.804,320.658,281.655,316.514z"/>
<path style="fill:#999999;" d="M125.475,196.566C96.568,144.112,105.54,78.84,147.619,36.22c0.232-0.232,0.453-0.464,0.685-0.696
	c6.906-6.95,15.514-11.989,24.995-14.509c29.953-7.974,63.766-11.353,95.461-12.33c-41.786-1.203-94.371,0.567-138.556,12.33
	c-9.481,2.519-18.089,7.558-24.995,14.509c-0.232,0.232-0.453,0.464-0.685,0.696C62.445,78.84,53.473,144.112,82.38,196.566
	c21.978,39.89,54.443,91.748,98.522,145.009c0.818,1.006,1.658,2.011,2.497,3.017l36.214-8.357
	C177.759,284.858,146.717,235.123,125.475,196.566z"/>
<g>
	<path style="fill:#333333;" d="M479.84,167.011l-22.426-96.108c-4.777-20.477-19.164-37.61-38.483-45.831
		c-32.438-13.804-72.716-18.778-75.36-19.094c-6.113-0.834-126.254-16.73-215.497,7.023c-10.826,2.882-20.765,8.651-28.742,16.679
		l-0.706,0.713c-21.907,22.188-35.741,50.26-40.005,81.18c-2.148,15.574-1.759,31.115,1.077,46.197
		c-5.694,25.419-11.688,27.771-11.736,27.782c-0.014,0-1.222-0.087-3.702-2.461c-3.307-3.167-8.553-3.053-11.717,0.252
		c-3.166,3.305-3.054,8.552,0.253,11.717c5.687,5.45,10.93,7.071,15.154,7.071c1.833,0,3.476-0.306,4.879-0.737
		c6.006-1.843,11.004-6.938,15.198-15.634c2.075,5.03,4.43,9.976,7.093,14.809c27.533,49.959,59.44,97.294,94.927,140.851
		c-15.292,18.638-23.66,41.85-23.66,66.156c0,57.578,46.844,104.422,104.422,104.422s104.422-46.844,104.422-104.422
		c0-27.162-10.184-52.528-28.792-72.015c25.058-72.838,27.487-152.447,27.679-172.923l20.654-11.915l44.839,23.353l4.848,82.4
		c0.26,4.42-1.27,8.628-4.306,11.849c-3.038,3.221-7.148,4.995-11.576,4.995h-7.487c-2.73,0-5.285,1.345-6.832,3.596
		c-1.545,2.251-1.883,5.118-0.903,7.666l11.05,28.73c1.231,3.2,4.305,5.313,7.735,5.313c24.36,0,45.794-17.277,50.97-41.079
		l16.978-78.101C482.396,188.817,482.311,177.601,479.84,167.011z M75.04,113.838c3.772-27.349,16.006-52.176,35.383-71.803
		l0.662-0.667c5.914-5.952,13.262-10.221,21.25-12.348c65.044-17.312,149.945-12.398,188.462-8.84
		c-4.107,2.701-7.588,6.336-10.097,10.658l-13.884,23.907c-5.633,9.7-5.742,21.812-0.285,31.611l41.019,73.647
		c-0.07,13.982-1.582,96.791-26.774,170.139l-23.955-6.588c8.807-11.839,14.235-25.941,15.567-40.83l2.756-30.781
		c1.14-12.732-3.559-25.041-12.893-33.773l-8.315-7.779c-6.926-6.479-10.271-15.952-8.948-25.342l8.337-59.193
		c0.639-4.533-2.518-8.724-7.051-9.363c-4.524-0.636-8.725,2.518-9.363,7.051l-7.665,54.421l-46.379,18.394
		c-0.173-0.471-0.351-0.94-0.544-1.406l-25.677-62.359c-1.744-4.232-6.589-6.252-10.819-4.507c-4.232,1.743-6.25,6.586-4.508,10.819
		l25.678,62.359c2.014,4.892,2.29,10.434,0.777,15.608c-9.505,32.483,19.047,94.464,22.334,101.426
		c0.276,0.583,0.62,1.134,1.023,1.638l5.029,6.285l-39.643,9.148c-36.314-43.997-68.894-92.015-96.883-142.8
		C76.315,168.403,71.269,141.178,75.04,113.838z M338.654,407.579c0,2.244-0.113,4.462-0.278,6.664
		c-24.408,20.816-55.376,32.243-87.569,32.243s-63.161-11.427-87.569-32.243c-0.166-2.202-0.278-4.42-0.278-6.664
		c0-5.984,0.619-11.884,1.791-17.639c25.171,17.346,55.282,26.788,86.056,26.788c30.787,0,60.911-9.45,86.089-26.811
		C338.055,395.659,338.654,401.566,338.654,407.579z M250.807,400.153c-29.156,0-57.643-9.51-80.872-26.888
		c3.102-7.308,7.199-14.198,12.229-20.489c0.409,0.062,0.82,0.104,1.238,0.104c0.62,0,1.244-0.07,1.864-0.212l57.46-13.26
		c2.777-0.641,5.029-2.663,5.964-5.354c0.936-2.692,0.423-5.674-1.357-7.899l-4.828-6.035c2.749-0.259,5.521-0.39,8.302-0.39
		c5.444,0,10.82,0.507,16.093,1.483c-0.264,0.259-0.519,0.525-0.788,0.779c-2.177,2.055-3.075,5.125-2.351,8.029
		c0.724,2.905,2.958,5.194,5.844,5.987l44.2,12.155c0.65,0.179,1.304,0.266,1.951,0.285c6.769,7.408,12.145,15.759,15.972,24.779
		C308.491,390.631,279.984,400.153,250.807,400.153z M213.682,221.527c0.792-2.706,1.292-5.476,1.506-8.258l43.479-17.243
		c1.537,10.015,6.371,19.385,13.944,26.469l8.315,7.779c5.581,5.22,8.39,12.579,7.71,20.191l-2.756,30.781
		c-0.81,9.041-3.533,17.709-7.891,25.495c-8.813-2.375-17.921-3.584-27.182-3.584c-6.268,0-12.495,0.564-18.595,1.665
		C223.085,283.796,207.801,241.625,213.682,221.527z M250.807,495.426c-37.384,0-69.368-23.482-82.03-56.463
		c24.311,15.657,52.718,24.098,82.03,24.098s57.719-8.441,82.03-24.098C320.175,471.944,288.191,495.426,250.807,495.426z
		 M463.888,195.924l-16.978,78.102c-3.133,14.411-15.001,25.317-29.249,27.589l-4.627-12.028c7.275-1.018,14.091-4.496,19.175-9.888
		c6.112-6.482,9.317-15.3,8.795-24.193l-4.211-71.587l5.398,3.175c1.319,0.777,2.767,1.146,4.195,1.146
		c2.84,0,5.607-1.461,7.152-4.086c2.32-3.945,1.003-9.025-2.941-11.345l-18.785-11.05c-0.075-0.044-0.154-0.078-0.23-0.12
		c-0.05-0.027-0.094-0.061-0.144-0.087l-47.93-24.963l3.705-29.643c0.568-4.542-2.654-8.683-7.196-9.251
		c-4.548-0.57-8.683,2.653-9.252,7.196l-3.908,31.269l-17.871,10.31l-37.971-68.178c-2.629-4.718-2.576-10.552,0.136-15.221
		l13.884-23.907c2.183-3.758,5.722-6.349,9.964-7.295c4.245-0.946,8.544-0.103,12.117,2.372l27.153,18.817
		c3.761,2.608,8.925,1.67,11.532-2.092c2.607-3.763,1.672-8.925-2.092-11.533l-18.898-13.095
		c13.972,2.83,32.004,7.336,47.632,13.987c14.472,6.158,25.25,18.998,28.832,34.346l22.426,96.107
		C465.615,178.988,465.68,187.684,463.888,195.924z"/>
	<path style="fill:#333333;" d="M431.79,101.535l-11.05-4.42c-4.248-1.701-9.073,0.366-10.773,4.617
		c-1.699,4.25,0.368,9.073,4.618,10.773l11.05,4.42c1.009,0.403,2.05,0.594,3.075,0.594c3.288,0,6.401-1.971,7.697-5.212
		C438.106,108.058,436.039,103.235,431.79,101.535z"/>
</g>
</svg>