<?xml version="1.0" encoding="iso-8859-1"?>
<!-- Uploaded to: SVG Repo, www.svgrepo.com, Generator: SVG Repo Mixer Tools -->
<svg version="1.1" id="Layer_1" xmlns="http://www.w3.org/2000/svg" xmlns:xlink="http://www.w3.org/1999/xlink" 
	 viewBox="0 0 512 512" xml:space="preserve">
<path style="fill:#8ECAC1;" d="M430.803,175.978c0-34.996-28.37-63.45-63.366-63.45h-50.76c-34.996,0-63.366,28.454-63.366,63.45
	H430.803z"/>
<rect x="315.552" y="66.137" style="fill:#FFAA7C;" width="53.017" height="46.386"/>
<g>
	<rect x="253.307" y="175.976" style="fill:#F2D59F;" width="177.496" height="77.738"/>
	<rect x="253.307" y="417.084" style="fill:#F2D59F;" width="177.496" height="84.714"/>
</g>
<rect x="253.307" y="253.714" style="fill:#FF7124;" width="177.496" height="163.37"/>
<g>
	<path style="fill:#4D3D36;" d="M243.112,501.801c0,5.633,4.566,10.199,10.199,10.199h177.492c5.633,0,10.199-4.566,10.199-10.199
		V175.978c0-36.755-27.033-67.303-62.237-72.774V66.137c0-5.633-4.566-10.199-10.199-10.199h-53.017
		c-5.633,0-10.199,4.566-10.199,10.199v37.066c-35.204,5.471-62.237,36.02-62.237,72.774L243.112,501.801L243.112,501.801z
		 M420.605,243.516H263.51v-57.339h157.094v57.339H420.605z M263.51,263.914h157.094v142.975H263.51V263.914z M325.747,76.337
		h32.619v25.992h-32.619V76.337z M316.677,122.726h50.76c25.834,0,47.425,18.551,52.188,43.052H264.489
		C269.253,141.279,290.843,122.726,316.677,122.726z M420.605,491.602H263.51v-64.314h157.094v64.314H420.605z"/>
	<path style="fill:#4D3D36;" d="M291.36,81.901c-1-1.879-2.504-3.315-4.255-4.235v-0.001L141.73,1.175
		c-4.982-2.622-11.152-0.708-13.775,4.277c-2.623,4.984-0.708,11.153,4.276,13.775l108.836,57.266H81.197
		c-5.633,0-10.199,4.566-10.199,10.199c0,5.633,4.566,10.199,10.199,10.199h160.27l-109.276,58.132
		c-4.972,2.646-6.86,8.821-4.214,13.794c1.834,3.446,5.363,5.411,9.013,5.411c1.616,0,3.256-0.385,4.781-1.196l145.375-77.336
		C292.118,93.051,294.006,86.874,291.36,81.901z"/>
	<path style="fill:#4D3D36;" d="M284.507,325.942c-5.633,0-10.199,4.566-10.199,10.199v49.482c0,5.633,4.566,10.199,10.199,10.199
		s10.199-4.566,10.199-10.199v-49.482C294.706,330.508,290.14,325.942,284.507,325.942z"/>
	<path style="fill:#4D3D36;" d="M284.507,291.518c-5.633,0-10.199,4.566-10.199,10.199v4.035c0,5.633,4.566,10.199,10.199,10.199
		s10.199-4.566,10.199-10.199v-4.035C294.706,296.085,290.14,291.518,284.507,291.518z"/>
</g>
</svg>