<?xml version="1.0" encoding="iso-8859-1"?>
<!-- Uploaded to: SVG Repo, www.svgrepo.com, Generator: SVG Repo Mixer Tools -->
<svg version="1.1" id="Layer_1" xmlns="http://www.w3.org/2000/svg" xmlns:xlink="http://www.w3.org/1999/xlink" 
	 viewBox="0 0 512 512" xml:space="preserve">
<polygon style="fill:#AACD4C;" points="181.162,196.923 70.885,196.923 141.777,118.154 244.177,118.154 "/>
<g>
	<rect x="70.882" y="196.923" style="fill:#6A86AC;" width="110.277" height="307.2"/>
	<polygon style="fill:#6A86AC;" points="259.931,244.405 330.823,196.923 244.177,118.154 244.177,173.292 	"/>
</g>
<polygon style="fill:#889EBD;" points="259.931,244.405 244.177,173.292 244.177,118.154 181.162,197.144 "/>
<rect x="141.774" y="63.015" style="fill:#6A86AC;" width="110.277" height="55.138"/>
<polygon style="fill:#95C11F;" points="330.823,504.123 181.162,504.123 181.162,196.923 259.931,244.185 330.823,196.923 "/>
<circle style="fill:#FFFFFF;" cx="255.989" cy="334.769" r="43.323"/>
<path style="fill:#1D1D1B;" d="M327.291,39.949l-14.751-5.532c7.668-20.448,27.494-34.215,49.332-34.255L448.963,0l0.029,15.754
	l-87.089,0.162C346.58,15.945,332.672,25.602,327.291,39.949z"/>
<rect x="302.263" y="46.409" transform="matrix(-0.9363 -0.3511 0.3511 -0.9363 578.3316 231.3356)" style="fill:#AACD4C;" width="15.753" height="33.649"/>
<path style="fill:#1D1D1B;" d="M288.421,143.602l20.241-53.975l-14.751-5.532l-17.726,47.27l-16.254-16.254V55.358H133.9v59.993
	L63.008,194.12V512H338.7V193.88L288.421,143.602z M236.3,189.267v15.754h47.262v-15.754h-12.265l11.049-29.462l36.114,36.114
	l-58.75,39.167l-66.767-40.06l55.02-68.775h0.829l21.317,21.318l-15.636,41.697L236.3,189.267L236.3,189.267z M88.571,189.267
	l56.714-63.015h82.503l-50.412,63.015H88.571z M244.177,71.113v39.385h-94.523V71.113H244.177z M78.762,496.246V205.021h94.523
	v291.226H78.762z M189.039,496.246V211.055l71.114,42.669l62.794-41.862v284.384H189.039z"/>
<g>
	<rect x="94.516" y="323.174" style="fill:#FFFFFF;" width="15.754" height="15.754"/>
	<rect x="118.143" y="323.174" style="fill:#FFFFFF;" width="15.754" height="15.754"/>
	<rect x="141.774" y="323.174" style="fill:#FFFFFF;" width="15.754" height="15.754"/>
	<rect x="94.516" y="220.774" style="fill:#FFFFFF;" width="63.015" height="15.754"/>
</g>
<g>
	<rect x="94.516" y="244.405" style="fill:#1D1D1B;" width="63.015" height="15.754"/>
	<rect x="94.516" y="268.036" style="fill:#1D1D1B;" width="63.015" height="15.754"/>
	<rect x="94.516" y="291.667" style="fill:#1D1D1B;" width="31.508" height="15.754"/>
	<path style="fill:#1D1D1B;" d="M255.993,386.19c-28.232,0-51.2-22.968-51.2-51.2c0-28.232,22.968-51.2,51.2-51.2
		s51.2,22.968,51.2,51.2C307.193,363.221,284.225,386.19,255.993,386.19z M255.993,299.544c-19.545,0-35.446,15.901-35.446,35.446
		c0,19.545,15.901,35.446,35.446,35.446s35.446-15.901,35.446-35.446C291.439,315.445,275.538,299.544,255.993,299.544z"/>
	<rect x="204.789" y="464.738" style="fill:#1D1D1B;" width="102.4" height="15.754"/>
</g>
</svg>