<?xml version="1.0" encoding="iso-8859-1"?>
<!-- Uploaded to: SVG Repo, www.svgrepo.com, Generator: SVG Repo Mixer Tools -->
<svg version="1.1" id="Layer_1" xmlns="http://www.w3.org/2000/svg" xmlns:xlink="http://www.w3.org/1999/xlink" 
	 viewBox="0 0 512 512" xml:space="preserve">
<path style="fill:#249189;" d="M434.331,453.846c0,27.918-22.632,50.55-50.55,50.55h-255.56c-27.918,0-50.55-22.632-50.55-50.55
	V111.889c0-27.918,22.632-50.55,50.55-50.55h255.559c27.918,0,50.55,22.632,50.55,50.55L434.331,453.846L434.331,453.846z"/>
<path style="fill:#F4521F;" d="M434.331,180.426c0,27.918-22.632,50.55-50.55,50.55h-255.56c-27.918,0-50.55-22.632-50.55-50.55
	v-68.537c0-27.918,22.632-50.55,50.55-50.55h255.559c27.918,0,50.55,22.632,50.55,50.55L434.331,180.426L434.331,180.426z"/>
<path style="fill:#FF8D68;" d="M411.519,165.259h-15.208v-53.371c0-6.909-5.621-12.53-12.53-12.53h-27.829V84.15h27.829
	c15.295,0,27.738,12.443,27.738,27.738V165.259z"/>
<g>
	<path style="fill:#249189;" d="M197.197,61.339V18.756c0-6.159-4.993-11.152-11.152-11.152h-33.12
		c-6.159,0-11.152,4.993-11.152,11.152v42.582H197.197z"/>
	<path style="fill:#249189;" d="M370.229,61.339V18.756c0-6.159-4.993-11.152-11.152-11.152h-33.12
		c-6.159,0-11.152,4.993-11.152,11.152v42.582H370.229z"/>
</g>
<g>
	<rect x="135.016" y="266.139" style="fill:#DFDBB2;" width="68.943" height="29.064"/>
	<rect x="308.042" y="266.139" style="fill:#DFDBB2;" width="68.943" height="29.064"/>
</g>
<g>
	<rect x="156.054" y="165.259" style="fill:#D6374C;" width="26.867" height="100.879"/>
	<path style="fill:#D6374C;" d="M156.051,295.203v23.15c0,7.419,6.014,13.434,13.434,13.434c7.419,0,13.434-6.014,13.434-13.434
		v-23.15H156.051z"/>
	<rect x="329.08" y="165.259" style="fill:#D6374C;" width="26.867" height="100.879"/>
	<path style="fill:#D6374C;" d="M329.083,295.203v23.15c0,7.419,6.014,13.434,13.434,13.434c7.419,0,13.434-6.014,13.434-13.434
		v-23.15H329.083z"/>
</g>
<path style="fill:#F4521F;" d="M377.326,432.412c0,17.358-14.071,31.43-31.43,31.43H166.104c-17.358,0-31.43-14.071-31.43-31.43
	v-32.781c0-17.358,14.071-31.43,31.43-31.43h179.791c17.358,0,31.43,14.071,31.43,31.43v32.781H377.326z"/>
<g>
	<path style="fill:#7A1B2E;" d="M383.78,53.735h-5.947V18.756C377.833,8.414,369.419,0,359.077,0h-33.12
		c-10.342,0-18.756,8.414-18.756,18.756v34.978H204.8V18.756C204.8,8.414,196.386,0,186.044,0h-33.12
		c-10.342,0-18.756,8.414-18.756,18.756v34.978h-5.947c-32.066,0-58.154,26.088-58.154,58.154v68.537v273.42
		c0,32.066,26.088,58.154,58.154,58.154h255.559c32.066,0,58.154-26.088,58.154-58.154v-273.42v-68.537
		C441.935,79.822,415.847,53.735,383.78,53.735z M322.408,18.756c0-1.957,1.592-3.549,3.549-3.549h33.12
		c1.957,0,3.548,1.592,3.548,3.549v34.978h-40.217V18.756z M149.376,18.756c0-1.957,1.592-3.549,3.549-3.549h33.12
		c1.957,0,3.549,1.592,3.549,3.549v34.978h-40.217L149.376,18.756L149.376,18.756z M85.274,111.889
		c0-23.681,19.265-42.946,42.946-42.946h5.947H204.8h102.4h70.633h5.947c23.681,0,42.946,19.265,42.946,42.946v68.537
		c0,23.68-19.265,42.945-42.946,42.945h-20.226v-65.715H321.48v35.3H242.82v15.208h78.658v15.208H190.522v-15.208h32.021v-15.208
		h-32.022v-35.3h-42.075v65.715h-20.226c-23.681,0-42.946-19.265-42.946-42.945V111.889z M336.687,302.807h11.659v15.546
		c0,3.215-2.616,5.83-5.83,5.83c-3.214,0-5.83-2.615-5.83-5.83V302.807z M321.479,287.598L321.479,287.598l-5.83,0.001v-13.856h5.83
		h42.075h5.83v13.856h-5.83v-0.001H321.479z M336.687,258.535v-19.956h11.659v19.956H336.687z M336.687,223.371v-50.508h11.659
		v50.508H336.687z M163.655,302.807h11.659v15.546c0,3.215-2.616,5.83-5.83,5.83c-3.214,0-5.83-2.615-5.83-5.83V302.807z
		 M148.447,287.598L148.447,287.598l-5.83,0.001v-13.856h5.83h42.075h5.83v13.856h-5.83v-0.001H148.447z M163.655,258.535v-19.956
		h11.659v19.956H163.655z M163.655,223.371v-50.508h11.659v50.508H163.655z M426.727,453.846c0,23.681-19.265,42.946-42.946,42.946
		h-255.56c-23.681,0-42.946-19.265-42.946-42.946V219.593c10.643,11.658,25.954,18.986,42.946,18.986h20.226v19.956h-21.038v44.272
		h21.038v15.546c0,11.6,9.438,21.038,21.038,21.038c11.6,0,21.038-9.438,21.038-21.038v-15.546h21.038v-44.272h-21.038v-19.956
		h130.957v19.956h-21.038v44.272h21.038v15.546c0,11.6,9.438,21.038,21.038,21.038c11.6,0,21.038-9.438,21.038-21.038v-15.546
		h21.038v-44.272h-21.038v-19.956h20.226c16.992,0,32.304-7.327,42.946-18.986v234.253H426.727z"/>
	<path style="fill:#7A1B2E;" d="M345.897,360.597H166.104c-21.523,0-39.034,17.51-39.034,39.034v32.781
		c0,21.523,17.51,39.034,39.034,39.034h179.791c21.523,0,39.034-17.51,39.034-39.034v-32.781
		C384.93,378.107,367.42,360.597,345.897,360.597z M369.722,432.412c0,13.138-10.688,23.826-23.826,23.826H166.104
		c-13.138,0-23.826-10.688-23.826-23.826v-32.781c0-13.138,10.688-23.826,23.826-23.826h179.791
		c13.138,0,23.826,10.688,23.826,23.826v32.781H369.722z"/>
</g>
<g>
	<rect x="218.488" y="408.414" style="fill:#FF8D68;" width="128.081" height="15.208"/>
	<rect x="165.432" y="408.414" style="fill:#FF8D68;" width="32.778" height="15.208"/>
</g>
</svg>