<?xml version="1.0" encoding="iso-8859-1"?>
<!-- Uploaded to: SVG Repo, www.svgrepo.com, Generator: SVG Repo Mixer Tools -->
<svg version="1.1" id="Layer_1" xmlns="http://www.w3.org/2000/svg" xmlns:xlink="http://www.w3.org/1999/xlink" 
	 viewBox="0 0 511.988 511.988" xml:space="preserve">
<path style="fill:#434A54;" d="M63.998,205.825c0,5.891-4.78,10.672-10.671,10.672s-10.664-4.781-10.664-10.672
	s4.773-10.656,10.664-10.656S63.998,199.934,63.998,205.825z"/>
<path style="fill:#E6E9ED;" d="M61.631,142.639c-0.023-0.031-2.327-3.094-3.437-6.969c-1.305-4.547-0.5-7.844,2.694-11.047
	c8.656-8.703,11.523-19.999,8.062-31.812c-2.328-7.953-6.812-13.562-7.391-14.266l0,0c-0.008,0-0.016-0.016-0.023-0.016l0,0
	c-1.952-2.359-4.905-3.859-8.21-3.859c-5.891,0-10.664,4.766-10.664,10.656c0,2.594,0.922,4.969,2.453,6.812l0,0
	c0.023,0.031,2.273,2.938,3.359,6.656c1.281,4.359,0.469,7.578-2.703,10.765c-8.648,8.671-11.516,20.046-8.086,32
	c2.328,8.093,6.828,13.843,7.336,14.468h0.008c1.953,2.422,4.945,3.969,8.297,3.969c5.891,0,10.671-4.781,10.671-10.671
	C63.998,146.795,63.107,144.467,61.631,142.639L61.631,142.639z"/>
<rect x="106.664" y="149.325" style="fill:#434A54;" width="85.33" height="69.999"/>
<path style="fill:#656D78;" d="M479.988,245.324L479.988,245.324H267.291v64h212.666c0.016,0,0.031,0,0.031,0
	c17.672,0,32-14.328,32-32S497.66,245.324,479.988,245.324z"/>
<rect x="210.844" y="245.325" style="fill:#CCD1D9;" width="119.8" height="85.34"/>
<g>
	<path style="fill:#434A54;" d="M362.648,255.995c5.905,0,10.671-4.781,10.671-10.672h-21.327
		C351.992,251.214,356.773,255.995,362.648,255.995z"/>
	<path style="fill:#434A54;" d="M405.318,255.995c5.891,0,10.672-4.781,10.672-10.672h-21.344
		C394.646,251.214,399.428,255.995,405.318,255.995z"/>
	<path style="fill:#434A54;" d="M447.989,255.995c5.891,0,10.656-4.781,10.656-10.672h-21.327
		C437.318,251.214,442.099,255.995,447.989,255.995z"/>
</g>
<path style="fill:#E6E9ED;" d="M298.649,394.665c0,23.561-19.093,42.654-42.663,42.654H42.663C19.101,437.319,0,418.225,0,394.665
	V245.324h298.649V394.665z"/>
<g>
	<path style="fill:#FFCE54;" d="M202.659,234.668c-5.891,0-10.664,4.765-10.664,10.656s4.773,10.671,10.664,10.671
		s10.664-4.781,10.664-10.672S208.55,234.668,202.659,234.668z"/>
	<path style="fill:#FFCE54;" d="M234.658,245.324v42.671c0,5.891,4.773,10.672,10.664,10.672s10.664-4.781,10.664-10.672v-42.671
		H234.658z"/>
</g>
<path style="fill:#656D78;" d="M191.995,149.326h-85.334c-5.89,0-10.663,4.781-10.663,10.671c0,5.891,4.773,10.672,10.663,10.672
	h85.334c5.891,0,10.664-4.781,10.664-10.672C202.659,154.107,197.886,149.326,191.995,149.326z"/>
<path style="fill:#A0D468;" d="M298.649,245.324c0,0-21.327-53.327-149.325-53.327C21.327,191.997,0,245.324,0,245.324l0,0H298.649
	L298.649,245.324z"/>
<g style="opacity:0.2;">
	<path style="fill:#FFFFFF;" d="M21.327,394.665V245.324c0,0,20.141-50.327,138.669-53.202c-3.477-0.078-7.031-0.125-10.672-0.125
		C21.327,191.997,0,245.324,0,245.324v149.341c0,23.561,19.102,42.654,42.663,42.654h21.335
		C40.429,437.319,21.327,418.225,21.327,394.665z"/>
</g>
</svg>