<?xml version="1.0" encoding="iso-8859-1"?>
<!-- Uploaded to: SVG Repo, www.svgrepo.com, Generator: SVG Repo Mixer Tools -->
<svg version="1.1" id="Layer_1" xmlns="http://www.w3.org/2000/svg" xmlns:xlink="http://www.w3.org/1999/xlink" 
	 viewBox="0 0 496.158 496.158" xml:space="preserve">
<path style="fill:#334D5C;" d="M0,248.085C0,111.062,111.07,0.003,248.076,0.003c137.012,0,248.082,111.059,248.082,248.082
	c0,137-111.07,248.07-248.082,248.07C111.07,496.155,0,385.085,0,248.085z"/>
<path style="fill:#EFE9D8;" d="M287.72,68.297c0,0-14.484-5.479-37.819-6.006v-0.043c-0.606,0-1.202,0.006-1.798,0.014
	c-0.597-0.008-1.192-0.014-1.8-0.014v0.043c-23.335,0.527-37.819,6.006-37.819,6.006v34.902h79.236V68.297z"/>
<rect x="208.479" y="71.549" style="fill:#EB9783;" width="79.24" height="34.902"/>
<path style="fill:#F9ECEA;" d="M310.972,117.47c-2.484-5.274-23.269-16.753-23.269-16.753h-79.248c0,0-20.785,11.479-23.269,16.753
	C178.895,130.829,317.263,130.829,310.972,117.47z"/>
<path style="fill:#EFDFDC;" d="M310.972,117.47H185.186c-6.291,13.36-7.92,67.622-7.115,126.609h140.016
	C318.891,185.092,317.263,130.829,310.972,117.47z"/>
<rect x="249.449" y="167.969" style="fill:#603F26;" width="21.409" height="40.16"/>
<path style="fill:#F4F2E9;" d="M270.6,165.484c0-26.267-10.146-32.283-22.664-32.283c-12.518,0-22.665,6.017-22.665,32.283
	c0,8.885,1.591,11.442,3.97,16.815c5.239,11.822,14.306,18.253,18.695,18.253c4.391,0,13.457-6.432,18.693-18.253
	C269.011,176.926,270.6,174.369,270.6,165.484z"/>
<path style="fill:#FFFFFF;" d="M225.271,165.484c0,8.885,1.591,11.442,3.97,16.815c5.196,11.725,14.152,18.14,18.581,18.244v-67.34
	C235.358,133.239,225.271,139.298,225.271,165.484z"/>
<path style="fill:#49210D;" d="M225.549,232.268c0,0,0.236-0.077,0.583-0.282c-0.02,0.003-0.034,0.006-0.034,0.006L225.549,232.268z
	"/>
<path style="fill:#845938;" d="M240.548,145.706l0.758-14.305c-12.553,0-22.545,7.766-26.619,27.235
	c-1.023,4.894-3.883,26.95,9.236,54.42c6.935,14.525,3.954,17.901,2.209,18.93c0.875-0.181,19.641-4.236,12.379-21.64
	c-0.734-1.761,1.342-13.515-0.757-15.477c-0.099-0.093-0.198-0.225-0.296-0.386c-2.995-3.008-5.96-7.097-8.217-12.185
	c-0.9-2.037-1.689-3.671-2.32-5.395C225.884,174.077,232.875,150.252,240.548,145.706z"/>
<path style="fill:#F4F2E9;" d="M289.638,220.062c-1.723-6.425-14.237-11.824-30.951-13.487c-0.254-0.41-2.99-5.175,0.302-15.105
	h-22.104c3.23,9.736,0.656,14.518,0.315,15.087c-16.765,1.641-29.236,7.057-30.964,13.505c-0.928,3.455-1.979,10-2.878,16.348
	l91.13,8.743C293.587,238.808,290.563,223.517,289.638,220.062z"/>
<path style="fill:#FFFFFF;" d="M236.884,191.47c3.23,9.736,0.656,14.518,0.315,15.087c-16.765,1.641-29.236,7.057-30.964,13.505
	c-0.928,3.455-1.979,10-2.878,16.348l44.465,4.266v-49.207L236.884,191.47L236.884,191.47z"/>
<path style="fill:#EB9783;" d="M248.933,237.141c-30.312-9.682-54.363-9.817-71.011-7.473c0,0.067,0.001,0,0.001,0.067
	c0,79.724,6.027,173.969,10.677,188.664c3.088,9.756,5.894,15.512,28.23,15.512h30.852h0.793h30.852
	c22.338,0,25.144-5.755,28.23-15.512c4.361-13.78,9.459-97.521,10.521-173.636C301.886,246.952,278.6,246.618,248.933,237.141z"/>
<g>
	<path style="fill:#E0BF36;" d="M318.237,229.349L318.237,229.349c0,0.061-0.001,0.123-0.001,0.184
		C318.236,229.472,318.237,229.41,318.237,229.349z"/>
	<path style="fill:#E0BF36;" d="M318.079,244.763c0-0.016,0-0.03,0-0.045C318.079,244.732,318.079,244.747,318.079,244.763
		L318.079,244.763z"/>
	<path style="fill:#E0BF36;" d="M177.887,221.925c0-0.003,0-0.008,0-0.011C177.887,221.917,177.887,221.921,177.887,221.925z"/>
</g>
<path style="fill:#EA4949;" d="M318.175,236.82c0.023-2.441,0.045-4.871,0.062-7.288c0-0.061,0.001-0.123,0.001-0.184
	c-16.198,2.214-39.539,1.909-69.304-7.599c-30.336-9.69-54.401-9.817-71.051-7.465c-0.004,2.522-0.003,5.066,0.004,7.629
	c0,0.003,0,0.008,0,0.011c0.007,2.563,0.019,5.145,0.036,7.743c16.647-2.344,40.699-2.209,71.011,7.473
	c29.667,9.478,52.952,9.812,69.146,7.622c0-0.016,0-0.03,0-0.045c0.035-2.515,0.064-5.02,0.091-7.515
	C318.172,237.075,318.173,236.948,318.175,236.82z"/>
<path style="fill:#775030;" d="M240.548,145.706c0,0,5.873,4.355,9.791,7.546c10.688,8.701,16.799,16.616,17.87,26.271
	c0.685,6.182-4.159,16.625-6.221,20.106c-1.889,3.193-5.209,7.639-5.944,9.4c-7.433,17.817,13.811,23.122,13.811,23.122l0.6,0.119
	c0,0-8.561-2.815,1.624-19.212c1.579-2.542,7.345-8.395,9.656-15.913c4.089-13.292,2.334-25.218,0.771-31.276
	c-4.11-15.929-6.598-21.951-16.569-28.403c-7.323-4.738-11.747-6.062-24.63-6.062L240.548,145.706z"/>
<path style="fill:#EFE9D8;" d="M259.05,70.946c0,4.934-4.912,8.933-10.971,8.933s-10.971-3.999-10.971-8.933H259.05z"/>
<g>
	<path style="fill:#FFFFFF;" d="M286.656,305.944h-77.153c-1.719,0-3.111-1.393-3.111-3.111s1.393-3.111,3.111-3.111h77.153
		c1.718,0,3.11,1.393,3.11,3.111C289.767,304.552,288.374,305.944,286.656,305.944z"/>
	<path style="fill:#FFFFFF;" d="M286.656,286.656h-77.153c-1.719,0-3.111-1.393-3.111-3.111s1.393-3.111,3.111-3.111h77.153
		c1.718,0,3.11,1.393,3.11,3.111S288.374,286.656,286.656,286.656z"/>
	<path style="fill:#FFFFFF;" d="M286.656,325.232h-77.153c-1.719,0-3.111-1.393-3.111-3.111c0-1.719,1.393-3.111,3.111-3.111h77.153
		c1.718,0,3.11,1.392,3.11,3.111C289.767,323.84,288.374,325.232,286.656,325.232z"/>
</g>
</svg>