<?xml version="1.0" encoding="iso-8859-1"?>
<!-- Uploaded to: SVG Repo, www.svgrepo.com, Generator: SVG Repo Mixer Tools -->
<!DOCTYPE svg PUBLIC "-//W3C//DTD SVG 1.1//EN" "http://www.w3.org/Graphics/SVG/1.1/DTD/svg11.dtd">
<svg version="1.1" id="Capa_1" xmlns="http://www.w3.org/2000/svg" xmlns:xlink="http://www.w3.org/1999/xlink" 
	 viewBox="0 0 512 512" xml:space="preserve">
<g>
	<rect x="200" y="32" style="fill:#FFFFFF;" width="48" height="16"/>
	<path style="fill:#003B54;" d="M400,104c0-44.113-35.891-80-80-80h-40v-8c0-8.836-7.164-16-16-16h-80c-8.836,0-16,7.164-16,16v48
		c0,8.836,7.164,16,16,16h8v16h-64c-8.836,0-16,7.164-16,16v81.578c0,14.398,7.148,27.758,19.133,35.738
		c3.047,2.031,4.867,5.434,4.867,9.105v35.156c0,3.672-1.82,7.074-4.867,9.105c-11.984,7.98-19.133,21.34-19.133,35.738V496
		c0,8.836,7.164,16,16,16h192c8.836,0,16-7.164,16-16V318.422c0-14.398-7.148-27.758-19.133-35.738
		c-3.047-2.031-4.867-5.434-4.867-9.105v-35.156c0-3.672,1.82-7.074,4.867-9.105c11.984-7.98,19.133-21.34,19.133-35.738v-11.19
		C372.469,174.955,400,142.634,400,104z M200,32h48v16h-48V32z M144,128h64h32h64v65.578c0,3.672-1.82,7.074-4.867,9.105
		c-5.27,3.508-9.535,8.098-12.738,13.316H161.605c-3.203-5.219-7.469-9.808-12.738-13.316c-3.047-2.031-4.867-5.434-4.867-9.105V128
		z M168,264v-16h112v16H168z M304,480H144V318.422c0-3.672,1.82-7.074,4.867-9.105c5.27-3.508,9.535-8.098,12.738-13.316h124.789
		c3.203,5.219,7.469,9.808,12.738,13.316c3.047,2.031,4.867,5.434,4.867,9.105V480z M336,149.2V112c0-8.836-7.164-16-16-16h-64V80h8
		c8.836,0,16-7.164,16-16v-8h40c26.469,0,48,21.531,48,48C368,124.852,354.613,142.589,336,149.2z"/>
	<g>
		<path style="fill:#6EBF5D;" d="M208,128h-64v65.578c0,3.672,1.82,7.074,4.867,9.105c5.27,3.508,9.535,8.098,12.738,13.316h124.789
			c3.203-5.219,7.469-9.808,12.738-13.316c3.047-2.031,4.867-5.434,4.867-9.105V128h-64H208z"/>
		<path style="fill:#6EBF5D;" d="M304,318.422c0-3.672-1.82-7.074-4.867-9.105c-5.27-3.508-9.535-8.098-12.738-13.316H161.605
			c-3.203,5.219-7.469,9.808-12.738,13.316c-3.047,2.031-4.867,5.434-4.867,9.105V480h160V318.422z"/>
	</g>
	<rect x="168" y="248" style="fill:#FFFFFF;" width="112" height="16"/>
</g>
</svg>