<?xml version="1.0" encoding="iso-8859-1"?>
<!-- Uploaded to: SVG Repo, www.svgrepo.com, Generator: SVG Repo Mixer Tools -->
<svg version="1.1" id="Layer_1" xmlns="http://www.w3.org/2000/svg" xmlns:xlink="http://www.w3.org/1999/xlink" 
	 viewBox="0 0 512 512" xml:space="preserve">
<path style="fill:#FAC15C;" d="M280.017,187.804h-48.034c-30.949,0-56.038-25.089-56.038-56.038v-3.853
	c0-30.949,25.089-56.038,56.038-56.038h48.034c30.949,0,56.038,25.089,56.038,56.038v3.853
	C336.055,162.714,310.966,187.804,280.017,187.804z"/>
<path style="fill:#F9B233;" d="M336.055,504.17h-160.11V230.952c0-21.537,17.459-38.996,38.996-38.996h82.117
	c21.537,0,38.996,17.459,38.996,38.996V504.17z"/>
<rect x="175.941" y="400.1" style="fill:#ED7149;" width="160.105" height="64.044"/>
<g>
	<path style="fill:#1D1D1B;" d="M315.921,186.766c16.933-12.354,27.964-32.333,27.964-54.85c0-37.424-30.447-67.871-67.871-67.871
		h-40.028c-37.424,0-67.871,30.447-67.871,67.871c0,22.517,11.032,42.498,27.964,54.85c-16.308,6.031-27.964,21.734-27.964,40.112
		V512h175.769V226.879C343.885,208.5,332.227,192.796,315.921,186.766z M183.775,131.915c0-28.79,23.422-52.212,52.212-52.212
		h40.028c28.79,0,52.212,23.422,52.212,52.212s-23.421,52.212-52.212,52.212h-40.028
		C207.197,184.127,183.775,160.705,183.775,131.915z M301.134,199.786c14.938,0,27.093,12.154,27.093,27.093V392.27H183.775V226.879
		c0-14.939,12.154-27.093,27.094-27.093H301.134z M328.226,407.927v48.386H183.775v-48.386H328.226z M183.775,496.341v-24.369
		h144.451v24.369H183.775z"/>
	<polygon style="fill:#1D1D1B;" points="304.033,40.028 263.829,40.028 263.829,15.659 280.016,15.659 280.016,0 231.984,0 
		231.984,15.659 248.171,15.659 248.171,40.028 207.968,40.028 207.968,55.686 304.033,55.686 	"/>
</g>
<g>
	<rect x="199.962" y="360.243" style="fill:#FFFFFF;" width="16.01" height="15.659"/>
	<rect x="223.982" y="360.243" style="fill:#FFFFFF;" width="16.01" height="15.659"/>
	<rect x="247.992" y="360.243" style="fill:#FFFFFF;" width="16.012" height="15.659"/>
	<rect x="199.962" y="424.287" style="fill:#FFFFFF;" width="112.074" height="15.659"/>
</g>
</svg>