<?xml version="1.0" encoding="utf-8"?><!-- Uploaded to: SVG Repo, www.svgrepo.com, Generator: SVG Repo Mixer Tools -->
<svg width="800px" height="800px" viewBox="0 0 400 400" fill="none" xmlns="http://www.w3.org/2000/svg">
<path d="M221.892 125.818C246.011 100.435 292.093 123.069 278.56 159.053C269.678 182.661 223.557 212.23 213 149.083" stroke="#000000" stroke-opacity="0.9" stroke-width="16" stroke-linecap="round" stroke-linejoin="round"/>
<path d="M127.896 62.0513C123.483 66.4901 145.608 101.025 194.272 165.656C156.974 137.68 127.908 121.069 107.073 115.821" stroke="#000000" stroke-opacity="0.9" stroke-width="16" stroke-linecap="round" stroke-linejoin="round"/>
<path d="M193.5 165.5C149.5 183 126.294 228.142 132.612 232.835C156.878 250.869 210.383 246.165 213.281 252.9C216.832 261.153 214.937 267.962 208.037 290.754C206.076 297.231 202.943 304.061 200.17 310.24C197.514 316.166 194.032 324.117 189.682 328.428L196.237 336.949" stroke="#000000" stroke-opacity="0.9" stroke-width="16" stroke-linecap="round" stroke-linejoin="round"/>
<path d="M213.649 256.828C198.236 285.621 179.141 306.83 147.212 312.084" stroke="#000000" stroke-opacity="0.9" stroke-width="16" stroke-linecap="round" stroke-linejoin="round"/>
<path d="M147.212 310.702L140.291 321.754" stroke="#000000" stroke-opacity="0.9" stroke-width="16" stroke-linecap="round" stroke-linejoin="round"/>
</svg>