<?xml version="1.0" encoding="iso-8859-1"?>
<!-- Uploaded to: SVG Repo, www.svgrepo.com, Generator: SVG Repo Mixer Tools -->
<svg version="1.1" id="Layer_1" xmlns="http://www.w3.org/2000/svg" xmlns:xlink="http://www.w3.org/1999/xlink" 
	 viewBox="0 0 508 508" xml:space="preserve">
<rect x="221.572" y="102.266" transform="matrix(-0.707 0.7072 -0.7072 -0.707 555.6813 151.9126)" style="fill:#E0F2F1;" width="49.6" height="177.598"/>
<path style="fill:#E0E0E0;" d="M108,198.2l54-54l0,0l0,0l36.8-36.4l-14.4-14.4L94,183.8L108,198.2
	C107.6,198.2,107.6,198.2,108,198.2z"/>
<path style="fill:#EEEEEE;" d="M310.8,401.4c5.6,5.6,14.8,5.6,20.4,0l16.4-16.4l0,0l37.6-37.6l0,0l16-16c2.8-2.8,4.4-6.4,4.4-10.4
	s-1.6-7.6-4.4-10.4l-4-4L306.8,397L310.8,401.4z"/>
<rect x="130.099" y="208.588" transform="matrix(-0.7071 -0.7071 0.7071 -0.7071 219.1178 527.9377)" style="fill:#BCAAA4;" width="177.598" height="20"/>
<rect x="252.842" y="271.291" transform="matrix(-0.7071 0.7071 -0.7071 -0.7071 764.8159 316.5847)" style="fill:#FF8A65;" width="127.999" height="90.799"/>
<path style="fill:#B2DFDB;" d="M146,165.8L110.8,201l0,0l125.6,125.6l35.2-35.2L146,165.8z"/>
<polygon style="fill:#4DB6AC;" points="412,397 386,352.2 352.4,385.8 397.2,411.8 "/>
<polygon style="fill:#FFCDD2;" points="352.4,385.8 386,352.2 386,352.2 "/>
<g>
	<path style="fill:#BCAAA4;" d="M77.6,70.2c-0.8-0.8-0.8-2-0.4-2.8c10.8-15.6,9.2-36.8-4.4-50C65.2,9.8,55.6,5.8,45.2,5.8
		c-10.4,0-20.4,4-27.6,11.6C10.4,25,6,34.6,6,45s4,20.4,11.6,27.6s17.2,11.6,27.6,11.6c8,0,16-2.4,22.4-7.2c0.4-0.4,0.8-0.4,1.2-0.4
		s1.2,0.4,1.6,0.8l50,50l3.6-3.6l3.6-3.6L77.6,70.2z M64.8,64.2c-5.2,5.2-12,8-19.2,8s-14-2.8-19.2-8c-10.8-10.8-10.8-28,0-38.4
		c5.2-5.2,12-8,19.2-8s14,2.8,19.2,8C75.2,36.2,75.2,53.8,64.8,64.2z"/>
	<path style="fill:#BCAAA4;" d="M77.2,174.6c-6.4-4.4-14-6.4-21.6-6.4c-10.4,0-20.4,4-27.6,11.6c-7.6,7.6-11.6,17.2-11.6,27.6
		s4,20.4,11.6,27.6c7.2,7.6,17.2,11.6,27.6,11.6c10.4,0,20.4-4,27.6-11.6c13.2-13.2,15.2-34,5.2-49.2c-0.4-0.8-0.4-2,0.4-2.4
		l94.8-94.8c0.8-0.8,1.6-0.8,2.8-0.4c6.4,4.4,14,6.4,21.6,6.4c10.4,0,20.4-4,27.6-11.6c15.2-15.2,15.2-40,0-55.6
		c-7.2-7.6-17.2-11.6-27.6-11.6c-10.4,0-20.4,4-27.6,11.6c-13.2,13.2-15.2,34-4.8,49.2c0.4,0.8,0.4,2-0.4,2.8L128,126.6l-5.2,5.2
		l0,0l-42.4,42.4C78.8,175,78,175,77.2,174.6z M188,36.2c5.2-5.2,12-8,19.2-8s14,2.8,19.2,8c10.8,10.8,10.8,28,0,38.8
		c-5.2,5.2-12,8-19.2,8s-14-2.8-19.2-8C177.2,64.2,177.2,46.6,188,36.2z M74.8,226.6c-5.2,5.2-12,8-19.2,8s-14-2.8-19.2-8
		c-10.8-10.8-10.8-28,0-38.4c5.2-5.2,12-8,19.2-8s14,2.8,19.2,8C85.2,198.6,85.2,215.8,74.8,226.6z"/>
</g>
<polygon style="fill:#FFCDD2;" points="127.2,127 122,131.8 122,131.8 "/>
<path d="M504,507.8c-1.2,0-2-0.4-2.8-1.2l-98-98c-1.6-1.6-1.6-4,0-5.6s4-1.6,5.6,0l98,98c1.6,1.6,1.6,4,0,5.6
	C506,507.4,504.8,507.8,504,507.8z"/>
<path d="M397.6,418.6c-0.8,0-1.2,0-2-0.4l-48.8-28c-1.2-0.8-2-1.6-2-2.8s0.4-2.4,1.2-3.2l37.6-37.6c0.8-0.8,2-1.2,3.2-1.2
	s2.4,0.8,2.8,2l28,48.8c0.8,1.6,0.8,3.6-0.8,4.8L400,417.8C399.6,418.2,398.8,418.6,397.6,418.6z M355.2,385.4l41.6,24l12.8-12.8
	l-24-41.6L355.2,385.4z"/>
<path d="M291.2,277.8c-1.2,0-2-0.4-2.8-1.2l-128-128c-1.6-1.6-1.6-4,0-5.6s4-1.6,5.6,0l128,128c1.6,1.6,1.6,4,0,5.6
	C293.2,277.4,292.4,277.8,291.2,277.8z"/>
<path d="M274,295c-1.2,0-2-0.4-2.8-1.2l-128-128c-1.6-1.6-1.6-4,0-5.6s4-1.6,5.6,0l128,128c1.6,1.6,1.6,4,0,5.6
	C276,294.6,275.2,295,274,295z"/>
<path d="M245.2,325c-1.2,0-2-0.4-2.8-1.2c-1.6-1.6-1.6-4,0-5.6l76.4-76.4c1.6-1.6,4-1.6,5.6,0s1.6,4,0,5.6L248,323.8
	C247.2,324.6,246,325,245.2,325z"/>
<path d="M303.6,401c-1.2,0-2-0.4-2.8-1.2c-1.6-1.6-1.6-4,0-5.6l93.6-93.6c1.6-1.6,4-1.6,5.6,0s1.6,4,0,5.6l-93.6,93.6
	C305.6,400.6,304.8,401,303.6,401z"/>
<path d="M320.8,411.4c-5.2,0-10.4-2-14.4-6L87.6,186.6c-1.6-1.6-1.6-4,0-5.6s4-1.6,5.6,0L312,399.8c4.8,4.8,12.8,4.8,17.6,0l70-70
	c4.8-4.8,4.8-12.8,0-17.6L180.8,93.4c-1.6-1.6-1.6-4,0-5.6s4-1.6,5.6,0l218.8,218.8c8,8,8,21.2,0,29.2l-70,70
	C331.2,409.4,326,411.4,320.8,411.4z"/>
<path d="M45.2,74.2C29.2,74.2,16,61,16,45s13.2-29.2,29.2-29.2S74.4,29,74.4,45S61.6,74.2,45.2,74.2z M45.2,23.8
	C33.6,23.8,24,33.4,24,45s9.6,21.2,21.2,21.2S66.4,56.6,66.4,45S57.2,23.8,45.2,23.8z"/>
<path d="M55.6,236.6c-16,0-29.2-13.2-29.2-29.2s13.2-29.2,29.2-29.2s29.2,13.2,29.2,29.2S71.6,236.6,55.6,236.6z M55.6,186.2
	c-11.6,0-21.2,9.6-21.2,21.2s9.6,21.2,21.2,21.2s21.2-9.6,21.2-21.2S67.2,186.2,55.6,186.2z"/>
<path d="M55.6,252.6c-11.6,0-23.2-4.4-32-13.2c-8.4-8.4-13.2-20-13.2-32s4.8-23.6,13.2-32c14.4-14.4,36.8-17.2,54-7.6L168,77.4
	c-10-17.6-6.8-39.6,7.6-54l0,0l0,0c8.4-8.4,20-13.2,32-13.2s23.6,4.8,32,13.2c8.4,8.4,13.2,20,13.2,32s-4.8,23.6-13.2,32
	c-14.4,14.4-36.8,17.2-54,7.6l-90.4,90.4c10,17.6,6.8,39.6-7.6,54C78.4,248.2,67.2,252.6,55.6,252.6z M55.6,170.2
	c-9.6,0-19.2,3.6-26.4,10.8c-7.2,7.2-10.8,16.4-10.8,26.4s4,19.2,10.8,26.4c14.4,14.4,38,14.4,52.8,0c12.4-12.4,14.4-32,4.8-46.8
	c-1.2-1.6-0.8-3.6,0.4-5.2L182,87c1.2-1.2,3.6-1.6,5.2-0.4c14.8,9.6,34.4,7.6,46.8-4.8c7.2-7.2,10.8-16.4,10.8-26.4
	s-4-19.2-10.8-26.4c-7.2-7.2-16.4-10.8-26.4-10.8s-19.2,4-26.4,10.8l0,0c-12.4,12.4-14.4,32-4.8,46.8c1.2,1.6,0.8,3.6-0.4,5.2
	l-94.8,94.8c-1.2,1.2-3.6,1.6-5.2,0.4C69.6,172.2,62.4,170.2,55.6,170.2z"/>
<path d="M207.2,84.6c-16,0-29.2-13.2-29.2-29.2s13.2-29.2,29.2-29.2s29.2,13.2,29.2,29.2C236.4,71.4,223.2,84.6,207.2,84.6z
	 M207.2,34.2c-11.6,0-21.2,9.6-21.2,21.2s9.6,21.2,21.2,21.2s21.2-9.6,21.2-21.2S218.8,34.2,207.2,34.2z"/>
<path d="M120.4,134.6c-1.2,0-2-0.4-2.8-1.2L68.4,84.2c-17.6,10.4-40.4,8-55.2-6.8c-17.6-17.6-17.6-46.4,0-64s46.4-17.6,64,0l0,0
	C92,28.2,94.8,51,84,68.6l49.2,49.2c1.6,1.6,1.6,4,0,5.6l-10,10C122.8,134.2,121.6,134.6,120.4,134.6z M68.8,75c1.2,0,2,0.4,2.8,1.2
	l48.8,48.8l4.4-4.4L76,71.8c-1.2-1.2-1.6-3.6-0.4-5.2c10.4-14.8,8.8-34.8-4-47.6c-14.4-14.4-38-14.4-52.8,0
	c-14.4,14.4-14.4,38,0,52.8c12.8,12.8,32.8,14.4,47.6,4C67.2,75,68,75,68.8,75z"/>
<path d="M109.2,203.8c-1.2,0-2-0.4-2.8-1.2c-1.6-1.6-1.6-4,0-5.6l90.4-90.4c1.6-1.6,4-1.6,5.6,0s1.6,4,0,5.6L112,202.6
	C111.2,203.4,110.4,203.8,109.2,203.8z"/>
</svg>