<?xml version="1.0" encoding="iso-8859-1"?>
<!-- Uploaded to: SVG Repo, www.svgrepo.com, Generator: SVG Repo Mixer Tools -->
<svg version="1.1" id="Layer_1" xmlns="http://www.w3.org/2000/svg" xmlns:xlink="http://www.w3.org/1999/xlink" 
	 viewBox="0 0 508 508" xml:space="preserve">
<rect x="159.444" y="228.749" transform="matrix(0.7071 0.7071 -0.7071 0.7071 238.7767 -98.9595)" style="fill:#BCAAA4;" width="158.798" height="20"/>
<rect x="244.451" y="139.237" transform="matrix(-0.7071 0.7071 -0.7071 -0.7071 596.4849 190.1999)" style="fill:#EEEEEE;" width="28.8" height="158.799"/>
<rect x="204.2" y="179.236" transform="matrix(0.707 -0.7072 0.7072 0.707 -118.8602 230.3735)" style="fill:#E0E0E0;" width="28.8" height="158.799"/>
<path style="fill:#E57373;" d="M337.6,398.4c5.6,5.6,14.8,5.6,20,0l1.6-1.6l0,0l25.2-25.2L398,358c2.8-2.8,4-6.4,4-10
	c0-4-1.6-7.6-4-10l-70.4-70.4l-60.8,60.8L337.6,398.4z"/>
<polygon style="fill:#4DB6AC;" points="423.2,408.8 397.6,364.4 387.6,374.8 364.4,397.6 408.8,423.2 "/>
<polygon style="fill:#FFCDD2;" points="364.4,397.6 364.4,397.6 387.6,374.8 "/>
<path style="fill:#78909C;" d="M228.8,130.8c1.2-1.2,1.6-2.8,1.6-4.4s-0.8-3.2-1.6-4.4c-1.2-1.2-2.8-1.6-4.4-1.6
	c-1.6,0-3.2,0.8-4.4,1.6l-97.6,97.6c-1.2,1.2-1.6,2.8-1.6,4.4s0.8,3.2,1.6,4.4c2.4,2.4,6.4,2.4,8.8,0l16.8-16.8l63.6-63.6
	L228.8,130.8z"/>
<path style="fill:#BCAAA4;" d="M112,100.8c18-23.2,15.6-56.8-5.2-77.6C95.6,12,80.8,6,65.2,6s-30.4,6-41.6,17.2
	C12.4,34.4,6.4,49.2,6.4,64.8s6,30.4,17.2,41.6s26,17.2,41.6,17.2c12.8,0,25.6-4.4,36-12c0.4-0.4,0.8-0.4,1.2-0.4s1.2,0.4,1.6,0.4
	l60,60l8.8-8.8l-60-60C111.2,102.8,111.2,101.6,112,100.8z M98.4,98.4c-8.8,8.8-20.8,13.6-33.2,13.6S40.8,107.2,32,98.4
	C13.6,80,13.6,50.4,32,32c8.8-8.8,20.8-13.6,33.2-13.6S89.6,23.2,98.4,32c8.8,8.8,13.6,20.8,13.6,33.2
	C112,77.6,107.2,89.2,98.4,98.4z"/>
<path d="M65.2,112c-12.4,0-24.4-4.8-33.2-13.6C13.6,80,13.6,50.4,32,32c8.8-8.8,20.8-13.6,33.2-13.6S89.6,23.2,98.4,32l0,0
	c8.8,8.8,13.6,20.8,13.6,33.2c0,12.4-4.8,24.4-13.6,33.2C89.2,107.2,77.6,112,65.2,112z M65.2,26c-10.4,0-20,4-27.6,11.6
	c-7.2,7.2-11.2,17.2-11.2,27.6s4,20,11.2,27.6c7.2,7.2,17.2,11.6,27.6,11.6s20-4,27.6-11.6c7.2-7.2,11.6-17.2,11.6-27.6
	s-4-20-11.6-27.6S75.6,26,65.2,26z"/>
<path d="M504,508c-1.2,0-2-0.4-2.8-1.2l-86.4-86.4c-1.6-1.6-1.6-4,0-5.6s4-1.6,5.6,0l86.4,86.4c1.6,1.6,1.6,4,0,5.6
	C506,507.6,505.2,508,504,508z"/>
<path d="M409.2,430c-0.8,0-1.2,0-2-0.4l-48-27.6c-1.2-0.8-2-1.6-2-2.8s0.4-2.4,1.2-3.2l37.2-37.2c0.8-0.8,2-1.2,3.2-1.2
	s2.4,0.8,2.8,2l27.6,48c0.8,1.6,0.8,3.6-0.8,4.8l-16.8,16.8C411.2,429.6,410,430,409.2,430z M367.6,397.2l40.8,23.6l12.4-12.4
	l-23.6-40.8L367.6,397.2z"/>
<path d="M304.4,291.6c-1.2,0-2-0.4-2.8-1.2L187.2,176c-1.6-1.6-1.6-4,0-5.6s4-1.6,5.6,0l114.4,114.4c1.6,1.6,1.6,4,0,5.6
	C306.4,291.2,305.6,291.6,304.4,291.6z"/>
<path d="M287.6,308.4c-1.2,0-2-0.4-2.8-1.2L170.4,192.8c-1.6-1.6-1.6-4,0-5.6s4-1.6,5.6,0l114.4,114.4c1.6,1.6,1.6,4,0,5.6
	C289.6,308,288.4,308.4,287.6,308.4z"/>
<path d="M273.2,323.6c-1.2,0-2-0.4-2.8-1.2c-1.6-1.6-1.6-4,0-5.6l46-46c1.6-1.6,4-1.6,5.6,0s1.6,4,0,5.6l-46,46
	C275.2,323.2,274.4,323.6,273.2,323.6z"/>
<path d="M348,408.8c-5.2,0-10.4-2-14.4-6L146.4,215.6c-1.6-1.6-1.6-4,0-5.6s4-1.6,5.6,0l187.2,187.2c4.8,4.8,12.8,4.8,17.6,0
	l40.8-40.8c4.8-4.8,4.8-12.8,0-17.6L210.4,151.6c-1.6-1.6-1.6-4,0-5.6s4-1.6,5.6,0l187.2,187.2c8,8,8,20.8,0,28.8l-40.8,40.8
	C358.4,406.8,353.2,408.8,348,408.8z"/>
<path d="M126.4,236.4c-3.2,0-6.4-1.2-8.4-3.6c-2.4-2.4-3.6-5.2-3.6-8.4s1.2-6.4,3.6-8.4l97.6-97.6c4.4-4.4,12.8-4.4,17.2,0l0,0l0,0
	l0,0c2.4,2.4,3.6,5.2,3.6,8.4c0,3.2-1.2,6.4-3.6,8.4l-97.6,97.6C132.8,234.8,130,236.4,126.4,236.4z M224.4,122
	c-1.2,0-2,0.4-2.8,1.2L124,220.8c-1.6,1.6-1.6,4.4,0,6s4.4,1.6,6,0l97.6-97.6c0.8-0.8,1.2-2,1.2-2.8s-0.4-2-1.2-2.8l0,0
	C226.4,122.8,225.6,122,224.4,122z"/>
<path d="M163.6,179.2c-1.2,0-2-0.4-2.8-1.2l-59.2-59.2c-25.6,17.6-60.4,14.4-82.4-7.6C6.8,98.8,0,82.4,0,65.2s6.8-33.6,19.2-46
	S48,0,65.2,0s33.6,6.8,46,19.2l0,0l0,0c22,22,25.2,56.8,7.6,82.4l59.2,59.2c0.8,0.8,1.2,1.6,1.2,2.8s-0.4,2-1.2,2.8L166.4,178
	C165.6,178.8,164.4,179.2,163.6,179.2z M102,109.6c1.2,0,2,0.4,2.8,1.2l58.8,58.8l6-6l-58.8-58.8c-1.6-1.6-1.6-3.6-0.4-5.2
	c17.2-22.4,15.2-54.8-4.8-74.8l0,0C94.8,14,80.4,8,65.2,8s-29.6,6-40.4,16.8C14,35.6,8,50,8,65.2c0,15.2,6,29.6,16.8,40.4
	c20,20,52.4,22.4,74.8,4.8C100.4,109.6,101.2,109.6,102,109.6z"/>
<path d="M65.2,114C38,114,16.4,92,16.4,65.2c0-27.2,22-48.8,48.8-48.8c27.2,0,48.8,22,48.8,48.8S92,114,65.2,114z M65.2,24
	c-22.4,0-40.8,18.4-40.8,40.8s18.4,40.8,40.8,40.8S106,87.2,106,64.8S87.6,24,65.2,24z"/>
</svg>