<?xml version="1.0" encoding="iso-8859-1"?>
<!-- Uploaded to: SVG Repo, www.svgrepo.com, Generator: SVG Repo Mixer Tools -->
<svg version="1.1" id="Layer_1" xmlns="http://www.w3.org/2000/svg" xmlns:xlink="http://www.w3.org/1999/xlink" 
	 viewBox="0 0 512 512" xml:space="preserve">
<path style="fill:#FFCF9B;" d="M201.307,144.96v338.834c0,9.687-7.926,17.613-17.613,17.613H59.206
	c-9.687,0-17.613-7.926-17.613-17.613V144.96H201.307z"/>
<path style="fill:#FF9F35;" d="M34.654,126.9V26.724c0-10.529,8.615-19.144,19.143-19.144h135.306
	c10.529,0,19.143,8.614,19.143,19.143V126.9L34.654,126.9z"/>
<path style="fill:#A5173F;" d="M225.165,144.961H19.851c-6.075,0-11.047-4.97-11.047-11.046v-5.407
	c0-6.075,4.97-11.047,11.047-11.047h205.313c6.075,0,11.047,4.97,11.047,11.047v5.407
	C236.211,139.989,231.241,144.961,225.165,144.961z"/>
<path style="fill:#FF9F35;" d="M444.098,311.058v167.084c0,14.452-11.825,26.277-26.277,26.277H286.18
	c-14.452,0-26.277-11.825-26.277-26.277V311.058H444.098z"/>
<path style="fill:#A5173F;" d="M451.79,311.058H255.752c-10.49,0-19.072-8.583-19.072-19.072l0,0
	c0-10.49,8.583-19.072,19.072-19.072H451.79c10.49,0,19.072,8.583,19.072,19.072l0,0C470.861,302.476,462.28,311.058,451.79,311.058
	z"/>
<rect x="259.901" y="362.493" style="fill:#FFCF9B;" width="184.193" height="65.016"/>
<g>
	<path style="opacity:0.32;fill:#A5173F;enable-background:new    ;" d="M422.874,311.058v23.757v65.015v50.638
		c0,14.452-11.825,26.277-26.277,26.277h-131.64c-1.728,0-3.416-0.174-5.053-0.496v1.893c0,14.452,11.825,26.277,26.277,26.277
		h131.64c14.452,0,26.277-11.825,26.277-26.277v-50.638v-65.015v-51.431h-21.224V311.058z"/>
	<rect x="34.656" y="75.506" style="opacity:0.32;fill:#A5173F;enable-background:new    ;" width="173.591" height="41.95"/>
	<path style="opacity:0.32;fill:#A5173F;enable-background:new    ;" d="M168.593,122.125h-6.614v338.834
		c0,9.686-7.926,17.613-17.613,17.613H41.94v5.223c0,9.687,7.926,17.613,17.613,17.613h124.488c9.687,0,17.613-7.926,17.613-17.613
		V144.961h23.858c6.075,0,11.047-4.97,11.047-11.046v-5.407c0-6.075-4.97-11.047-11.046-11.047h-16.918V75.51V26.724
		c0-10.529-8.614-19.143-19.143-19.143h-20.532v45.095v41.95L168.593,122.125z"/>
</g>
<path d="M243.791,133.914v-5.408c0-10.27-8.356-18.626-18.626-18.626h-9.339V26.723C215.826,11.987,203.839,0,189.103,0H53.797
	C39.062,0,27.075,11.987,27.075,26.723v83.157h-7.222c-10.271,0-18.626,8.356-18.626,18.626v5.408
	c0,10.27,8.356,18.626,18.626,18.626h14.162v331.254c0,13.892,11.301,25.193,25.192,25.193h124.488
	c13.892,0,25.193-11.301,25.193-25.193V152.541h16.278C235.436,152.541,243.791,144.185,243.791,133.914z M53.797,15.16h135.306
	c6.376,0,11.563,5.188,11.563,11.563v41.995H42.234V26.723C42.234,20.348,47.421,15.16,53.797,15.16z M42.234,83.878h158.432v26.003
	H42.234V83.878z M16.385,133.914v-5.408c0-1.879,1.588-3.467,3.467-3.467h205.313c1.879,0,3.467,1.587,3.467,3.467v5.408
	c0,1.879-1.588,3.467-3.467,3.467H41.614c-0.007,0-0.013-0.001-0.019-0.001s-0.013,0.001-0.019,0.001H19.852
	C17.973,137.381,16.385,135.793,16.385,133.914z M193.727,483.794c0,5.532-4.5,10.033-10.033,10.033H59.206
	c-5.531,0-10.032-4.5-10.032-10.033V152.54h144.553V483.794z"/>
<path d="M72.36,283.384c4.186,0,7.58-3.393,7.58-7.58v-88.29c0-4.187-3.394-7.58-7.58-7.58s-7.58,3.393-7.58,7.58v88.29
	C64.78,279.99,68.174,283.384,72.36,283.384z"/>
<path d="M72.36,472.69c4.186,0,7.58-3.393,7.58-7.58V314.752c0-4.187-3.394-7.58-7.58-7.58s-7.58,3.393-7.58,7.58v150.359
	C64.78,469.298,68.174,472.69,72.36,472.69z"/>
<path d="M486.75,351.316h-35.072v-32.679h0.112c14.696,0,26.652-11.956,26.652-26.652s-11.956-26.651-26.652-26.651H255.752
	c-14.696,0-26.652,11.956-26.652,26.652c0,13.533,10.142,24.735,23.224,26.424v44.079v65.015v50.639
	c0,18.669,15.188,33.857,33.857,33.857h131.639c18.669,0,33.857-15.188,33.857-33.857v-38.809h3.97
	c30.397,0,55.126-24.73,55.126-55.126v-8.866C510.774,362.093,499.997,351.316,486.75,351.316z M267.484,370.069h169.034v49.855
	H267.484V370.069z M436.518,354.909H267.484v-36.272h169.034V354.909z M244.26,291.986c0-6.337,5.155-11.491,11.492-11.491H451.79
	c6.337,0,11.492,5.155,11.492,11.492s-5.155,11.491-11.492,11.491h-7.692H259.904h-4.152
	C249.416,303.478,244.26,298.323,244.26,291.986z M417.821,496.84H286.181c-10.31,0-18.697-8.387-18.697-18.697v-43.058h169.034
	v43.058C436.518,488.453,428.13,496.84,417.821,496.84z M495.614,384.206c0,22.037-17.929,39.967-39.967,39.967h-3.97v-57.697
	h35.072c4.888,0,8.865,3.977,8.865,8.864L495.614,384.206L495.614,384.206z"/>
<path d="M321.595,178.151c3.161,6.138,2.439,13.603-1.843,19.018c-9.019,11.406-9.509,27.096-1.22,39.042l11.015,15.875
	c1.473,2.122,3.833,3.26,6.235,3.26c1.491,0,2.997-0.44,4.315-1.353c3.439-2.386,4.293-7.109,1.907-10.549l-11.016-15.875
	c-4.458-6.425-4.194-14.863,0.656-20.996c7.962-10.07,9.308-23.951,3.429-35.363l-7.434-14.431
	c-2.932-5.692-2.548-12.536,1.005-17.863l4.612-6.92c6.975-10.461,7.319-24.197,0.878-34.995c-2.145-3.596-6.798-4.772-10.393-2.628
	c-3.595,2.145-4.771,6.799-2.627,10.393c3.464,5.807,3.279,13.195-0.473,18.821l-4.612,6.92c-6.604,9.904-7.319,22.633-1.868,33.214
	L321.595,178.151z"/>
<path d="M365.604,178.151c3.161,6.138,2.438,13.602-1.844,19.019c-9.018,11.405-9.508,27.096-1.219,39.041l11.015,15.875
	c1.473,2.122,3.833,3.26,6.235,3.26c1.491,0,2.997-0.44,4.315-1.353c3.439-2.386,4.293-7.109,1.907-10.549l-11.016-15.875
	c-4.458-6.425-4.194-14.863,0.656-20.996c7.962-10.07,9.308-23.951,3.429-35.363l-7.434-14.431
	c-2.932-5.692-2.547-12.536,1.005-17.863l4.612-6.92c6.975-10.461,7.319-24.197,0.878-34.995c-2.145-3.596-6.798-4.772-10.393-2.628
	c-3.595,2.145-4.771,6.799-2.627,10.393c3.464,5.807,3.279,13.195-0.473,18.821l-4.612,6.92c-6.604,9.904-7.319,22.632-1.868,33.214
	L365.604,178.151z"/>
</svg>