<?xml version="1.0" encoding="iso-8859-1"?>
<!-- Uploaded to: SVG Repo, www.svgrepo.com, Generator: SVG Repo Mixer Tools -->
<svg height="800px" width="800px" version="1.1" id="Layer_1" xmlns="http://www.w3.org/2000/svg" xmlns:xlink="http://www.w3.org/1999/xlink" 
	 viewBox="0 0 512 512" xml:space="preserve">
<g>
	<circle style="fill:#E21B1B;" cx="110.6" cy="184.92" r="64.16"/>
	<path style="fill:#E21B1B;" d="M221.192,391.216c0,0,0,2.992,0-56.752s-65.208-60.84-65.208-60.84H65.208
		c0,0-65.208,0.728-65.208,60.84c0,59.744,0,56.752,0,56.752L221.192,391.216L221.192,391.216z"/>
</g>
<g>
	<circle style="fill:#222020;" cx="401.36" cy="184.92" r="64.16"/>
	<path style="fill:#222020;" d="M512,391.216c0,0,0,2.992,0-56.752s-65.208-60.84-65.208-60.84h-90.776
		c0,0-65.208,0.728-65.208,60.84c0,59.744,0,56.752,0,56.752L512,391.216L512,391.216z"/>
</g>
</svg>