<?xml version="1.0" encoding="iso-8859-1"?>
<!-- Uploaded to: SVG Repo, www.svgrepo.com, Generator: SVG Repo Mixer Tools -->
<svg version="1.1" id="Layer_1" xmlns="http://www.w3.org/2000/svg" xmlns:xlink="http://www.w3.org/1999/xlink" 
	 viewBox="0 0 512 512" xml:space="preserve">
<g>
	<polygon style="fill:#CCC3A8;" points="182.073,395.179 107.399,395.179 107.399,473.608 404.601,473.608 404.601,395.179 
		329.927,395.179 	"/>
	<polyline style="fill:#CCC3A8;" points="107.399,68.952 107.399,147.379 182.073,147.379 329.927,147.379 404.601,147.379 
		404.601,68.952 	"/>
	<path style="fill:#CCC3A8;" d="M329.927,177.694H182.073h-74.674v78.426h74.674h3.151c7.211-32.455,36.15-56.728,70.776-56.728
		c34.627,0,63.565,24.273,70.776,56.728h3.151h74.674v-78.426H329.927z"/>
	<path style="fill:#CCC3A8;" d="M299.674,329.812c-12.147,9.179-27.275,14.623-43.674,14.623c-35.077,0-64.339-24.907-71.064-57.999
		h-2.863h-74.674v78.427h74.674h147.854h74.674v-78.428h-74.674h-2.863c-1.666,8.197-4.715,15.893-8.893,22.83"/>
</g>
<rect x="115.104" y="53.249" style="fill:#C9B585;" width="20.464" height="435.634"/>
<g>
	<rect x="307.433" y="8.078" style="fill:#FFB92E;" width="50.308" height="30.559"/>
</g>
<g>
	<path style="fill:#DFDBCC;" d="M418.1,490.423v-3.317c0-7.455-6.045-13.499-13.501-13.499h-74.674H182.073h-74.674
		c-7.455,0-13.499,6.043-13.499,13.499v3.317c0,7.455,6.043,13.499,13.499,13.499h74.674h147.852h74.674
		C412.054,503.922,418.1,497.879,418.1,490.423z"/>
	<path style="fill:#DFDBCC;" d="M359.963,68.952h44.636c7.455,0,13.501-6.043,13.501-13.499v-3.317
		c0-7.455-6.045-13.499-13.501-13.499h-74.674H182.073h-74.674c-7.455,0-13.499,6.043-13.499,13.499v3.317
		c0,7.455,6.043,13.499,13.499,13.499h74.674h148.809"/>
	<path style="fill:#DFDBCC;" d="M418.1,164.195v-3.317c0-7.455-6.045-13.499-13.501-13.499h-74.674H182.073h-74.674
		c-7.455,0-13.499,6.043-13.499,13.499v3.317c0,7.455,6.043,13.499,13.499,13.499h74.674h147.852h74.674
		C412.054,177.694,418.1,171.65,418.1,164.195z"/>
	<path style="fill:#DFDBCC;" d="M418.1,381.68v-3.317c0-7.455-6.045-13.499-13.501-13.499h-74.674H182.073h-74.674
		c-7.455,0-13.499,6.043-13.499,13.499v3.317c0,7.455,6.043,13.499,13.499,13.499h74.674h147.852h74.674
		C412.054,395.179,418.1,389.136,418.1,381.68z"/>
	<path style="fill:#DFDBCC;" d="M183.478,271.914c0-5.426,0.614-10.706,1.746-15.793h-3.151h-74.674
		c-7.455,0-13.499,6.043-13.499,13.499v3.317c0,7.455,6.043,13.499,13.499,13.499h74.674h2.863
		C183.98,281.744,183.478,276.888,183.478,271.914z"/>
	<path style="fill:#DFDBCC;" d="M404.599,256.121h-74.674h-3.149c1.13,5.087,1.746,10.367,1.746,15.793
		c0,4.974-0.505,9.83-1.458,14.522h2.861h74.674c7.455,0,13.501-6.043,13.501-13.499v-3.317
		C418.1,262.165,412.054,256.121,404.599,256.121z"/>
</g>
<path style="fill:#FFB92E;" d="M327.395,284.592c0.099-0.558,0.211-1.109,0.296-1.672c0.108-0.705,0.184-1.42,0.271-2.132
	c0.06-0.495,0.137-0.986,0.187-1.484c0.08-0.795,0.128-1.599,0.183-2.403c0.028-0.424,0.073-0.842,0.095-1.269
	c0.064-1.231,0.095-2.472,0.095-3.719c0-40.053-32.47-72.521-72.522-72.521s-72.522,32.469-72.522,72.521
	c0,1.247,0.031,2.488,0.095,3.719c0.022,0.427,0.067,0.844,0.095,1.269c0.055,0.803,0.103,1.608,0.183,2.403
	c0.051,0.499,0.127,0.989,0.187,1.484c0.087,0.712,0.164,1.426,0.271,2.132c0.085,0.562,0.198,1.114,0.296,1.672
	c0.109,0.614,0.204,1.234,0.327,1.844l0.003,0.003c4.689,23.07,20.342,42.144,41.273,51.591l0.03,0.038
	c0.246,0.111,0.499,0.205,0.744,0.312c0.592,0.258,1.189,0.508,1.789,0.751c0.528,0.214,1.056,0.425,1.591,0.627
	c0.609,0.23,1.225,0.448,1.841,0.662c0.537,0.186,1.074,0.373,1.617,0.547c0.629,0.202,1.266,0.388,1.902,0.573
	c0.543,0.158,1.085,0.318,1.633,0.464c0.653,0.172,1.314,0.327,1.974,0.483c0.543,0.128,1.084,0.261,1.631,0.377
	c0.686,0.144,1.378,0.267,2.071,0.392c0.533,0.096,1.063,0.2,1.599,0.285c0.736,0.115,1.478,0.206,2.221,0.298
	c0.504,0.065,1.006,0.14,1.513,0.193c0.833,0.087,1.673,0.144,2.513,0.204c0.427,0.029,0.85,0.074,1.278,0.097
	c1.274,0.066,2.556,0.103,3.845,0.103c1.289,0,2.572-0.037,3.845-0.103c0.429-0.023,0.851-0.068,1.277-0.097
	c0.84-0.059,1.681-0.115,2.513-0.204c0.508-0.053,1.01-0.128,1.513-0.193c0.742-0.093,1.485-0.183,2.22-0.298
	c0.536-0.084,1.066-0.19,1.599-0.285c0.694-0.125,1.385-0.248,2.071-0.392c0.547-0.115,1.088-0.248,1.631-0.377
	c0.66-0.156,1.322-0.31,1.974-0.483c0.548-0.146,1.09-0.306,1.633-0.464c0.637-0.185,1.273-0.372,1.902-0.573
	c0.543-0.174,1.079-0.361,1.617-0.547c0.616-0.214,1.232-0.432,1.841-0.662c0.534-0.202,1.062-0.413,1.591-0.627
	c0.6-0.243,1.197-0.492,1.789-0.751c0.247-0.108,0.5-0.202,0.744-0.312l0.03-0.038c20.931-9.447,36.583-28.519,41.273-51.591
	l0.003-0.003C327.191,285.827,327.286,285.207,327.395,284.592z"/>
<path style="fill:#2393B5;" d="M264.532,305.03c-2.64,1.183-5.392,1.775-8.113,1.841c-0.139,0.002-0.28,0.002-0.419,0.002
	c-0.141,0-0.28,0-0.421-0.002c-2.72-0.066-5.474-0.658-8.111-1.841c-10.636-4.763-15.396-17.246-10.634-27.882l19.166-42.799
	l19.166,42.799C279.928,287.784,275.168,300.267,264.532,305.03z"/>
<path style="fill:#36A1CB;" d="M255.999,283.387c-0.098,8.612,4.985,16.066,12.345,19.43c7.889-5.745,10.971-16.405,6.822-25.668
	l-17.91-39.996l-0.721-0.657L255.999,283.387z"/>
<rect x="315.145" y="8.198" style="fill:#EF9A1D;" width="20.464" height="38.559"/>
<g>
	<path style="fill:#D8CFB2;" d="M122.074,490.544v-3.317c0-7.455,6.043-13.499,13.499-13.499h-20.464
		c-7.455,0-13.499,6.043-13.499,13.499v3.317c0,7.455,6.043,13.499,13.499,13.499h20.464
		C128.117,504.043,122.074,497.999,122.074,490.544z"/>
	<path style="fill:#D8CFB2;" d="M122.074,55.575v-3.317c0-7.455,6.043-13.499,13.499-13.499h-20.464
		c-7.455,0-13.499,6.043-13.499,13.499v3.317c0,7.455,6.043,13.499,13.499,13.499h20.464
		C128.117,69.073,122.074,63.029,122.074,55.575z"/>
	<path style="fill:#D8CFB2;" d="M122.074,164.316v-3.317c0-7.455,6.043-13.499,13.499-13.499h-20.464
		c-7.455,0-13.499,6.043-13.499,13.499v3.317c0,7.455,6.043,13.499,13.499,13.499h20.464
		C128.117,177.815,122.074,171.771,122.074,164.316z"/>
	<path style="fill:#D8CFB2;" d="M122.074,381.801v-3.317c0-7.455,6.043-13.499,13.499-13.499h-20.464
		c-7.455,0-13.499,6.043-13.499,13.499v3.317c0,7.455,6.043,13.499,13.499,13.499h20.464
		C128.117,395.3,122.074,389.256,122.074,381.801z"/>
	<path style="fill:#D8CFB2;" d="M122.074,273.058v-3.317c0-7.455,6.043-13.499,13.499-13.499h-20.464
		c-7.455,0-13.499,6.043-13.499,13.499v3.317c0,7.455,6.043,13.499,13.499,13.499h20.464
		C128.117,286.558,122.074,280.513,122.074,273.058z"/>
</g>
<path style="fill:#EF9A1D;" d="M272.804,343.662c-0.536-0.084-1.066-0.19-1.6-0.285c-0.693-0.125-1.385-0.248-2.07-0.392
	c-0.548-0.115-1.088-0.248-1.631-0.377c-0.66-0.156-1.322-0.31-1.975-0.483c-0.547-0.146-1.09-0.306-1.633-0.464
	c-0.637-0.185-1.273-0.372-1.902-0.573c-0.543-0.174-1.079-0.361-1.616-0.547c-0.616-0.214-1.233-0.432-1.841-0.662
	c-0.534-0.202-1.062-0.413-1.591-0.627c-0.601-0.243-1.197-0.492-1.79-0.751c-0.247-0.108-0.499-0.202-0.744-0.312l-0.029-0.038
	c-20.931-9.447-36.584-28.519-41.274-51.59l-0.003-0.003c-0.124-0.609-0.219-1.23-0.326-1.844c-0.099-0.558-0.212-1.109-0.296-1.672
	c-0.108-0.705-0.185-1.42-0.271-2.133c-0.061-0.495-0.137-0.986-0.187-1.484c-0.08-0.795-0.128-1.599-0.183-2.403
	c-0.029-0.424-0.073-0.842-0.096-1.269c-0.062-1.232-0.094-2.472-0.094-3.719c0-36.578,27.083-66.815,62.29-71.789
	c-3.344-0.473-6.757-0.732-10.232-0.732c-40.053,0-72.522,32.468-72.522,72.521c0,1.247,0.031,2.488,0.094,3.719
	c0.022,0.425,0.066,0.844,0.096,1.269c0.055,0.803,0.103,1.608,0.183,2.403c0.051,0.499,0.126,0.989,0.187,1.484
	c0.086,0.712,0.164,1.426,0.271,2.133c0.084,0.561,0.198,1.114,0.296,1.672c0.108,0.614,0.202,1.234,0.326,1.844l0.003,0.003
	c4.691,23.07,20.343,42.144,41.274,51.59l0.029,0.038c0.247,0.111,0.499,0.206,0.744,0.312c0.593,0.258,1.19,0.508,1.79,0.751
	c0.528,0.214,1.056,0.425,1.591,0.627c0.607,0.23,1.225,0.448,1.841,0.662c0.536,0.186,1.073,0.373,1.616,0.547
	c0.629,0.202,1.266,0.388,1.902,0.573c0.543,0.157,1.086,0.318,1.633,0.464c0.654,0.172,1.315,0.327,1.975,0.483
	c0.543,0.128,1.082,0.261,1.631,0.377c0.685,0.144,1.378,0.267,2.07,0.392c0.534,0.096,1.064,0.2,1.6,0.285
	c0.735,0.115,1.477,0.206,2.22,0.298c0.505,0.065,1.006,0.14,1.514,0.193c0.83,0.087,1.673,0.144,2.512,0.202
	c0.427,0.029,0.85,0.074,1.28,0.097c1.273,0.067,2.555,0.103,3.845,0.103c1.289,0,2.571-0.037,3.844-0.103
	c0.429-0.023,0.851-0.068,1.278-0.097c0.841-0.059,1.681-0.115,2.514-0.202c0.507-0.053,1.009-0.128,1.512-0.193
	c0.363-0.045,0.722-0.098,1.084-0.145C273.561,343.765,273.181,343.721,272.804,343.662z"/>
<path style="fill:#2393B5;" d="M263.71,234.596c0,0,0.707,0.107,1.896,0.288C264.999,234.699,264.363,234.596,263.71,234.596z"/>
<g>
	<path style="fill:#231F20;" d="M426.177,55.453v-3.317c0-11.897-9.679-21.577-21.579-21.577h-38.78V16.156h4.464
		c4.462,0,8.078-3.616,8.078-8.078S374.745,0,370.283,0h-12.542h-50.308H294.89c-4.462,0-8.078,3.616-8.078,8.078
		s3.616,8.078,8.078,8.078h4.465v14.403H107.399c-11.897,0-21.577,9.679-21.577,21.577v3.317c0,9.04,5.595,16.787,13.499,19.993
		v65.438c-7.903,3.205-13.499,10.953-13.499,19.993v3.317c0,9.04,5.595,16.787,13.499,19.993v65.438
		c-7.903,3.205-13.499,10.953-13.499,19.993v3.317c0,9.04,5.595,16.787,13.499,19.993v65.439
		c-7.903,3.205-13.499,10.953-13.499,19.993v3.317c0,9.04,5.595,16.787,13.499,19.993v65.439
		c-7.903,3.205-13.499,10.953-13.499,19.993v3.317c0,11.897,9.679,21.577,21.577,21.577h297.2c11.899,0,21.579-9.679,21.579-21.577
		v-3.317c0-9.04-5.594-16.787-13.499-19.992v-65.44c7.904-3.206,13.499-10.953,13.499-19.992v-3.317
		c0-9.04-5.594-16.787-13.499-19.992v-65.44c7.904-3.206,13.499-10.953,13.499-19.992v-3.317c0-9.04-5.594-16.787-13.499-19.992
		V184.19c7.904-3.206,13.499-10.953,13.499-19.992v-3.317c0-9.04-5.594-16.787-13.499-19.992V75.446
		C420.583,72.24,426.177,64.493,426.177,55.453z M315.511,16.156h34.152v14.403h-34.152V16.156z M101.978,52.136
		c0-2.989,2.432-5.421,5.421-5.421h200.034h50.308h46.858c2.99,0,5.423,2.432,5.423,5.421v3.317c0,2.989-2.433,5.421-5.423,5.421
		h-44.636c-4.462,0-8.078,3.616-8.078,8.078s3.616,8.078,8.078,8.078h36.56V139.3H115.477V77.029h215.406
		c4.462,0,8.078-3.616,8.078-8.078c0-4.462-3.616-8.078-8.078-8.078H107.399c-2.989,0-5.421-2.432-5.421-5.421
		C101.978,55.453,101.978,52.136,101.978,52.136z M410.022,160.878v3.317c0,2.989-2.433,5.421-5.423,5.421h-297.2
		c-2.989,0-5.421-2.432-5.421-5.421v-3.317c0-2.989,2.432-5.421,5.421-5.421h297.2C407.59,155.457,410.022,157.889,410.022,160.878z
		 M410.022,269.62v3.317c0,2.989-2.433,5.421-5.423,5.421h-68.256c0.04-0.506,0.06-1.014,0.09-1.52
		c0.025-0.411,0.055-0.823,0.073-1.235c0.056-1.23,0.093-2.46,0.093-3.69c0-1.312-0.034-2.626-0.1-3.941
		c-0.046-0.961-0.128-1.912-0.208-2.864c-0.026-0.304-0.037-0.607-0.067-0.911h68.373
		C407.59,264.199,410.022,266.631,410.022,269.62z M410.022,378.363v3.317c0,2.989-2.433,5.421-5.423,5.421h-297.2
		c-2.989,0-5.421-2.432-5.421-5.421v-3.317c0-2.989,2.432-5.421,5.421-5.421h297.2C407.59,372.942,410.022,375.374,410.022,378.363z
		 M396.523,465.53H115.477v-62.272h281.046V465.53z M396.523,356.786H115.477v-62.272h63.141c0.101,0.346,0.218,0.685,0.323,1.029
		c0.071,0.23,0.143,0.459,0.216,0.688c0.33,1.042,0.68,2.073,1.049,3.095c0.054,0.146,0.104,0.294,0.158,0.441
		c1.783,4.832,4.011,9.432,6.632,13.757c0.07,0.116,0.141,0.23,0.212,0.346c0.578,0.943,1.175,1.873,1.79,2.79
		c0.106,0.158,0.21,0.317,0.317,0.474c0.621,0.912,1.26,1.811,1.917,2.694c0.089,0.12,0.174,0.242,0.264,0.362
		c0.74,0.983,1.497,1.953,2.28,2.899c0.168,0.204,0.345,0.397,0.514,0.599c0.569,0.675,1.144,1.345,1.734,2.001
		c0.419,0.466,0.851,0.921,1.28,1.378c0.339,0.36,0.679,0.721,1.024,1.074c0.532,0.546,1.074,1.082,1.621,1.613
		c0.219,0.211,0.439,0.42,0.66,0.629c11.248,10.66,25.55,18.113,41.447,20.897c0.304,0.054,0.605,0.113,0.909,0.163
		c0.702,0.114,1.409,0.213,2.116,0.309c0.567,0.078,1.135,0.152,1.705,0.218c0.595,0.068,1.189,0.131,1.788,0.186
		c0.749,0.07,1.5,0.124,2.254,0.172c0.469,0.03,0.935,0.066,1.406,0.088c1.249,0.058,2.502,0.096,3.763,0.096
		c1.303,0,2.6-0.04,3.892-0.101c0.388-0.018,0.774-0.046,1.162-0.07c0.945-0.058,1.885-0.131,2.823-0.222
		c0.388-0.038,0.777-0.073,1.164-0.116c1.161-0.128,2.317-0.279,3.466-0.457c0.11-0.017,0.221-0.029,0.331-0.046
		c1.337-0.212,2.662-0.463,3.982-0.742c0.143-0.03,0.285-0.066,0.429-0.096c1.206-0.262,2.404-0.554,3.594-0.87
		c0.139-0.037,0.278-0.073,0.417-0.112c9.786-2.662,19.008-7.168,27.286-13.424c3.56-2.689,4.264-7.755,1.575-11.314
		c-2.688-3.559-7.754-4.265-11.314-1.575c-3.9,2.947-8.066,5.399-12.428,7.363c-3.03,1.361-6.137,2.474-9.306,3.343
		c-0.163,0.044-0.326,0.088-0.49,0.131c-0.889,0.236-1.783,0.451-2.681,0.648c-0.166,0.037-0.33,0.076-0.495,0.111
		c-1.033,0.219-2.07,0.413-3.115,0.579c-0.13,0.02-0.262,0.036-0.392,0.055c-0.879,0.135-1.762,0.25-2.648,0.349
		c-0.324,0.036-0.648,0.067-0.974,0.098c-0.738,0.071-1.478,0.128-2.221,0.173c-0.316,0.019-0.631,0.042-0.948,0.057
		c-1.033,0.048-2.068,0.081-3.108,0.081c-1.031,0-2.054-0.03-3.073-0.078c-0.411-0.019-0.82-0.054-1.23-0.082
		c-0.588-0.039-1.176-0.08-1.76-0.135c-0.532-0.051-1.061-0.113-1.59-0.177c-0.433-0.052-0.865-0.106-1.296-0.165
		c-0.623-0.087-1.243-0.183-1.86-0.289c-0.295-0.051-0.589-0.104-0.883-0.158c-0.724-0.135-1.445-0.275-2.161-0.433
		c-0.107-0.024-0.211-0.05-0.317-0.073c-10.656-2.417-20.412-7.497-28.437-14.565c-0.084-0.074-0.171-0.146-0.255-0.222
		c-0.477-0.424-0.941-0.863-1.406-1.301c-0.271-0.257-0.545-0.512-0.811-0.773c-0.358-0.35-0.709-0.708-1.059-1.065
		c-0.374-0.383-0.744-0.769-1.108-1.162c-0.261-0.281-0.519-0.563-0.775-0.849c-0.464-0.518-0.92-1.044-1.367-1.577
		c-0.157-0.187-0.317-0.373-0.472-0.562c-0.597-0.728-1.182-1.467-1.747-2.222c-0.008-0.01-0.015-0.019-0.023-0.029
		c-3.09-4.13-5.697-8.642-7.735-13.45c-0.005-0.012-0.01-0.023-0.015-0.034c-0.393-0.928-0.763-1.869-1.114-2.819
		c-0.019-0.052-0.039-0.103-0.057-0.155c-0.337-0.922-0.652-1.854-0.948-2.795c-0.02-0.065-0.042-0.128-0.061-0.193
		c-0.299-0.964-0.576-1.937-0.83-2.92c-0.009-0.031-0.017-0.062-0.026-0.095c-0.511-1.981-0.924-3.999-1.245-6.048
		c-0.012-0.075-0.028-0.15-0.04-0.225c-0.109-0.71-0.188-1.428-0.274-2.144c-0.044-0.369-0.101-0.736-0.139-1.106
		c-0.061-0.603-0.095-1.214-0.139-1.822c-0.034-0.481-0.084-0.961-0.109-1.442c-0.055-1.086-0.083-2.179-0.083-3.279
		c0-1.158,0.033-2.317,0.097-3.478c0.005-0.11,0.018-0.218,0.025-0.326c0.064-1.066,0.149-2.134,0.266-3.199
		c0.006-0.06,0.016-0.12,0.023-0.181c0.125-1.108,0.277-2.215,0.459-3.318c0.01-0.058,0.022-0.116,0.031-0.176
		c0.182-1.079,0.391-2.155,0.627-3.227c0.039-0.176,0.082-0.35,0.122-0.526c0.173-0.757,0.354-1.51,0.554-2.256
		c0.036-0.134,0.076-0.265,0.113-0.398c6.834-24.854,28.273-43.32,53.555-46.772c0.218-0.029,0.435-0.056,0.653-0.083
		c0.67-0.084,1.343-0.159,2.018-0.223c0.476-0.043,0.955-0.076,1.435-0.11c0.48-0.033,0.96-0.072,1.442-0.096
		c1.003-0.046,2.01-0.076,3.024-0.076c1.015,0,2.022,0.03,3.024,0.076c0.483,0.023,0.962,0.061,1.442,0.096
		c0.479,0.033,0.959,0.066,1.435,0.11c0.675,0.064,1.347,0.138,2.018,0.223c0.218,0.027,0.435,0.054,0.653,0.083
		c25.284,3.451,46.722,21.917,53.555,46.772c0.037,0.134,0.078,0.265,0.113,0.398c0.2,0.745,0.381,1.499,0.554,2.256
		c0.042,0.18,0.085,0.36,0.125,0.541c0.236,1.077,0.447,2.158,0.629,3.243c0.008,0.045,0.017,0.089,0.024,0.135
		c0.186,1.13,0.342,2.263,0.47,3.397c0.003,0.033,0.009,0.067,0.013,0.1c0.12,1.086,0.206,2.171,0.27,3.257
		c0.005,0.093,0.016,0.184,0.022,0.278c0.064,1.161,0.097,2.322,0.097,3.479c0,4.333-0.436,8.677-1.296,12.911
		c0,0.001,0,0.002,0,0.002c-1.457,7.17-4.114,13.99-7.897,20.272c-2.302,3.822-1.068,8.785,2.753,11.087
		c3.82,2.303,8.786,1.07,11.087-2.753c3.586-5.953,6.362-12.295,8.293-18.919h63.139v62.276H396.523z M101.978,272.937v-3.317
		c0-2.989,2.432-5.421,5.421-5.421h68.375c-0.029,0.302-0.04,0.603-0.066,0.905c-0.08,0.953-0.163,1.905-0.209,2.868
		c-0.066,1.315-0.1,2.63-0.1,3.943c0,1.248,0.038,2.496,0.095,3.742c0.019,0.414,0.048,0.825,0.074,1.238
		c0.03,0.489,0.048,0.978,0.087,1.466h-68.257C104.409,278.358,101.978,275.927,101.978,272.937z M396.523,248.043H332.99
		c-0.208-0.671-0.446-1.329-0.672-1.993c-0.114-0.336-0.223-0.674-0.341-1.008c-0.246-0.691-0.504-1.375-0.767-2.057
		c-0.142-0.368-0.288-0.735-0.434-1.101c-0.275-0.682-0.553-1.362-0.845-2.035c-0.126-0.29-0.262-0.575-0.391-0.864
		c-0.554-1.23-1.136-2.444-1.748-3.64c-0.199-0.39-0.393-0.781-0.599-1.166c-0.296-0.557-0.603-1.107-0.912-1.656
		c-0.276-0.491-0.557-0.979-0.843-1.465c-0.28-0.474-0.559-0.947-0.848-1.414c-0.476-0.772-0.967-1.535-1.47-2.29
		c-0.117-0.177-0.228-0.359-0.348-0.535c-0.672-0.994-1.372-1.969-2.087-2.933c-0.112-0.151-0.227-0.298-0.34-0.449
		c-0.679-0.901-1.376-1.788-2.093-2.661c-0.045-0.055-0.09-0.111-0.136-0.166c-3.391-4.111-7.184-7.906-11.352-11.293
		c-3.785-3.075-7.839-5.772-12.087-8.094c-0.312-0.171-0.629-0.335-0.943-0.502c-0.704-0.373-1.412-0.739-2.126-1.09
		c-0.531-0.263-1.067-0.517-1.605-0.768c-0.485-0.225-0.97-0.445-1.458-0.66c-0.702-0.311-1.408-0.615-2.12-0.907
		c-0.282-0.115-0.567-0.224-0.851-0.336c-4.891-1.937-10.012-3.405-15.315-4.356c-0.292-0.053-0.584-0.108-0.877-0.157
		c-0.805-0.135-1.612-0.256-2.424-0.367c-0.48-0.067-0.961-0.126-1.443-0.184c-0.689-0.082-1.38-0.16-2.074-0.224
		c-0.686-0.064-1.374-0.111-2.063-0.157c-0.532-0.036-1.061-0.079-1.596-0.103c-1.258-0.059-2.518-0.096-3.782-0.096
		c-1.263,0-2.524,0.037-3.78,0.096c-0.535,0.025-1.065,0.068-1.597,0.103c-0.687,0.046-1.374,0.093-2.06,0.157
		c-0.696,0.064-1.387,0.143-2.078,0.224c-0.479,0.057-0.959,0.117-1.437,0.183c-0.814,0.111-1.624,0.233-2.431,0.368
		c-0.289,0.048-0.577,0.103-0.866,0.155c-5.312,0.952-10.443,2.424-15.343,4.365c-0.273,0.108-0.546,0.212-0.817,0.323
		c-0.722,0.295-1.436,0.603-2.148,0.919c-0.477,0.211-0.952,0.425-1.426,0.645c-0.548,0.256-1.094,0.515-1.636,0.783
		c-0.701,0.345-1.395,0.704-2.085,1.07c-0.327,0.174-0.658,0.345-0.982,0.522c-4.244,2.32-8.292,5.015-12.074,8.086
		c-4.167,3.385-7.959,7.177-11.348,11.286c-0.05,0.06-0.099,0.121-0.149,0.181c-0.712,0.869-1.407,1.751-2.082,2.647
		c-0.115,0.152-0.232,0.303-0.346,0.456c-0.714,0.963-1.414,1.937-2.084,2.928c-0.123,0.181-0.237,0.368-0.359,0.55
		c-0.499,0.751-0.987,1.508-1.459,2.275c-0.29,0.469-0.569,0.942-0.849,1.416c-0.285,0.485-0.567,0.973-0.842,1.464
		c-0.309,0.55-0.617,1.101-0.914,1.659c-0.204,0.383-0.397,0.773-0.596,1.16c-0.612,1.197-1.194,2.409-1.748,3.639
		c-0.13,0.291-0.267,0.578-0.394,0.871c-0.292,0.671-0.57,1.351-0.844,2.031c-0.148,0.367-0.293,0.735-0.436,1.103
		c-0.263,0.682-0.521,1.366-0.767,2.056c-0.118,0.334-0.227,0.671-0.341,1.006c-0.226,0.665-0.464,1.323-0.672,1.995h-63.533
		v-62.271h281.046L396.523,248.043L396.523,248.043z M410.022,490.423c0,2.989-2.433,5.421-5.423,5.421h-297.2
		c-2.989,0-5.421-2.432-5.421-5.421v-3.317c0-2.989,2.432-5.421,5.421-5.421h297.2c2.99,0,5.423,2.432,5.423,5.421V490.423z"/>
	<path style="fill:#231F20;" d="M263.372,231.047c-1.301-2.906-4.189-4.777-7.372-4.777c-3.184,0-6.071,1.87-7.372,4.777
		l-19.166,42.799c-6.575,14.684,0.022,31.98,14.702,38.554c3.561,1.596,7.336,2.451,11.295,2.546l0.541,0.003l0.612-0.004
		c3.884-0.094,7.66-0.949,11.222-2.544c14.683-6.574,21.28-23.871,14.704-38.555L263.372,231.047z M268.075,290.413
		c-1.239,3.251-3.669,5.823-6.845,7.245c-1.593,0.713-3.277,1.096-4.934,1.136l-0.523,0.001c-1.728-0.041-3.411-0.423-5.004-1.137
		c-3.175-1.422-5.606-3.995-6.845-7.245c-1.24-3.251-1.14-6.789,0.282-9.963l11.794-26.336l11.794,26.336
		C269.215,283.625,269.316,287.163,268.075,290.413z"/>
</g>
</svg>