<?xml version="1.0" encoding="iso-8859-1"?>
<!-- Uploaded to: SVG Repo, www.svgrepo.com, Generator: SVG Repo Mixer Tools -->
<svg height="800px" width="800px" version="1.1" id="Layer_1" xmlns="http://www.w3.org/2000/svg" xmlns:xlink="http://www.w3.org/1999/xlink" 
	 viewBox="0 0 512 512" xml:space="preserve">
<path style="fill:#E44F50;" d="M214.094,503.152H67.83c-9.775,0-17.699-7.924-17.699-17.699V148.45
	c0-9.775,7.924-17.699,17.699-17.699h146.264c9.775,0,17.699,7.924,17.699,17.699v337.002
	C231.793,495.227,223.87,503.152,214.094,503.152z"/>
<path id="SVGCleanerId_0" style="fill:#58595B;" d="M208.447,130.751H73.478V26.549c0-9.775,7.924-17.699,17.699-17.699h99.57
	c9.775,0,17.699,7.924,17.699,17.699V130.751z"/>
<g>
	<path style="fill:#DD263D;" d="M175.853,391.829c0,19.27-15.621,34.891-34.891,34.891s-34.891-15.621-34.891-34.891
		c0-16.382,25.219-46.34,32.775-54.949c1.124-1.28,3.106-1.28,4.23,0C150.634,345.49,175.853,375.447,175.853,391.829z"/>
	<path style="fill:#DD263D;" d="M214.094,130.751H166.54H67.83c-9.775,0-17.699,7.924-17.699,17.699v18.092
		c0-9.775,7.924-17.699,17.699-17.699l0,0c64.291,0,116.409,52.118,116.409,116.409v220.199c0,9.775-7.924,17.699-17.699,17.699
		h47.554c9.775,0,17.699-7.924,17.699-17.699V166.542V148.45C231.793,138.676,223.869,130.751,214.094,130.751z"/>
</g>
<path style="fill:#F5BA3D;" d="M444.171,503.152H297.906c-9.775,0-17.699-7.924-17.699-17.699V148.45
	c0-9.775,7.924-17.699,17.699-17.699H444.17c9.775,0,17.699,7.924,17.699,17.699v337.002
	C461.87,495.227,453.946,503.152,444.171,503.152z"/>
<path style="fill:#EF9325;" d="M444.17,130.751h-47.554h-98.71c-9.775,0-17.699,7.924-17.699,17.699v21.919
	c0-9.775,7.924-17.699,17.699-17.699l0,0c64.291,0,116.409,52.118,116.409,116.409v216.372c0,9.775-7.924,17.699-17.699,17.699
	h47.554c9.775,0,17.699-7.924,17.699-17.699V170.369V148.45C461.869,138.676,453.946,130.751,444.17,130.751z"/>
<path style="fill:#58595B;" d="M438.523,130.751H303.554V26.549c0-9.775,7.924-17.699,17.699-17.699h99.57
	c9.775,0,17.699,7.924,17.699,17.699V130.751z"/>
<g>
	<path id="SVGCleanerId_0_1_" style="fill:#58595B;" d="M208.447,130.751H73.478V26.549c0-9.775,7.924-17.699,17.699-17.699h99.57
		c9.775,0,17.699,7.924,17.699,17.699V130.751z"/>
</g>
<g>
	<path style="fill:#414042;" d="M420.824,8.85h-40.118c9.775,0,17.699,7.924,17.699,17.699v104.203h40.118V26.549
		C438.523,16.774,430.598,8.85,420.824,8.85z"/>
	<path style="fill:#414042;" d="M190.748,8.85H150.63c9.775,0,17.699,7.924,17.699,17.699v104.203h40.118V26.549
		C208.447,16.774,200.522,8.85,190.748,8.85z"/>
</g>
<path style="fill:#F47D20;" d="M405.929,391.829c0,19.27-15.621,34.891-34.891,34.891s-34.891-15.621-34.891-34.891
	c0-16.382,25.219-46.34,32.775-54.949c1.124-1.28,3.106-1.28,4.23,0C380.711,345.49,405.929,375.447,405.929,391.829z"/>
<path d="M217.296,122.101V26.549C217.296,11.909,205.386,0,190.748,0H91.176C76.538,0,64.628,11.909,64.628,26.549v95.553
	c-13.133,1.587-23.346,12.794-23.346,26.349v220.787c0,4.887,3.961,8.85,8.85,8.85s8.85-3.962,8.85-8.85V148.45
	c0-4.879,3.969-8.85,8.85-8.85h5.647h134.97h5.647c4.88,0,8.85,3.97,8.85,8.85v337.001c0,4.879-3.969,8.85-8.85,8.85H67.83
	c-4.88,0-8.85-3.97-8.85-8.85v-35.586c0-4.887-3.961-8.85-8.85-8.85s-8.85,3.962-8.85,8.85v35.586
	c0,14.64,11.91,26.549,26.549,26.549h146.264c14.638,0,26.549-11.909,26.549-26.549V148.45
	C240.643,134.895,230.429,123.689,217.296,122.101z M82.327,121.902V26.549c0-4.88,3.969-8.85,8.85-8.85h99.571
	c4.88,0,8.85,3.969,8.85,8.85v95.353H82.327z"/>
<path d="M140.963,325.659c-2.48,0-4.846,1.041-6.523,2.868c-6.215,6.778-37.216,41.684-37.216,63.301
	c0,24.118,19.621,43.74,43.739,43.74s43.74-19.621,43.74-43.74c0-21.618-31.003-56.524-37.218-63.301
	C145.809,326.7,143.442,325.659,140.963,325.659z M140.963,417.87c-14.359,0-26.04-11.681-26.04-26.041
	c0-9.222,13.647-29.048,26.04-43.87c12.393,14.822,26.041,34.647,26.041,43.87C167.004,406.189,155.321,417.87,140.963,417.87z"/>
<circle cx="50.131" cy="401.793" r="8.85"/>
<path d="M447.372,122.101V26.549C447.372,11.909,435.462,0,420.824,0h-99.57c-14.638,0-26.549,11.909-26.549,26.549v95.553
	c-13.134,1.586-23.347,12.794-23.347,26.349v337.001c0,14.64,11.91,26.549,26.549,26.549H444.17
	c14.638,0,26.549-11.909,26.549-26.549V148.45C470.719,134.895,460.506,123.689,447.372,122.101z M312.404,26.549
	c0-4.88,3.969-8.85,8.85-8.85h99.57c4.88,0,8.85,3.969,8.85,8.85v95.353H312.404V26.549z M453.02,485.451
	c0,4.879-3.969,8.85-8.85,8.85H297.906c-4.88,0-8.85-3.97-8.85-8.85V148.45c0-4.879,3.969-8.85,8.85-8.85h5.648h134.968h5.647
	c4.88,0,8.85,3.97,8.85,8.85V485.451z"/>
<path d="M371.039,325.659c-2.48,0-4.846,1.041-6.523,2.868c-6.215,6.778-37.216,41.684-37.216,63.301
	c0,24.118,19.621,43.74,43.739,43.74c24.118,0,43.74-19.621,43.74-43.74c0-21.618-31.003-56.524-37.218-63.301
	C375.885,326.7,373.518,325.659,371.039,325.659z M371.039,417.87c-14.359,0-26.04-11.681-26.04-26.041
	c0-9.222,13.647-29.048,26.04-43.87c12.393,14.822,26.041,34.647,26.041,43.87C397.08,406.189,385.399,417.87,371.039,417.87z"/>
</svg>