<?xml version="1.0" encoding="iso-8859-1"?>
<!-- Uploaded to: SVG Repo, www.svgrepo.com, Generator: SVG Repo Mixer Tools -->
<svg version="1.1" id="Layer_1" xmlns="http://www.w3.org/2000/svg" xmlns:xlink="http://www.w3.org/1999/xlink" 
	 viewBox="0 0 512.003 512.003" xml:space="preserve">
<path style="fill:#A4A9AD;" d="M438.291,122.722c-0.783-2.833-3.827-5.148-6.764-5.148h-31.509c-2.937,0-5.981,2.316-6.763,5.148
	l-7.058,25.526c-0.782,2.831,0.981,5.146,3.918,5.146h51.319c2.937,0,4.7-2.316,3.917-5.146L438.291,122.722z"/>
<path style="fill:#D1D3D3;" d="M24.853,340.608V165.393c0-14.687,12.016-26.703,26.703-26.703h408.888
	c14.687,0,26.703,12.016,26.703,26.703v175.215H24.853z"/>
<rect x="24.853" y="249.247" style="fill:#00B3E3;" width="462.292" height="91.356"/>
<rect x="24.853" y="267.586" style="fill:#0071CE;" width="462.292" height="16.022"/>
<g>
	<path style="fill:#A4A9AD;" d="M503.989,348.681c0,5.463-4.471,9.937-9.936,9.937h-22.357c-5.464,0-9.937-4.473-9.937-9.937
		v-16.147c0-5.463,4.471-9.937,9.937-9.937h22.357c5.464,0,9.936,4.473,9.936,9.937V348.681z"/>
	<path style="fill:#A4A9AD;" d="M45.966,348.681c0,5.463-4.472,9.937-9.937,9.937H17.947c-5.464,0-9.936-4.473-9.936-9.937v-16.147
		c0-5.463,4.471-9.937,9.936-9.937h18.084c5.464,0,9.937,4.473,9.937,9.937v16.147H45.966z"/>
</g>
<path style="opacity:0.2;enable-background:new    ;" d="M199.864,340.608c0-35.918-29.118-65.034-65.036-65.034
	s-65.036,29.117-65.036,65.034H199.864z"/>
<circle style="fill:#333E48;" cx="134.828" cy="340.603" r="53.822"/>
<circle style="fill:#A4A9AD;" cx="134.828" cy="340.603" r="27.28"/>
<path style="opacity:0.2;enable-background:new    ;" d="M442.206,340.608c0-35.918-29.118-65.034-65.036-65.034
	s-65.036,29.117-65.036,65.034H442.206z"/>
<circle style="fill:#333E48;" cx="377.174" cy="340.603" r="53.822"/>
<circle style="fill:#A4A9AD;" cx="377.174" cy="340.603" r="27.28"/>
<path style="fill:#333E48;" d="M381.383,212.406c0,4.7,3.845,8.545,8.545,8.545h62.189c4.7,0,8.545-3.845,8.545-8.545v-37.029
	c0-4.698-3.845-8.545-8.545-8.545h-62.189c-4.7,0-8.545,3.847-8.545,8.545V212.406z"/>
<path style="opacity:0.1;enable-background:new    ;" d="M452.117,166.832h-62.189c-4.7,0-8.545,3.847-8.545,8.545v11.036
	c0-4.7,3.845-8.545,8.545-8.545h62.189c4.7,0,8.545,3.845,8.545,8.545v-11.036C460.662,170.679,456.817,166.832,452.117,166.832z"/>
<path style="fill:#333E48;" d="M271.368,212.406c0,4.7,3.845,8.545,8.545,8.545h62.189c4.7,0,8.545-3.845,8.545-8.545v-37.029
	c0-4.698-3.845-8.545-8.545-8.545h-62.189c-4.7,0-8.545,3.847-8.545,8.545V212.406L271.368,212.406z"/>
<path style="opacity:0.1;enable-background:new    ;" d="M342.102,166.832h-62.189c-4.7,0-8.545,3.847-8.545,8.545v11.036
	c0-4.7,3.845-8.545,8.545-8.545h62.189c4.7,0,8.545,3.845,8.545,8.545v-11.036C350.647,170.679,346.802,166.832,342.102,166.832z"/>
<path style="fill:#333E48;" d="M161.353,212.406c0,4.7,3.845,8.545,8.545,8.545h62.189c4.7,0,8.545-3.845,8.545-8.545v-37.029
	c0-4.698-3.845-8.545-8.545-8.545h-62.189c-4.7,0-8.545,3.847-8.545,8.545L161.353,212.406L161.353,212.406z"/>
<path style="opacity:0.1;enable-background:new    ;" d="M232.087,166.832h-62.189c-4.7,0-8.545,3.847-8.545,8.545v11.036
	c0-4.7,3.845-8.545,8.545-8.545h62.189c4.7,0,8.545,3.845,8.545,8.545v-11.036C240.632,170.679,236.787,166.832,232.087,166.832z"/>
<path style="fill:#333E48;" d="M51.338,212.406c0,4.7,3.845,8.545,8.545,8.545h62.189c4.7,0,8.545-3.845,8.545-8.545v-37.029
	c0-4.698-3.845-8.545-8.545-8.545H59.883c-4.7,0-8.545,3.847-8.545,8.545V212.406z"/>
<path style="opacity:0.1;enable-background:new    ;" d="M122.072,166.832H59.883c-4.7,0-8.545,3.847-8.545,8.545v11.036
	c0-4.7,3.845-8.545,8.545-8.545h62.189c4.7,0,8.545,3.845,8.545,8.545v-11.036C130.617,170.679,126.772,166.832,122.072,166.832z"/>
<g>
	<path style="fill:#FFB819;" d="M487.147,322.598h-22.864c-2.937,0-5.341-2.403-5.341-5.341v-13.535
		c0-2.937,2.403-5.341,5.341-5.341h22.864V322.598z"/>
	<path style="fill:#FFB819;" d="M24.853,322.598h22.864c2.937,0,5.341-2.403,5.341-5.341v-13.535c0-2.937-2.403-5.341-5.341-5.341
		H24.853V322.598z"/>
</g>
<path style="fill:#1E252B;" d="M134.828,305.319c-19.459,0-35.291,15.831-35.291,35.29c0,19.46,15.832,35.292,35.291,35.292
	s35.291-15.832,35.291-35.292C170.119,321.149,154.289,305.319,134.828,305.319z M134.828,359.878
	c-10.625,0-19.269-8.644-19.269-19.27c0-10.624,8.644-19.268,19.269-19.268s19.269,8.644,19.269,19.268
	C154.097,351.234,145.454,359.878,134.828,359.878z M122.072,158.821H59.883c-9.129,0-16.556,7.427-16.556,16.556v37.029
	c0,9.129,7.427,16.556,16.556,16.556h62.189c9.129,0,16.556-7.427,16.556-16.556v-37.029
	C138.628,166.249,131.2,158.821,122.072,158.821z M122.606,212.406c0,0.275-0.26,0.534-0.534,0.534H59.883
	c-0.275,0-0.534-0.26-0.534-0.534v-37.029c0-0.275,0.26-0.534,0.534-0.534h62.189c0.275,0,0.534,0.26,0.534,0.534V212.406z
	 M377.17,305.319c-19.459,0-35.291,15.831-35.291,35.29c0,19.46,15.832,35.292,35.291,35.292c19.459,0,35.291-15.832,35.291-35.292
	C412.461,321.149,396.629,305.319,377.17,305.319z M377.17,359.878c-10.625,0-19.269-8.644-19.269-19.27
	c0-10.624,8.644-19.268,19.269-19.268s19.269,8.644,19.269,19.268C396.439,351.234,387.795,359.878,377.17,359.878z
	 M495.158,314.643v-149.25c0-19.142-15.573-34.714-34.714-34.714h-11.641l-2.79-10.092c-1.738-6.285-7.965-11.024-14.485-11.024
	h-31.509c-6.522,0-12.749,4.74-14.485,11.024l-2.791,10.092H51.556c-19.141,0-34.714,15.572-34.714,34.714v149.25
	C7.461,315.218,0,323.011,0,332.534v16.147c0,9.896,8.05,17.948,17.947,17.948h18.084c9.896,0,17.948-8.051,17.948-17.948v-0.063
	h19.557c3.942,30.322,29.917,53.821,61.295,53.821s57.353-23.5,61.295-53.821h119.752c3.942,30.322,29.917,53.821,61.295,53.821
	c31.377,0,57.353-23.5,61.295-53.821h15.285v0.063c0,9.896,8.051,17.948,17.948,17.948h22.357c9.896,0,17.947-8.051,17.947-17.948
	v-16.147C512,323.011,504.538,315.218,495.158,314.643z M400.774,125.584h29.997l1.408,5.095h-32.814L400.774,125.584z
	 M37.956,348.681c0,1.045-0.882,1.926-1.926,1.926H17.947c-1.042,0-1.925-0.881-1.925-1.926v-16.147
	c0-1.044,0.881-1.926,1.925-1.926h18.084c1.044,0,1.926,0.881,1.926,1.926v16.147H37.956z M134.828,386.418
	c-25.259,0-45.809-20.551-45.809-45.811c0-25.258,20.55-45.808,45.809-45.808c25.259,0,45.809,20.55,45.809,45.808
	C180.638,365.867,160.088,386.418,134.828,386.418z M377.17,386.418c-25.259,0-45.809-20.551-45.809-45.811
	c0-25.258,20.55-45.808,45.809-45.808c25.259,0,45.809,20.55,45.809,45.808C422.98,365.867,402.43,386.418,377.17,386.418z
	 M453.75,332.534v0.063h-15.285c-3.942-30.321-29.917-53.819-61.295-53.819c-31.377,0-57.352,23.499-61.295,53.819H196.123
	c-3.942-30.321-29.917-53.819-61.295-53.819c-31.377,0-57.351,23.499-61.295,53.819H53.976v-0.063
	c0-9.896-8.051-17.948-17.948-17.948h-3.167V165.392c0-10.306,8.386-18.692,18.692-18.692h408.89
	c10.306,0,18.692,8.386,18.692,18.692v149.195h-7.439C461.801,314.587,453.75,322.638,453.75,332.534z M495.978,348.681
	c0,1.045-0.881,1.926-1.925,1.926h-22.357c-1.044,0-1.926-0.881-1.926-1.926v-16.147c0-1.044,0.882-1.926,1.926-1.926h22.357
	c1.044,0,1.925,0.881,1.925,1.926V348.681z M452.117,158.821h-62.189c-9.129,0-16.556,7.427-16.556,16.556v37.029
	c0,9.129,7.427,16.556,16.556,16.556h62.189c9.129,0,16.556-7.427,16.556-16.556v-37.029
	C468.673,166.249,461.245,158.821,452.117,158.821z M452.651,212.406c0,0.275-0.26,0.534-0.534,0.534h-62.189
	c-0.274,0-0.534-0.26-0.534-0.534v-37.029c0-0.275,0.26-0.534,0.534-0.534h62.189c0.275,0,0.534,0.26,0.534,0.534V212.406z
	 M342.102,158.821h-62.189c-9.129,0-16.556,7.427-16.556,16.556v37.029c0,9.129,7.427,16.556,16.556,16.556h62.189
	c9.129,0,16.556-7.427,16.556-16.556v-37.029C358.658,166.249,351.23,158.821,342.102,158.821z M342.636,212.406
	c0,0.275-0.26,0.534-0.534,0.534h-62.189c-0.275,0-0.534-0.26-0.534-0.534v-37.029c0-0.275,0.26-0.534,0.534-0.534h62.189
	c0.275,0,0.534,0.26,0.534,0.534V212.406z M232.087,158.821h-62.189c-9.129,0-16.556,7.427-16.556,16.556v37.029
	c0,9.129,7.427,16.556,16.556,16.556h62.189c9.129,0,16.556-7.427,16.556-16.556v-37.029
	C248.643,166.249,241.215,158.821,232.087,158.821z M232.621,212.406c0,0.275-0.26,0.534-0.534,0.534h-62.189
	c-0.275,0-0.534-0.26-0.534-0.534v-37.029c0-0.275,0.26-0.534,0.534-0.534h62.189c0.275,0,0.534,0.26,0.534,0.534L232.621,212.406
	L232.621,212.406z"/>
</svg>