<?xml version="1.0" encoding="iso-8859-1"?>
<!-- Uploaded to: SVG Repo, www.svgrepo.com, Generator: SVG Repo Mixer Tools -->
<svg height="800px" width="800px" version="1.1" id="Layer_1" xmlns="http://www.w3.org/2000/svg" xmlns:xlink="http://www.w3.org/1999/xlink" 
	 viewBox="0 0 511.991 511.991" xml:space="preserve">
<g>
	<path style="fill:#F7EEE4;" d="M479.987,341.441l-65.347-238.403c-9.261-36.011-36.684-64.548-72.3-75.228l-32.445-9.737
		L256,98.798l-53.895-80.725l-32.454,9.737c-35.606,10.68-63.03,39.217-72.291,75.228L32.004,341.441
		c-2.695,10.483,4.428,20.956,15.171,22.303l35.472,4.428c9.162,1.15,17.695-4.842,19.743-13.842l45.82-183.556l17.965,143.719
		l-53.895,179.344l3.593,0.898c37.214,9.306,75.129,14.776,113.179,16.555v0.063L256,511.991c47.059,0,94.118-5.758,140.117-17.255
		l3.602-0.898l-53.895-179.344l17.965-143.719l45.819,183.556c2.039,9,10.581,14.992,19.743,13.842l35.463-4.428
		C475.558,362.397,482.681,351.924,479.987,341.441"/>
	<g>
		<polygon style="fill:#B7AB9F;" points="166.173,116.759 255.997,98.794 202.103,18.069 		"/>
		<polygon style="fill:#B7AB9F;" points="345.822,116.759 255.997,98.794 309.892,18.069 		"/>
	</g>
	<g>
		<path style="fill:#D6CEC5;" d="M309.892,18.073L300.91,9.09C292.071,0.252,273.253,0,255.997,0s-36.136,0.314-44.912,9.09
			l-8.982,8.982l53.895,80.725L309.892,18.073z"/>
		<path style="fill:#D6CEC5;" d="M247.015,395.215c0-4.958-4.024-8.982-8.982-8.982c-4.958,0-8.982,4.024-8.982,8.982
			c0,4.958,4.024,8.982,8.982,8.982C242.991,404.198,247.015,400.174,247.015,395.215"/>
		<path style="fill:#D6CEC5;" d="M282.945,395.215c0-4.958-4.024-8.982-8.982-8.982s-8.982,4.024-8.982,8.982
			c0,4.958,4.024,8.982,8.982,8.982S282.945,400.174,282.945,395.215"/>
		<path style="fill:#D6CEC5;" d="M247.015,458.093c0-4.958-4.024-8.982-8.982-8.982c-4.958,0-8.982,4.024-8.982,8.982
			c0,4.958,4.024,8.982,8.982,8.982C242.991,467.075,247.015,463.051,247.015,458.093"/>
		<path style="fill:#D6CEC5;" d="M282.945,458.093c0-4.958-4.024-8.982-8.982-8.982s-8.982,4.024-8.982,8.982
			c0,4.958,4.024,8.982,8.982,8.982S282.945,463.051,282.945,458.093"/>
		<path style="fill:#D6CEC5;" d="M247.015,170.654c0-4.958-4.024-8.982-8.982-8.982c-4.958,0-8.982,4.024-8.982,8.982
			c0,4.958,4.024,8.982,8.982,8.982C242.991,179.637,247.015,175.612,247.015,170.654"/>
		<path style="fill:#D6CEC5;" d="M282.945,170.654c0-4.958-4.024-8.982-8.982-8.982s-8.982,4.024-8.982,8.982
			c0,4.958,4.024,8.982,8.982,8.982S282.945,175.612,282.945,170.654"/>
		<path style="fill:#D6CEC5;" d="M247.015,233.531c0-4.958-4.024-8.982-8.982-8.982c-4.958,0-8.982,4.024-8.982,8.982
			c0,4.958,4.024,8.982,8.982,8.982C242.991,242.514,247.015,238.49,247.015,233.531"/>
		<path style="fill:#D6CEC5;" d="M282.945,233.531c0-4.958-4.024-8.982-8.982-8.982s-8.982,4.024-8.982,8.982
			c0,4.958,4.024,8.982,8.982,8.982S282.945,238.49,282.945,233.531"/>
		<path style="fill:#D6CEC5;" d="M166.173,323.479c-4.949,0-8.964-3.997-8.982-8.955c-0.018-4.958,3.988-8.991,8.947-9.009
			l35.93-0.126h0.036c4.949,0,8.964,4.006,8.982,8.956c0.018,4.958-3.988,8.991-8.947,9.009l-35.93,0.126H166.173z"/>
		<path style="fill:#D6CEC5;" d="M309.892,323.479c-4.949,0-8.965-3.997-8.982-8.955c-0.018-4.958,3.988-8.991,8.947-9.009
			l35.93-0.126h0.036c4.949,0,8.965,4.006,8.982,8.956c0.018,4.958-3.988,8.991-8.947,9.009l-35.93,0.126H309.892z"/>
	</g>
	<path style="fill:#BE3A2B;" d="M309.892,314.373c0,19.842-24.127,35.93-53.895,35.93s-53.895-16.088-53.895-35.93
		c0-19.842,24.127-35.93,53.895-35.93S309.892,294.531,309.892,314.373"/>
	<path style="fill:#F0C419;" d="M264.98,314.373c0-4.958-4.024-8.982-8.982-8.982s-8.982,4.024-8.982,8.982
		c0,4.958,4.024,8.982,8.982,8.982S264.98,319.332,264.98,314.373"/>
</g>
</svg>