<?xml version="1.0" encoding="iso-8859-1"?>
<!-- Uploaded to: SVG Repo, www.svgrepo.com, Generator: SVG Repo Mixer Tools -->
<svg height="800px" width="800px" version="1.1" id="Layer_1" xmlns="http://www.w3.org/2000/svg" xmlns:xlink="http://www.w3.org/1999/xlink" 
	 viewBox="0 0 512 512" xml:space="preserve">
<path style="fill:#00C3FF;" d="M175.738,12.345c-2.935-9.293-12.845-14.465-22.15-11.516c-9.302,2.94-14.457,12.853-11.521,22.155
	l26.219,83.026l37.013-0.057L175.738,12.345z"/>
<path style="fill:#00AAF0;" d="M142.067,22.983l26.219,83.026l17.647-0.028l-24.242-81.914c-2.04-6.893-9.411-11.353-16.164-8.888
	C142.298,16.358,140.6,18.332,142.067,22.983z"/>
<path style="fill:#FAE6BE;" d="M141.243,467.863v26.482c0,9.75,7.905,17.655,17.655,17.655h194.203
	c9.75,0,17.655-7.905,17.655-17.655v-26.482H141.243z"/>
<path style="fill:#F5DCB4;" d="M238.345,494.345v-26.482h-97.102v26.482c0,9.75,7.905,17.655,17.655,17.655h97.102
	C246.25,512,238.345,504.095,238.345,494.345z"/>
<path style="fill:#FAF0D3;" d="M423.72,97.111H88.279c-4.879,0-8.827,3.948-8.827,8.827c0,4.879,3.948,8.827,8.827,8.827h18.075
	l16.034,336.702c0.672,14.119,12.316,25.222,26.452,25.222h214.32c14.136,0,25.779-11.103,26.452-25.222l16.034-336.702h18.075
	c4.879,0,8.827-3.948,8.827-8.827C432.549,101.059,428.6,97.111,423.72,97.111z"/>
<path style="fill:#FAE6BE;" d="M405.645,114.766H106.354l16.034,336.702c0.672,14.119,12.316,25.222,26.452,25.222h80.702
	c-11.641,0-21.231-11.103-21.784-25.222l-12.152-309.873c-0.196-5.007,3.81-9.173,8.821-9.173h200.378L405.645,114.766z"/>
<circle style="fill:#00C3FF;" cx="255.995" cy="308.97" r="88.274"/>
<path style="fill:#00AAF0;" d="M167.725,308.969c0,29.729,14.743,55.967,37.266,71.962l-5.481-139.771
	C180.095,257.352,167.725,281.709,167.725,308.969z"/>
<circle style="fill:#FAF0D3;" cx="255.995" cy="308.97" r="61.792"/>
<circle style="fill:#00AAF0;" cx="255.995" cy="308.97" r="44.137"/>
</svg>