<?xml version="1.0" encoding="iso-8859-1"?>
<!-- Uploaded to: SVG Repo, www.svgrepo.com, Generator: SVG Repo Mixer Tools -->
<svg version="1.1" id="Layer_1" xmlns="http://www.w3.org/2000/svg" xmlns:xlink="http://www.w3.org/1999/xlink" 
	 viewBox="0 0 512 512" xml:space="preserve">
<path style="fill:#2598FE;" d="M504.026,192.374C475.738,81.771,375.42,0,256,0C114.615,0,0,114.616,0,256
	c0,109.478,68.729,202.888,165.387,239.481L504.026,192.374z"/>
<path style="fill:#1C72BF;" d="M512,256c0-21.965-2.77-43.282-7.974-63.626L400.696,89.043l-17.651,17.651l-66.783-66.783
	L79.823,409.916l85.564,85.564C193.558,506.145,224.093,512,256,512C397.384,512,512,397.384,512,256z"/>
<path style="fill:#92CCFF;" d="M400.696,333.913v89.043H256l-33.391-322.783l155.826,11.13
	C378.435,201.267,400.696,243.95,400.696,333.913z"/>
<path style="fill:#C9E5FF;" d="M111.304,333.913v89.043H256V100.174l-122.435,11.13C133.565,201.267,111.304,243.95,111.304,333.913
	z"/>
<path style="fill:#5CB2FE;" d="M356.174,111.304l-122.435-11.13v133.565l126.555-55.652
	C357.86,158.21,356.174,136.525,356.174,111.304z"/>
<rect x="278.261" y="100.174" style="fill:#92CCFF;" width="44.522" height="100.174"/>
<path style="fill:#5CB2FE;" d="M300.522,33.391c-12.295,0-22.261,9.966-22.261,22.261v50.087h44.522V55.652
	C322.783,43.357,312.816,33.391,300.522,33.391z"/>
<path style="fill:#92CCFF;" d="M155.826,111.304c0,25.22-1.686,46.906-4.12,66.783L256,233.739V100.174L155.826,111.304z"/>
<path style="fill:#FEDCD7;" d="M378.435,378.435v-44.522c0-43.126-5.258-74.454-10.823-107.62L378.435,378.435z"/>
<g>
	<path style="fill:#C9E5FF;" d="M360.296,178.087H256v200.348h122.435v-44.522c0-43.126-5.258-74.454-10.823-107.62
		C365.016,210.83,362.381,195.122,360.296,178.087z"/>
	<polygon style="fill:#C9E5FF;" points="400.696,89.043 400.696,111.304 256,111.304 245.009,100.174 256,89.043 	"/>
</g>
<g>
	<rect x="111.304" y="89.043" style="fill:#FFFFFF;" width="144.696" height="22.261"/>
	<path style="fill:#FFFFFF;" d="M151.704,178.087c-2.086,17.034-4.72,32.744-7.316,48.206
		c-5.565,33.166-10.823,64.494-10.823,107.62v44.522H256V178.087H151.704z"/>
</g>
<polygon style="fill:#20162F;" points="356.174,322.781 345.043,331.129 333.913,322.781 328.348,345.043 353.391,345.043 "/>
<polygon style="fill:#30275E;" points="322.783,331.129 311.652,322.781 314.435,345.043 333.913,345.043 333.913,322.781 "/>
<path style="fill:#20162F;" d="M333.913,333.913l-22.261,44.522l22.261,44.522c24.588,0,44.522-19.934,44.522-44.522
	C378.435,353.847,358.501,333.913,333.913,333.913z"/>
<path style="fill:#30275E;" d="M289.391,378.435c0,24.588,19.933,44.522,44.522,44.522v-89.043
	C309.325,333.913,289.391,353.847,289.391,378.435z"/>
<polygon style="fill:#20162F;" points="455.747,354.925 441.973,352.957 440.006,339.184 420.33,350.99 438.038,368.699 "/>
<polygon style="fill:#30275E;" points="426.232,337.217 424.265,323.444 410.492,341.152 424.264,354.925 440.006,339.184 "/>
<path style="fill:#20162F;" d="M432.177,346.953l-47.222,15.741l-15.741,47.222c17.387,17.387,45.577,17.387,62.964,0
	C449.565,392.529,449.564,364.34,432.177,346.953z"/>
<g>
	<path style="fill:#30275E;" d="M369.214,346.953c-17.387,17.387-17.387,45.577,0,62.964l62.964-62.964
		C414.79,329.567,386.601,329.567,369.214,346.953z"/>
	<polygon style="fill:#30275E;" points="56.253,354.925 70.026,352.957 71.994,339.184 91.67,350.99 73.962,368.699 	"/>
</g>
<polygon style="fill:#41388D;" points="85.768,337.217 87.735,323.444 101.508,341.152 87.736,354.925 71.994,339.184 "/>
<path style="fill:#30275E;" d="M79.823,346.953l47.222,15.741l15.741,47.222c-17.387,17.387-45.577,17.387-62.964,0
	C62.435,392.529,62.436,364.34,79.823,346.953z"/>
<path style="fill:#41388D;" d="M142.786,346.953c17.387,17.387,17.387,45.577,0,62.964l-62.964-62.964
	C97.21,329.567,125.399,329.567,142.786,346.953z"/>
</svg>